Pragati Narrow-Bold.ufo
<glyph name="exclam" format="1">
  <advance width="251"/>
  <unicode hex="0021"/>
  <outline>
    <contour>
      <point x="55" y="630" type="line"/>
      <point x="67" y="480"/>
      <point x="76" y="331"/>
      <point x="87" y="181" type="curve"/>
      <point x="162" y="181" type="line"/>
      <point x="174" y="331"/>
      <point x="185" y="480"/>
      <point x="196" y="630" type="curve"/>
    </contour>
    <contour>
      <point x="189" y="126" type="line"/>
      <point x="62" y="126" type="line"/>
      <point x="62" y="0" type="line"/>
      <point x="189" y="0" type="line"/>
    </contour>
  </outline>
</glyph>
<glyph name="quotedbl" format="1">
  <advance width="358"/>
  <unicode hex="0022"/>
  <outline>
    <contour>
      <point x="320" y="630" type="line"/>
      <point x="208" y="630" type="line"/>
      <point x="208" y="495" type="line"/>
      <point x="228" y="374" type="line"/>
      <point x="301" y="374" type="line"/>
      <point x="320" y="495" type="line"/>
    </contour>
    <contour>
      <point x="154" y="630" type="line"/>
      <point x="42" y="630" type="line"/>
      <point x="42" y="495" type="line"/>
      <point x="61" y="374" type="line"/>
      <point x="134" y="374" type="line"/>
      <point x="154" y="495" type="line"/>
    </contour>
  </outline>
</glyph>
<glyph name="numbersign" format="1">
  <advance width="419"/>
  <unicode hex="0023"/>
  <outline>
    <contour>
      <point x="357" y="464" type="line"/>
      <point x="397" y="642" type="line"/>
      <point x="316" y="642" type="line"/>
      <point x="276" y="464" type="line"/>
      <point x="207" y="464" type="line"/>
      <point x="248" y="642" type="line"/>
      <point x="166" y="642" type="line"/>
      <point x="126" y="464" type="line"/>
      <point x="41" y="464" type="line"/>
      <point x="41" y="386" type="line"/>
      <point x="108" y="386" type="line"/>
      <point x="80" y="257" type="line"/>
      <point x="4" y="257" type="line"/>
      <point x="4" y="179" type="line"/>
      <point x="62" y="179" type="line"/>
      <point x="22" y="0" type="line"/>
      <point x="103" y="0" type="line"/>
      <point x="144" y="179" type="line"/>
      <point x="212" y="179" type="line"/>
      <point x="172" y="0" type="line"/>
      <point x="253" y="0" type="line"/>
      <point x="293" y="179" type="line"/>
      <point x="378" y="179" type="line"/>
      <point x="378" y="257" type="line"/>
      <point x="311" y="257" type="line"/>
      <point x="339" y="386" type="line"/>
      <point x="414" y="386" type="line"/>
      <point x="414" y="464" type="line"/>
    </contour>
    <contour>
      <point x="189" y="386" type="line"/>
      <point x="258" y="386" type="line"/>
      <point x="230" y="257" type="line"/>
      <point x="161" y="257" type="line"/>
    </contour>
  </outline>
</glyph>
<glyph name="percent" format="1">
  <advance width="670"/>
  <unicode hex="0025"/>
  <outline>
    <contour>
      <point x="568" y="630" type="line"/>
      <point x="489" y="630" type="line"/>
      <point x="105" y="0" type="line"/>
      <point x="183" y="0" type="line"/>
    </contour>
    <contour>
      <point x="80" y="642"/>
      <point x="32" y="603"/>
      <point x="32" y="475" type="curve" smooth="yes"/>
      <point x="32" y="348"/>
      <point x="80" y="310"/>
      <point x="159" y="310" type="curve" smooth="yes"/>
      <point x="238" y="310"/>
      <point x="286" y="347"/>
      <point x="286" y="475" type="curve" smooth="yes"/>
      <point x="286" y="603"/>
      <point x="238" y="642"/>
      <point x="159" y="642" type="curve" smooth="yes"/>
    </contour>
    <contour>
      <point x="196" y="574"/>
      <point x="204" y="537"/>
      <point x="204" y="483" type="curve" smooth="yes"/>
      <point x="204" y="469" type="line" smooth="yes"/>
      <point x="204" y="415"/>
      <point x="196" y="376"/>
      <point x="159" y="376" type="curve" smooth="yes"/>
      <point x="123" y="376"/>
      <point x="114" y="415"/>
      <point x="114" y="469" type="curve" smooth="yes"/>
      <point x="114" y="483" type="line" smooth="yes"/>
      <point x="114" y="537"/>
      <point x="123" y="574"/>
      <point x="159" y="574" type="curve" smooth="yes"/>
    </contour>
    <contour>
      <point x="433" y="321"/>
      <point x="385" y="282"/>
      <point x="385" y="155" type="curve" smooth="yes"/>
      <point x="385" y="28"/>
      <point x="433" y="-11"/>
      <point x="512" y="-11" type="curve" smooth="yes"/>
      <point x="591" y="-11"/>
      <point x="639" y="27"/>
      <point x="639" y="155" type="curve" smooth="yes"/>
      <point x="639" y="282"/>
      <point x="591" y="321"/>
      <point x="512" y="321" type="curve" smooth="yes"/>
    </contour>
    <contour>
      <point x="549" y="254"/>
      <point x="557" y="216"/>
      <point x="557" y="162" type="curve" smooth="yes"/>
      <point x="557" y="148" type="line" smooth="yes"/>
      <point x="557" y="94"/>
      <point x="549" y="56"/>
      <point x="512" y="56" type="curve" smooth="yes"/>
      <point x="475" y="56"/>
      <point x="467" y="94"/>
      <point x="467" y="148" type="curve" smooth="yes"/>
      <point x="467" y="162" type="line" smooth="yes"/>
      <point x="467" y="216"/>
      <point x="475" y="254"/>
      <point x="512" y="254" type="curve" smooth="yes"/>
    </contour>
  </outline>
</glyph>
<glyph name="ampersand" format="1">
  <advance width="544"/>
  <unicode hex="0026"/>
  <outline>
    <contour>
      <point x="131" y="642"/>
      <point x="46" y="581"/>
      <point x="46" y="469" type="curve" smooth="yes"/>
      <point x="46" y="394"/>
      <point x="86" y="354"/>
      <point x="140" y="328" type="curve"/>
      <point x="140" y="323" type="line"/>
      <point x="79" y="304"/>
      <point x="33" y="253"/>
      <point x="33" y="170" type="curve" smooth="yes"/>
      <point x="33" y="57"/>
      <point x="123" y="-11"/>
      <point x="248" y="-11" type="curve" smooth="yes"/>
      <point x="385" y="-11"/>
      <point x="458" y="63"/>
      <point x="458" y="178" type="curve" smooth="yes"/>
      <point x="458" y="274" type="line"/>
      <point x="530" y="274" type="line"/>
      <point x="530" y="367" type="line"/>
      <point x="347" y="367" type="line"/>
      <point x="347" y="176" type="line" smooth="yes"/>
      <point x="347" y="115"/>
      <point x="315" y="82"/>
      <point x="250" y="82" type="curve" smooth="yes"/>
      <point x="187" y="82"/>
      <point x="148" y="111"/>
      <point x="148" y="175" type="curve" smooth="yes"/>
      <point x="148" y="254"/>
      <point x="198" y="274"/>
      <point x="254" y="274" type="curve" smooth="yes"/>
      <point x="289" y="274" type="line"/>
      <point x="289" y="367" type="line"/>
      <point x="251" y="367" type="line" smooth="yes"/>
      <point x="199" y="367"/>
      <point x="161" y="404"/>
      <point x="161" y="464" type="curve" smooth="yes"/>
      <point x="161" y="517"/>
      <point x="196" y="549"/>
      <point x="255" y="549" type="curve" smooth="yes"/>
      <point x="315" y="549"/>
      <point x="347" y="519"/>
      <point x="347" y="461" type="curve" smooth="yes"/>
      <point x="347" y="443" type="line"/>
      <point x="458" y="443" type="line"/>
      <point x="458" y="469" type="line" smooth="yes"/>
      <point x="458" y="574"/>
      <point x="375" y="642"/>
      <point x="257" y="642" type="curve" smooth="yes"/>
    </contour>
  </outline>
</glyph>
<glyph name="quotesingle" format="1">
  <advance width="179"/>
  <unicode hex="0027"/>
  <outline>
    <contour>
      <point x="147" y="630" type="line"/>
      <point x="34" y="630" type="line"/>
      <point x="34" y="495" type="line"/>
      <point x="54" y="374" type="line"/>
      <point x="127" y="374" type="line"/>
      <point x="147" y="495" type="line"/>
    </contour>
  </outline>
</glyph>
<glyph name="parenleft" format="1">
  <advance width="251"/>
  <unicode hex="0028"/>
  <outline>
    <contour>
      <point x="164" y="676" type="line"/>
      <point x="76" y="563"/>
      <point x="28" y="416"/>
      <point x="28" y="265" type="curve" smooth="yes"/>
      <point x="28" y="114"/>
      <point x="76" y="-31"/>
      <point x="164" y="-145" type="curve"/>
      <point x="237" y="-145" type="line"/>
      <point x="177" y="-32"/>
      <point x="129" y="123"/>
      <point x="129" y="266" type="curve" smooth="yes"/>
      <point x="129" y="410"/>
      <point x="177" y="564"/>
      <point x="237" y="676" type="curve"/>
    </contour>
  </outline>
</glyph>
<glyph name="parenright" format="1">
  <advance width="251"/>
  <unicode hex="0029"/>
  <outline>
    <contour>
      <point x="14" y="676" type="line"/>
      <point x="75" y="564"/>
      <point x="123" y="410"/>
      <point x="123" y="266" type="curve" smooth="yes"/>
      <point x="123" y="123"/>
      <point x="75" y="-32"/>
      <point x="14" y="-145" type="curve"/>
      <point x="86" y="-145" type="line"/>
      <point x="175" y="-31"/>
      <point x="224" y="114"/>
      <point x="224" y="265" type="curve" smooth="yes"/>
      <point x="224" y="416"/>
      <point x="175" y="563"/>
      <point x="86" y="676" type="curve"/>
    </contour>
  </outline>
</glyph>
<glyph name="asterisk" format="1">
  <advance width="293"/>
  <unicode hex="002A"/>
  <outline>
    <contour>
      <point x="174" y="538" type="line"/>
      <point x="183" y="630" type="line"/>
      <point x="111" y="630" type="line"/>
      <point x="121" y="537" type="line"/>
      <point x="44" y="591" type="line"/>
      <point x="7" y="530" type="line"/>
      <point x="93" y="490" type="line"/>
      <point x="7" y="451" type="line"/>
      <point x="44" y="389" type="line"/>
      <point x="121" y="444" type="line"/>
      <point x="111" y="350" type="line"/>
      <point x="183" y="350" type="line"/>
      <point x="174" y="444" type="line"/>
      <point x="251" y="389" type="line"/>
      <point x="287" y="451" type="line"/>
      <point x="202" y="490" type="line"/>
      <point x="287" y="530" type="line"/>
      <point x="251" y="591" type="line"/>
    </contour>
  </outline>
</glyph>
<glyph name="period" format="1">
  <advance width="210"/>
  <unicode hex="002E"/>
  <outline>
    <contour>
      <point x="168" y="0" type="line"/>
      <point x="168" y="126" type="line"/>
      <point x="42" y="126" type="line"/>
      <point x="42" y="0" type="line"/>
    </contour>
  </outline>
</glyph>
<glyph name="zero" format="1">
  <advance width="419"/>
  <unicode hex="0030"/>
  <outline>
    <contour>
      <point x="96" y="642"/>
      <point x="28" y="572"/>
      <point x="28" y="315" type="curve" smooth="yes"/>
      <point x="28" y="59"/>
      <point x="96" y="-11"/>
      <point x="210" y="-11" type="curve" smooth="yes"/>
      <point x="322" y="-11"/>
      <point x="392" y="59"/>
      <point x="392" y="315" type="curve" smooth="yes"/>
      <point x="392" y="572"/>
      <point x="322" y="642"/>
      <point x="210" y="642" type="curve" smooth="yes"/>
    </contour>
    <contour>
      <point x="265" y="549"/>
      <point x="277" y="486"/>
      <point x="277" y="347" type="curve" smooth="yes"/>
      <point x="277" y="283" type="line" smooth="yes"/>
      <point x="277" y="146"/>
      <point x="265" y="82"/>
      <point x="210" y="82" type="curve" smooth="yes"/>
      <point x="154" y="82"/>
      <point x="142" y="146"/>
      <point x="142" y="283" type="curve" smooth="yes"/>
      <point x="142" y="347" type="line" smooth="yes"/>
      <point x="142" y="486"/>
      <point x="154" y="549"/>
      <point x="210" y="549" type="curve" smooth="yes"/>
    </contour>
  </outline>
</glyph>
<glyph name="one" format="1">
  <advance width="419"/>
  <unicode hex="0031"/>
  <outline>
    <contour>
      <point x="289" y="93" type="line"/>
      <point x="289" y="630" type="line"/>
      <point x="234" y="630" type="line"/>
      <point x="176" y="594"/>
      <point x="87" y="566"/>
      <point x="35" y="560" type="curve"/>
      <point x="35" y="487" type="line"/>
      <point x="178" y="487" type="line"/>
      <point x="178" y="93" type="line"/>
      <point x="36" y="93" type="line"/>
      <point x="36" y="0" type="line"/>
      <point x="418" y="0" type="line"/>
      <point x="418" y="93" type="line"/>
    </contour>
  </outline>
</glyph>
<glyph name="three" format="1">
  <advance width="419"/>
  <unicode hex="0033"/>
  <outline>
    <contour>
      <point x="106" y="642"/>
      <point x="34" y="574"/>
      <point x="34" y="469" type="curve" smooth="yes"/>
      <point x="34" y="443" type="line"/>
      <point x="149" y="443" type="line"/>
      <point x="149" y="461" type="line" smooth="yes"/>
      <point x="149" y="519"/>
      <point x="171" y="549"/>
      <point x="208" y="549" type="curve" smooth="yes"/>
      <point x="243" y="549"/>
      <point x="265" y="523"/>
      <point x="265" y="464" type="curve" smooth="yes"/>
      <point x="265" y="399"/>
      <point x="238" y="367"/>
      <point x="203" y="367" type="curve" smooth="yes"/>
      <point x="171" y="367" type="line"/>
      <point x="171" y="274" type="line"/>
      <point x="202" y="274" type="line" smooth="yes"/>
      <point x="241" y="274"/>
      <point x="277" y="254"/>
      <point x="277" y="175" type="curve" smooth="yes"/>
      <point x="277" y="111"/>
      <point x="250" y="82"/>
      <point x="208" y="82" type="curve" smooth="yes"/>
      <point x="162" y="82"/>
      <point x="138" y="115"/>
      <point x="138" y="176" type="curve" smooth="yes"/>
      <point x="138" y="194" type="line"/>
      <point x="23" y="194" type="line"/>
      <point x="23" y="178" type="line" smooth="yes"/>
      <point x="23" y="63"/>
      <point x="89" y="-11"/>
      <point x="210" y="-11" type="curve" smooth="yes"/>
      <point x="316" y="-11"/>
      <point x="392" y="57"/>
      <point x="392" y="170" type="curve" smooth="yes"/>
      <point x="392" y="253"/>
      <point x="353" y="304"/>
      <point x="298" y="323" type="curve"/>
      <point x="298" y="328" type="line"/>
      <point x="345" y="354"/>
      <point x="381" y="394"/>
      <point x="381" y="469" type="curve" smooth="yes"/>
      <point x="381" y="581"/>
      <point x="311" y="642"/>
      <point x="207" y="642" type="curve" smooth="yes"/>
    </contour>
  </outline>
</glyph>
<glyph name="six" format="1">
  <advance width="419"/>
  <unicode hex="0036"/>
  <outline>
    <contour>
      <point x="96" y="642"/>
      <point x="28" y="560"/>
      <point x="28" y="297" type="curve" smooth="yes"/>
      <point x="28" y="63"/>
      <point x="99" y="-11"/>
      <point x="218" y="-11" type="curve" smooth="yes"/>
      <point x="318" y="-11"/>
      <point x="392" y="68"/>
      <point x="392" y="193" type="curve" smooth="yes"/>
      <point x="392" y="310"/>
      <point x="341" y="396"/>
      <point x="239" y="396" type="curve" smooth="yes"/>
      <point x="199" y="396"/>
      <point x="162" y="378"/>
      <point x="141" y="346" type="curve"/>
      <point x="144" y="470"/>
      <point x="149" y="549"/>
      <point x="206" y="549" type="curve" smooth="yes"/>
      <point x="249" y="549"/>
      <point x="262" y="508"/>
      <point x="262" y="437" type="curve"/>
      <point x="375" y="437" type="line"/>
      <point x="375" y="553"/>
      <point x="327" y="642"/>
      <point x="210" y="642" type="curve" smooth="yes"/>
    </contour>
    <contour>
      <point x="258" y="306"/>
      <point x="278" y="260"/>
      <point x="278" y="193" type="curve" smooth="yes"/>
      <point x="278" y="130"/>
      <point x="258" y="82"/>
      <point x="213" y="82" type="curve" smooth="yes"/>
      <point x="170" y="82"/>
      <point x="148" y="130"/>
      <point x="148" y="193" type="curve" smooth="yes"/>
      <point x="148" y="260"/>
      <point x="170" y="306"/>
      <point x="213" y="306" type="curve" smooth="yes"/>
    </contour>
  </outline>
</glyph>
<glyph name="eight" format="1">
  <advance width="419"/>
  <unicode hex="0038"/>
  <outline>
    <contour>
      <point x="98" y="642"/>
      <point x="41" y="563"/>
      <point x="41" y="466" type="curve" smooth="yes"/>
      <point x="41" y="407"/>
      <point x="62" y="354"/>
      <point x="108" y="323" type="curve"/>
      <point x="52" y="295"/>
      <point x="28" y="241"/>
      <point x="28" y="173" type="curve" smooth="yes"/>
      <point x="28" y="72"/>
      <point x="81" y="-11"/>
      <point x="210" y="-11" type="curve" smooth="yes"/>
      <point x="338" y="-11"/>
      <point x="392" y="72"/>
      <point x="392" y="173" type="curve" smooth="yes"/>
      <point x="392" y="241"/>
      <point x="368" y="295"/>
      <point x="310" y="323" type="curve"/>
      <point x="356" y="354"/>
      <point x="379" y="407"/>
      <point x="379" y="466" type="curve" smooth="yes"/>
      <point x="379" y="563"/>
      <point x="321" y="642"/>
      <point x="210" y="642" type="curve" smooth="yes"/>
    </contour>
    <contour>
      <point x="254" y="277"/>
      <point x="278" y="241"/>
      <point x="278" y="178" type="curve" smooth="yes"/>
      <point x="278" y="114"/>
      <point x="254" y="81"/>
      <point x="210" y="81" type="curve" smooth="yes"/>
      <point x="165" y="81"/>
      <point x="141" y="114"/>
      <point x="141" y="178" type="curve" smooth="yes"/>
      <point x="141" y="241"/>
      <point x="165" y="277"/>
      <point x="210" y="277" type="curve" smooth="yes"/>
    </contour>
    <contour>
      <point x="246" y="550"/>
      <point x="267" y="519"/>
      <point x="267" y="459" type="curve" smooth="yes"/>
      <point x="267" y="399"/>
      <point x="246" y="368"/>
      <point x="210" y="368" type="curve" smooth="yes"/>
      <point x="173" y="368"/>
      <point x="153" y="399"/>
      <point x="153" y="459" type="curve" smooth="yes"/>
      <point x="153" y="519"/>
      <point x="173" y="550"/>
      <point x="210" y="550" type="curve" smooth="yes"/>
    </contour>
  </outline>
</glyph>
<glyph name="nine" format="1">
  <advance width="419"/>
  <unicode hex="0039"/>
  <outline>
    <contour>
      <point x="101" y="642"/>
      <point x="28" y="564"/>
      <point x="28" y="438" type="curve" smooth="yes"/>
      <point x="28" y="321"/>
      <point x="78" y="234"/>
      <point x="180" y="234" type="curve" smooth="yes"/>
      <point x="220" y="234"/>
      <point x="257" y="253"/>
      <point x="278" y="284" type="curve"/>
      <point x="276" y="161"/>
      <point x="270" y="82"/>
      <point x="213" y="82" type="curve" smooth="yes"/>
      <point x="171" y="82"/>
      <point x="157" y="123"/>
      <point x="157" y="194" type="curve"/>
      <point x="44" y="194" type="line"/>
      <point x="44" y="77"/>
      <point x="93" y="-11"/>
      <point x="210" y="-11" type="curve" smooth="yes"/>
      <point x="323" y="-11"/>
      <point x="392" y="71"/>
      <point x="392" y="334" type="curve" smooth="yes"/>
      <point x="392" y="567"/>
      <point x="320" y="642"/>
      <point x="202" y="642" type="curve" smooth="yes"/>
    </contour>
    <contour>
      <point x="250" y="549"/>
      <point x="271" y="501"/>
      <point x="271" y="438" type="curve" smooth="yes"/>
      <point x="271" y="370"/>
      <point x="250" y="324"/>
      <point x="206" y="324" type="curve" smooth="yes"/>
      <point x="162" y="324"/>
      <point x="141" y="370"/>
      <point x="141" y="438" type="curve" smooth="yes"/>
      <point x="141" y="501"/>
      <point x="162" y="549"/>
      <point x="206" y="549" type="curve" smooth="yes"/>
    </contour>
  </outline>
</glyph>
<glyph name="colon" format="1">
  <advance width="251"/>
  <unicode hex="003A"/>
  <outline>
    <contour>
      <point x="178" y="0" type="line"/>
      <point x="178" y="126" type="line"/>
      <point x="51" y="126" type="line"/>
      <point x="51" y="0" type="line"/>
    </contour>
    <contour>
      <point x="178" y="358" type="line"/>
      <point x="178" y="484" type="line"/>
      <point x="51" y="484" type="line"/>
      <point x="51" y="358" type="line"/>
    </contour>
  </outline>
</glyph>
<glyph name="semicolon" format="1">
  <advance width="251"/>
  <unicode hex="003B"/>
  <outline>
    <contour>
      <point x="177" y="11" type="line"/>
      <point x="177" y="126" type="line"/>
      <point x="50" y="126" type="line"/>
      <point x="50" y="0" type="line"/>
      <point x="100" y="0" type="line"/>
      <point x="50" y="-144" type="line"/>
      <point x="115" y="-144" type="line"/>
    </contour>
    <contour>
      <point x="178" y="358" type="line"/>
      <point x="178" y="484" type="line"/>
      <point x="51" y="484" type="line"/>
      <point x="51" y="358" type="line"/>
    </contour>
  </outline>
</glyph>
<glyph name="greater" format="1">
  <advance width="440"/>
  <unicode hex="003E"/>
  <outline>
    <contour>
      <point x="410" y="297" type="line"/>
      <point x="31" y="488" type="line"/>
      <point x="31" y="380" type="line"/>
      <point x="317" y="240" type="line"/>
      <point x="31" y="100" type="line"/>
      <point x="31" y="-8" type="line"/>
      <point x="410" y="181" type="line"/>
    </contour>
  </outline>
</glyph>
<glyph name="B" format="1">
  <advance width="544"/>
  <unicode hex="0042"/>
  <outline>
    <contour>
      <point x="55" y="630" type="line"/>
      <point x="55" y="0" type="line"/>
      <point x="327" y="0" type="line" smooth="yes"/>
      <point x="427" y="0"/>
      <point x="513" y="63"/>
      <point x="513" y="170" type="curve" smooth="yes"/>
      <point x="513" y="250"/>
      <point x="464" y="308"/>
      <point x="401" y="328" type="curve"/>
      <point x="401" y="331" type="line"/>
      <point x="456" y="350"/>
      <point x="498" y="401"/>
      <point x="498" y="474" type="curve" smooth="yes"/>
      <point x="498" y="567"/>
      <point x="425" y="630"/>
      <point x="327" y="630" type="curve" smooth="yes"/>
    </contour>
    <contour>
      <point x="173" y="271" type="line"/>
      <point x="302" y="271" type="line" smooth="yes"/>
      <point x="363" y="271"/>
      <point x="392" y="233"/>
      <point x="392" y="184" type="curve" smooth="yes"/>
      <point x="392" y="132"/>
      <point x="356" y="105"/>
      <point x="307" y="105" type="curve" smooth="yes"/>
      <point x="173" y="105" type="line"/>
    </contour>
    <contour>
      <point x="173" y="526" type="line"/>
      <point x="300" y="526" type="line" smooth="yes"/>
      <point x="346" y="526"/>
      <point x="378" y="501"/>
      <point x="378" y="453" type="curve" smooth="yes"/>
      <point x="378" y="411"/>
      <point x="350" y="375"/>
      <point x="294" y="375" type="curve" smooth="yes"/>
      <point x="173" y="375" type="line"/>
    </contour>
    <contour>
      <point x="272" y="630" type="move" name="top"/>
    </contour>
    <contour>
      <point x="272" y="0" type="move" name="bottom"/>
    </contour>
  </outline>
</glyph>
<glyph name="C" format="1">
  <advance width="544"/>
  <unicode hex="0043"/>
  <outline>
    <contour>
      <point x="124" y="642"/>
      <point x="31" y="538"/>
      <point x="31" y="315" type="curve" smooth="yes"/>
      <point x="31" y="93"/>
      <point x="124" y="-11"/>
      <point x="282" y="-11" type="curve" smooth="yes"/>
      <point x="416" y="-11"/>
      <point x="514" y="68"/>
      <point x="514" y="234" type="curve"/>
      <point x="399" y="234" type="line"/>
      <point x="399" y="136"/>
      <point x="354" y="90"/>
      <point x="286" y="90" type="curve" smooth="yes"/>
      <point x="196" y="90"/>
      <point x="153" y="166"/>
      <point x="153" y="292" type="curve" smooth="yes"/>
      <point x="153" y="338" type="line" smooth="yes"/>
      <point x="153" y="464"/>
      <point x="194" y="541"/>
      <point x="282" y="541" type="curve" smooth="yes"/>
      <point x="348" y="541"/>
      <point x="393" y="494"/>
      <point x="393" y="396" type="curve"/>
      <point x="514" y="396" type="line"/>
      <point x="514" y="567"/>
      <point x="414" y="642"/>
      <point x="282" y="642" type="curve" smooth="yes"/>
    </contour>
    <contour>
      <point x="272" y="630" type="move" name="top"/>
    </contour>
    <contour>
      <point x="272" y="0" type="move" name="bottom"/>
    </contour>
  </outline>
</glyph>
<glyph name="H" format="1">
  <advance width="544"/>
  <unicode hex="0048"/>
  <outline>
    <contour>
      <point x="489" y="630" type="line"/>
      <point x="371" y="630" type="line"/>
      <point x="371" y="375" type="line"/>
      <point x="173" y="375" type="line"/>
      <point x="173" y="630" type="line"/>
      <point x="55" y="630" type="line"/>
      <point x="55" y="0" type="line"/>
      <point x="173" y="0" type="line"/>
      <point x="173" y="270" type="line"/>
      <point x="371" y="270" type="line"/>
      <point x="371" y="0" type="line"/>
      <point x="489" y="0" type="line"/>
    </contour>
    <contour>
      <point x="272" y="315" type="move" name="center"/>
    </contour>
    <contour>
      <point x="272" y="0" type="move" name="bottom"/>
    </contour>
    <contour>
      <point x="272" y="630" type="move" name="top"/>
    </contour>
  </outline>
</glyph>
<glyph name="I" format="1">
  <advance width="210"/>
  <unicode hex="0049"/>
  <outline>
    <contour>
      <point x="163" y="0" type="line"/>
      <point x="163" y="630" type="line"/>
      <point x="46" y="630" type="line"/>
      <point x="46" y="0" type="line"/>
    </contour>
    <contour>
      <point x="188" y="9" type="move" name="ogonek"/>
    </contour>
    <contour>
      <point x="105" y="630" type="move" name="top"/>
    </contour>
  </outline>
</glyph>
<glyph name="J" format="1">
  <advance width="419"/>
  <unicode hex="004A"/>
  <outline>
    <contour>
      <point x="364" y="630" type="line"/>
      <point x="246" y="630" type="line"/>
      <point x="246" y="159" type="line" smooth="yes"/>
      <point x="246" y="114"/>
      <point x="226" y="90"/>
      <point x="186" y="90" type="curve" smooth="yes"/>
      <point x="147" y="90"/>
      <point x="125" y="114"/>
      <point x="125" y="159" type="curve" smooth="yes"/>
      <point x="125" y="199" type="line"/>
      <point x="8" y="199" type="line"/>
      <point x="8" y="150" type="line" smooth="yes"/>
      <point x="8" y="45"/>
      <point x="73" y="-11"/>
      <point x="186" y="-11" type="curve" smooth="yes"/>
      <point x="301" y="-11"/>
      <point x="364" y="45"/>
      <point x="364" y="150" type="curve" smooth="yes"/>
    </contour>
    <contour>
      <point x="210" y="630" type="move" name="top"/>
    </contour>
  </outline>
</glyph>
<glyph name="K" format="1">
  <advance width="544"/>
  <unicode hex="004B"/>
  <outline>
    <contour>
      <point x="174" y="308" type="line"/>
      <point x="174" y="630" type="line"/>
      <point x="55" y="630" type="line"/>
      <point x="55" y="0" type="line"/>
      <point x="174" y="0" type="line"/>
      <point x="174" y="161" type="line"/>
      <point x="272" y="282" type="line"/>
      <point x="409" y="0" type="line"/>
      <point x="542" y="0" type="line"/>
      <point x="349" y="374" type="line"/>
      <point x="536" y="630" type="line"/>
      <point x="405" y="630" type="line"/>
    </contour>
    <contour>
      <point x="272" y="630" type="move" name="top"/>
    </contour>
    <contour>
      <point x="272" y="0" type="move" name="bottom"/>
    </contour>
  </outline>
</glyph>
<glyph name="M" format="1">
  <advance width="628"/>
  <unicode hex="004D"/>
  <outline>
    <contour>
      <point x="579" y="630" type="line"/>
      <point x="419" y="630" type="line"/>
      <point x="342" y="283" type="line" smooth="yes"/>
      <point x="334" y="246"/>
      <point x="321" y="140"/>
      <point x="321" y="140" type="curve" smooth="yes"/>
      <point x="317" y="140" type="line" smooth="yes"/>
      <point x="317" y="140"/>
      <point x="302" y="241"/>
      <point x="292" y="283" type="curve" smooth="yes"/>
      <point x="214" y="630" type="line"/>
      <point x="49" y="630" type="line"/>
      <point x="49" y="0" type="line"/>
      <point x="149" y="0" type="line"/>
      <point x="149" y="401" type="line" smooth="yes"/>
      <point x="149" y="426"/>
      <point x="145" y="503"/>
      <point x="145" y="503" type="curve"/>
      <point x="148" y="503" type="line"/>
      <point x="155" y="470"/>
      <point x="162" y="438"/>
      <point x="171" y="405" type="curve" smooth="yes"/>
      <point x="259" y="0" type="line"/>
      <point x="361" y="0" type="line"/>
      <point x="456" y="432" type="line" smooth="yes"/>
      <point x="462" y="456"/>
      <point x="466" y="479"/>
      <point x="471" y="503" type="curve"/>
      <point x="475" y="503" type="line"/>
      <point x="475" y="503"/>
      <point x="471" y="431"/>
      <point x="471" y="401" type="curve" smooth="yes"/>
      <point x="471" y="0" type="line"/>
      <point x="579" y="0" type="line"/>
    </contour>
    <contour>
      <point x="314" y="630" type="move" name="top"/>
    </contour>
    <contour>
      <point x="314" y="0" type="move" name="bottom"/>
    </contour>
  </outline>
</glyph>
<glyph name="N" format="1">
  <advance width="544"/>
  <unicode hex="004E"/>
  <outline>
    <contour>
      <point x="489" y="630" type="line"/>
      <point x="385" y="630" type="line"/>
      <point x="385" y="280" type="line" smooth="yes"/>
      <point x="385" y="269"/>
      <point x="385" y="227"/>
      <point x="385" y="227" type="curve"/>
      <point x="383" y="225" type="line"/>
      <point x="383" y="225"/>
      <point x="364" y="267"/>
      <point x="354" y="283" type="curve" smooth="yes"/>
      <point x="159" y="630" type="line"/>
      <point x="55" y="630" type="line"/>
      <point x="55" y="0" type="line"/>
      <point x="159" y="0" type="line"/>
      <point x="159" y="352" type="line" smooth="yes"/>
      <point x="159" y="368"/>
      <point x="157" y="404"/>
      <point x="157" y="404" type="curve"/>
      <point x="161" y="407" type="line"/>
      <point x="161" y="407"/>
      <point x="182" y="361"/>
      <point x="189" y="347" type="curve" smooth="yes"/>
      <point x="385" y="0" type="line"/>
      <point x="489" y="0" type="line"/>
    </contour>
    <contour>
      <point x="272" y="630" type="move" name="top"/>
    </contour>
    <contour>
      <point x="272" y="0" type="move" name="bottom"/>
    </contour>
  </outline>
</glyph>
<glyph name="P" format="1">
  <advance width="503"/>
  <unicode hex="0050"/>
  <outline>
    <contour>
      <point x="173" y="244" type="line"/>
      <point x="281" y="244" type="line" smooth="yes"/>
      <point x="399" y="244"/>
      <point x="478" y="322"/>
      <point x="478" y="441" type="curve" smooth="yes"/>
      <point x="478" y="551"/>
      <point x="411" y="630"/>
      <point x="281" y="630" type="curve" smooth="yes"/>
      <point x="55" y="630" type="line"/>
      <point x="55" y="0" type="line"/>
      <point x="173" y="0" type="line"/>
    </contour>
    <contour>
      <point x="173" y="526" type="line"/>
      <point x="268" y="526" type="line" smooth="yes"/>
      <point x="324" y="526"/>
      <point x="357" y="493"/>
      <point x="357" y="441" type="curve" smooth="yes"/>
      <point x="357" y="384"/>
      <point x="326" y="348"/>
      <point x="268" y="348" type="curve" smooth="yes"/>
      <point x="173" y="348" type="line"/>
    </contour>
    <contour>
      <point x="252" y="630" type="move" name="top"/>
    </contour>
    <contour>
      <point x="114" y="0" type="move" name="bottom"/>
    </contour>
  </outline>
</glyph>
<glyph name="Q" format="1">
  <advance width="587"/>
  <unicode hex="0051"/>
  <outline>
    <contour>
      <point x="31" y="93"/>
      <point x="131" y="-11"/>
      <point x="293" y="-11" type="curve" smooth="yes"/>
      <point x="305" y="-11" type="line"/>
      <point x="395" y="-114" type="line"/>
      <point x="540" y="-114" type="line"/>
      <point x="418" y="16" type="line"/>
      <point x="504" y="59"/>
      <point x="555" y="157"/>
      <point x="555" y="315" type="curve" smooth="yes"/>
      <point x="555" y="538"/>
      <point x="456" y="642"/>
      <point x="293" y="642" type="curve" smooth="yes"/>
      <point x="131" y="642"/>
      <point x="31" y="538"/>
      <point x="31" y="315" type="curve" smooth="yes"/>
    </contour>
    <contour>
      <point x="153" y="338" type="line"/>
      <point x="153" y="464"/>
      <point x="200" y="541"/>
      <point x="293" y="541" type="curve" smooth="yes"/>
      <point x="387" y="541"/>
      <point x="434" y="464"/>
      <point x="434" y="338" type="curve" smooth="yes"/>
      <point x="434" y="292" type="line" smooth="yes"/>
      <point x="434" y="166"/>
      <point x="387" y="90"/>
      <point x="293" y="90" type="curve" smooth="yes"/>
      <point x="200" y="90"/>
      <point x="153" y="166"/>
      <point x="153" y="292" type="curve" smooth="yes"/>
    </contour>
    <contour>
      <point x="294" y="630" type="move" name="top"/>
    </contour>
    <contour>
      <point x="294" y="0" type="move" name="bottom"/>
    </contour>
  </outline>
</glyph>
<glyph name="T" format="1">
  <advance width="461"/>
  <unicode hex="0054"/>
  <outline>
    <contour>
      <point x="446" y="630" type="line"/>
      <point x="16" y="630" type="line"/>
      <point x="16" y="526" type="line"/>
      <point x="172" y="526" type="line"/>
      <point x="172" y="0" type="line"/>
      <point x="289" y="0" type="line"/>
      <point x="289" y="526" type="line"/>
      <point x="446" y="526" type="line"/>
    </contour>
    <contour>
      <point x="231" y="315" type="move" name="center"/>
    </contour>
    <contour>
      <point x="231" y="0" type="move" name="bottom"/>
    </contour>
    <contour>
      <point x="231" y="630" type="move" name="top"/>
    </contour>
  </outline>
</glyph>
<glyph name="U" format="1">
  <advance width="544"/>
  <unicode hex="0055"/>
  <outline>
    <contour>
      <point x="489" y="630" type="line"/>
      <point x="371" y="630" type="line"/>
      <point x="371" y="202" type="line" smooth="yes"/>
      <point x="371" y="129"/>
      <point x="335" y="90"/>
      <point x="272" y="90" type="curve" smooth="yes"/>
      <point x="210" y="90"/>
      <point x="174" y="129"/>
      <point x="174" y="202" type="curve" smooth="yes"/>
      <point x="174" y="630" type="line"/>
      <point x="56" y="630" type="line"/>
      <point x="56" y="198" type="line" smooth="yes"/>
      <point x="56" y="60"/>
      <point x="137" y="-11"/>
      <point x="272" y="-11" type="curve" smooth="yes"/>
      <point x="408" y="-11"/>
      <point x="489" y="60"/>
      <point x="489" y="198" type="curve" smooth="yes"/>
    </contour>
    <contour>
      <point x="490" y="9" type="move" name="ogonek"/>
    </contour>
    <contour>
      <point x="272" y="630" type="move" name="top"/>
    </contour>
    <contour>
      <point x="524" y="630" type="move" name="topright"/>
    </contour>
    <contour>
      <point x="272" y="0" type="move" name="bottom"/>
    </contour>
  </outline>
</glyph>
<glyph name="V" format="1">
  <advance width="503"/>
  <unicode hex="0056"/>
  <outline>
    <contour>
      <point x="311" y="0" type="line"/>
      <point x="503" y="630" type="line"/>
      <point x="388" y="630" type="line"/>
      <point x="258" y="179" type="line"/>
      <point x="254" y="179" type="line"/>
      <point x="122" y="630" type="line"/>
      <point x="0" y="630" type="line"/>
      <point x="192" y="0" type="line"/>
    </contour>
    <contour>
      <point x="252" y="630" type="move" name="top"/>
    </contour>
    <contour>
      <point x="252" y="0" type="move" name="bottom"/>
    </contour>
  </outline>
</glyph>
<glyph name="W" format="1">
  <advance width="711"/>
  <unicode hex="0057"/>
  <outline>
    <contour>
      <point x="574" y="0" type="line"/>
      <point x="710" y="630" type="line"/>
      <point x="609" y="630" type="line"/>
      <point x="532" y="242" type="line" smooth="yes"/>
      <point x="526" y="211"/>
      <point x="520" y="155"/>
      <point x="520" y="155" type="curve" smooth="yes"/>
      <point x="517" y="155" type="line" smooth="yes"/>
      <point x="517" y="155"/>
      <point x="510" y="218"/>
      <point x="504" y="242" type="curve" smooth="yes"/>
      <point x="430" y="630" type="line"/>
      <point x="296" y="630" type="line"/>
      <point x="219" y="242" type="line" smooth="yes"/>
      <point x="214" y="216"/>
      <point x="208" y="155"/>
      <point x="208" y="155" type="curve" smooth="yes"/>
      <point x="204" y="155" type="line" smooth="yes"/>
      <point x="204" y="155"/>
      <point x="198" y="215"/>
      <point x="192" y="242" type="curve" smooth="yes"/>
      <point x="116" y="630" type="line"/>
      <point x="0" y="630" type="line"/>
      <point x="137" y="0" type="line"/>
      <point x="256" y="0" type="line"/>
      <point x="340" y="401" type="line" smooth="yes"/>
      <point x="345" y="428"/>
      <point x="353" y="491"/>
      <point x="353" y="491" type="curve"/>
      <point x="357" y="491" type="line"/>
      <point x="357" y="491"/>
      <point x="362" y="434"/>
      <point x="369" y="401" type="curve" smooth="yes"/>
      <point x="456" y="0" type="line"/>
    </contour>
    <contour>
      <point x="356" y="630" type="move" name="top"/>
    </contour>
  </outline>
</glyph>
<glyph name="X" format="1">
  <advance width="503"/>
  <unicode hex="0058"/>
  <outline>
    <contour>
      <point x="486" y="630" type="line"/>
      <point x="363" y="630" type="line"/>
      <point x="258" y="424" type="line"/>
      <point x="254" y="424" type="line"/>
      <point x="148" y="630" type="line"/>
      <point x="17" y="630" type="line"/>
      <point x="178" y="331" type="line"/>
      <point x="0" y="0" type="line"/>
      <point x="123" y="0" type="line"/>
      <point x="244" y="238" type="line"/>
      <point x="249" y="238" type="line"/>
      <point x="371" y="0" type="line"/>
      <point x="502" y="0" type="line"/>
      <point x="322" y="333" type="line"/>
    </contour>
    <contour>
      <point x="252" y="630" type="move" name="top"/>
    </contour>
    <contour>
      <point x="252" y="0" type="move" name="bottom"/>
    </contour>
  </outline>
</glyph>
<glyph name="Y" format="1">
  <advance width="503"/>
  <unicode hex="0059"/>
  <outline>
    <contour>
      <point x="311" y="238" type="line"/>
      <point x="503" y="630" type="line"/>
      <point x="385" y="630" type="line"/>
      <point x="257" y="354" type="line"/>
      <point x="253" y="354" type="line"/>
      <point x="124" y="630" type="line"/>
      <point x="0" y="630" type="line"/>
      <point x="193" y="238" type="line"/>
      <point x="193" y="0" type="line"/>
      <point x="311" y="0" type="line"/>
    </contour>
    <contour>
      <point x="252" y="630" type="move" name="top"/>
    </contour>
  </outline>
</glyph>
<glyph name="Z" format="1">
  <advance width="461"/>
  <unicode hex="005A"/>
  <outline>
    <contour>
      <point x="435" y="630" type="line"/>
      <point x="34" y="630" type="line"/>
      <point x="34" y="526" type="line"/>
      <point x="274" y="526" type="line"/>
      <point x="15" y="45" type="line"/>
      <point x="15" y="0" type="line"/>
      <point x="441" y="0" type="line"/>
      <point x="441" y="105" type="line"/>
      <point x="176" y="105" type="line"/>
      <point x="435" y="584" type="line"/>
    </contour>
    <contour>
      <point x="231" y="630" type="move" name="top"/>
    </contour>
    <contour>
      <point x="231" y="0" type="move" name="bottom"/>
    </contour>
  </outline>
</glyph>
<glyph name="bracketleft" format="1">
  <advance width="251"/>
  <unicode hex="005B"/>
  <outline>
    <contour>
      <point x="228" y="589" type="line"/>
      <point x="228" y="676" type="line"/>
      <point x="45" y="676" type="line"/>
      <point x="45" y="-148" type="line"/>
      <point x="228" y="-148" type="line"/>
      <point x="228" y="-60" type="line"/>
      <point x="152" y="-60" type="line"/>
      <point x="152" y="589" type="line"/>
    </contour>
  </outline>
</glyph>
<glyph name="backslash" format="1">
  <advance width="210"/>
  <unicode hex="005C"/>
  <outline>
    <contour>
      <point x="210" y="-45" type="line"/>
      <point x="79" y="676" type="line"/>
      <point x="1" y="676" type="line"/>
      <point x="131" y="-45" type="line"/>
    </contour>
  </outline>
</glyph>
<glyph name="bracketright" format="1">
  <advance width="251"/>
  <unicode hex="005D"/>
  <outline>
    <contour>
      <point x="206" y="-148" type="line"/>
      <point x="206" y="676" type="line"/>
      <point x="23" y="676" type="line"/>
      <point x="23" y="589" type="line"/>
      <point x="99" y="589" type="line"/>
      <point x="99" y="-60" type="line"/>
      <point x="23" y="-60" type="line"/>
      <point x="23" y="-148" type="line"/>
    </contour>
  </outline>
</glyph>
<glyph name="underscore" format="1">
  <advance width="419"/>
  <unicode hex="005F"/>
  <outline>
    <contour>
      <point x="418" y="-122" type="line"/>
      <point x="418" y="-58" type="line"/>
      <point x="0" y="-58" type="line"/>
      <point x="0" y="-122" type="line"/>
    </contour>
  </outline>
</glyph>
<glyph name="grave" format="1">
  <advance width="251"/>
  <unicode hex="0060"/>
  <outline>
    <contour>
      <point x="210" y="543" type="line"/>
      <point x="131" y="665" type="line"/>
      <point x="20" y="665" type="line"/>
      <point x="20" y="661" type="line"/>
      <point x="119" y="543" type="line"/>
    </contour>
    <contour>
      <point x="114" y="484" type="move" name="_top"/>
    </contour>
  </outline>
</glyph>
<glyph name="b" format="1">
  <advance width="461"/>
  <unicode hex="0062"/>
  <outline>
    <contour>
      <point x="161" y="665" type="line"/>
      <point x="51" y="665" type="line"/>
      <point x="51" y="0" type="line"/>
      <point x="142" y="0" type="line"/>
      <point x="154" y="59" type="line"/>
      <point x="158" y="59" type="line"/>
      <point x="182" y="12"/>
      <point x="222" y="-11"/>
      <point x="267" y="-11" type="curve" smooth="yes"/>
      <point x="363" y="-11"/>
      <point x="423" y="68"/>
      <point x="423" y="242" type="curve" smooth="yes"/>
      <point x="423" y="418"/>
      <point x="359" y="495"/>
      <point x="274" y="495" type="curve" smooth="yes"/>
      <point x="225" y="495"/>
      <point x="183" y="472"/>
      <point x="165" y="434" type="curve"/>
      <point x="161" y="434" type="line"/>
    </contour>
    <contour>
      <point x="288" y="394"/>
      <point x="308" y="346"/>
      <point x="308" y="259" type="curve" smooth="yes"/>
      <point x="308" y="225" type="line" smooth="yes"/>
      <point x="308" y="137"/>
      <point x="288" y="89"/>
      <point x="234" y="89" type="curve" smooth="yes"/>
      <point x="181" y="89"/>
      <point x="161" y="137"/>
      <point x="161" y="225" type="curve" smooth="yes"/>
      <point x="161" y="258" type="line" smooth="yes"/>
      <point x="161" y="344"/>
      <point x="181" y="394"/>
      <point x="234" y="394" type="curve" smooth="yes"/>
    </contour>
  </outline>
</glyph>
<glyph name="f" format="1">
  <advance width="251"/>
  <unicode hex="0066"/>
  <outline>
    <contour>
      <point x="83" y="672"/>
      <point x="57" y="606"/>
      <point x="57" y="543" type="curve" smooth="yes"/>
      <point x="57" y="484" type="line"/>
      <point x="8" y="484" type="line"/>
      <point x="8" y="391" type="line"/>
      <point x="57" y="391" type="line"/>
      <point x="57" y="0" type="line"/>
      <point x="167" y="0" type="line"/>
      <point x="167" y="391" type="line"/>
      <point x="251" y="391" type="line"/>
      <point x="251" y="484" type="line"/>
      <point x="167" y="484" type="line"/>
      <point x="167" y="540" type="line" smooth="yes"/>
      <point x="167" y="566"/>
      <point x="181" y="579"/>
      <point x="206" y="579" type="curve" smooth="yes"/>
      <point x="251" y="579" type="line"/>
      <point x="251" y="661" type="line"/>
      <point x="233" y="667"/>
      <point x="197" y="672"/>
      <point x="171" y="672" type="curve" smooth="yes"/>
    </contour>
    <contour>
      <point x="170" y="630" type="move" name="top"/>
    </contour>
    <contour>
      <point x="112" y="0" type="move" name="bottom"/>
    </contour>
  </outline>
</glyph>
<glyph name="i" format="1">
  <advance width="210"/>
  <unicode hex="0069"/>
  <outline>
    <contour>
      <point x="160" y="0" type="line"/>
      <point x="160" y="484" type="line"/>
      <point x="50" y="484" type="line"/>
      <point x="50" y="0" type="line"/>
    </contour>
    <contour>
      <point x="160" y="565" type="line"/>
      <point x="160" y="665" type="line"/>
      <point x="50" y="665" type="line"/>
      <point x="50" y="565" type="line"/>
    </contour>
  </outline>
</glyph>
<glyph name="k" format="1">
  <advance width="419"/>
  <unicode hex="006B"/>
  <outline>
    <contour>
      <point x="160" y="291" type="line"/>
      <point x="160" y="665" type="line"/>
      <point x="50" y="665" type="line"/>
      <point x="50" y="0" type="line"/>
      <point x="160" y="0" type="line"/>
      <point x="160" y="151" type="line"/>
      <point x="201" y="201" type="line"/>
      <point x="297" y="0" type="line"/>
      <point x="420" y="0" type="line"/>
      <point x="269" y="287" type="line"/>
      <point x="413" y="484" type="line"/>
      <point x="295" y="484" type="line"/>
    </contour>
    <contour>
      <point x="210" y="0" type="move" name="bottom"/>
    </contour>
  </outline>
</glyph>
<glyph name="l" format="1">
  <advance width="210"/>
  <unicode hex="006C"/>
  <outline>
    <contour>
      <point x="160" y="0" type="line"/>
      <point x="160" y="665" type="line"/>
      <point x="50" y="665" type="line"/>
      <point x="50" y="0" type="line"/>
    </contour>
    <contour>
      <point x="105" y="630" type="move" name="top"/>
    </contour>
    <contour>
      <point x="105" y="0" type="move" name="bottom"/>
    </contour>
    <contour>
      <point x="191" y="484" type="move" name="topright"/>
    </contour>
  </outline>
</glyph>
<glyph name="r" format="1">
  <advance width="293"/>
  <unicode hex="0072"/>
  <outline>
    <contour>
      <point x="196" y="495"/>
      <point x="174" y="453"/>
      <point x="161" y="413" type="curve"/>
      <point x="155" y="413" type="line"/>
      <point x="142" y="484" type="line"/>
      <point x="51" y="484" type="line"/>
      <point x="51" y="0" type="line"/>
      <point x="161" y="0" type="line"/>
      <point x="161" y="269" type="line" smooth="yes"/>
      <point x="161" y="355"/>
      <point x="203" y="381"/>
      <point x="251" y="381" type="curve" smooth="yes"/>
      <point x="290" y="381" type="line"/>
      <point x="290" y="488" type="line"/>
      <point x="290" y="488"/>
      <point x="274" y="495"/>
      <point x="244" y="495" type="curve" smooth="yes"/>
    </contour>
    <contour>
      <point x="147" y="484" type="move" name="top"/>
    </contour>
    <contour>
      <point x="147" y="0" type="move" name="bottom"/>
    </contour>
  </outline>
</glyph>
<glyph name="t" format="1">
  <advance width="251"/>
  <unicode hex="0074"/>
  <outline>
    <contour>
      <point x="167" y="484" type="line"/>
      <point x="167" y="620" type="line"/>
      <point x="74" y="620" type="line"/>
      <point x="57" y="484" type="line"/>
      <point x="8" y="484" type="line"/>
      <point x="8" y="391" type="line"/>
      <point x="57" y="391" type="line"/>
      <point x="57" y="119" type="line" smooth="yes"/>
      <point x="57" y="54"/>
      <point x="83" y="-11"/>
      <point x="171" y="-11" type="curve" smooth="yes"/>
      <point x="192" y="-11"/>
      <point x="222" y="-5"/>
      <point x="237" y="0" type="curve"/>
      <point x="237" y="82" type="line"/>
      <point x="206" y="82" type="line" smooth="yes"/>
      <point x="181" y="82"/>
      <point x="167" y="96"/>
      <point x="167" y="122" type="curve" smooth="yes"/>
      <point x="167" y="391" type="line"/>
      <point x="237" y="391" type="line"/>
      <point x="237" y="484" type="line"/>
    </contour>
    <contour>
      <point x="152" y="0" type="move" name="bottom"/>
    </contour>
    <contour>
      <point x="118" y="590" type="move" name="top"/>
    </contour>
    <contour>
      <point x="231" y="484" type="move" name="topright"/>
    </contour>
    <contour>
      <point x="126" y="241" type="move" name="center"/>
    </contour>
  </outline>
</glyph>
<glyph name="v" format="1">
  <advance width="419"/>
  <unicode hex="0076"/>
  <outline>
    <contour>
      <point x="416" y="484" type="line"/>
      <point x="305" y="484" type="line"/>
      <point x="243" y="276" type="line" smooth="yes"/>
      <point x="230" y="228"/>
      <point x="226" y="179"/>
      <point x="216" y="131" type="curve"/>
      <point x="212" y="131" type="line"/>
      <point x="202" y="179"/>
      <point x="197" y="228"/>
      <point x="182" y="276" type="curve" smooth="yes"/>
      <point x="120" y="484" type="line"/>
      <point x="4" y="484" type="line"/>
      <point x="154" y="0" type="line"/>
      <point x="265" y="0" type="line"/>
    </contour>
    <contour>
      <point x="210" y="484" type="move" name="top"/>
    </contour>
    <contour>
      <point x="210" y="0" type="move" name="bottom"/>
    </contour>
  </outline>
</glyph>
<glyph name="x" format="1">
  <advance width="419"/>
  <unicode hex="0078"/>
  <outline>
    <contour>
      <point x="408" y="484" type="line"/>
      <point x="289" y="484" type="line"/>
      <point x="217" y="343" type="line"/>
      <point x="212" y="343" type="line"/>
      <point x="140" y="484" type="line"/>
      <point x="16" y="484" type="line"/>
      <point x="145" y="250" type="line"/>
      <point x="4" y="0" type="line"/>
      <point x="123" y="0" type="line"/>
      <point x="204" y="160" type="line"/>
      <point x="209" y="160" type="line"/>
      <point x="290" y="0" type="line"/>
      <point x="415" y="0" type="line"/>
      <point x="277" y="253" type="line"/>
    </contour>
    <contour>
      <point x="210" y="484" type="move" name="top"/>
    </contour>
    <contour>
      <point x="210" y="0" type="move" name="bottom"/>
    </contour>
  </outline>
</glyph>
<glyph name="y" format="1">
  <advance width="419"/>
  <unicode hex="0079"/>
  <outline>
    <contour>
      <point x="416" y="484" type="line"/>
      <point x="305" y="484" type="line"/>
      <point x="245" y="256" type="line"/>
      <point x="234" y="215"/>
      <point x="230" y="172"/>
      <point x="223" y="131" type="curve"/>
      <point x="218" y="131" type="line"/>
      <point x="210" y="173"/>
      <point x="206" y="215"/>
      <point x="193" y="257" type="curve"/>
      <point x="121" y="484" type="line"/>
      <point x="4" y="484" type="line"/>
      <point x="164" y="0" type="line"/>
      <point x="152" y="-53"/>
      <point x="122" y="-75"/>
      <point x="90" y="-75" type="curve" smooth="yes"/>
      <point x="41" y="-75" type="line"/>
      <point x="41" y="-159" type="line"/>
      <point x="41" y="-160"/>
      <point x="68" y="-167"/>
      <point x="112" y="-167" type="curve" smooth="yes"/>
      <point x="205" y="-167"/>
      <point x="253" y="-80"/>
      <point x="283" y="25" type="curve" smooth="yes"/>
    </contour>
    <contour>
      <point x="210" y="484" type="move" name="top"/>
    </contour>
    <contour>
      <point x="339" y="0" type="move" name="bottom"/>
    </contour>
  </outline>
</glyph>
<glyph name="z" format="1">
  <advance width="376"/>
  <unicode hex="007A"/>
  <outline>
    <contour>
      <point x="354" y="438" type="line"/>
      <point x="354" y="484" type="line"/>
      <point x="28" y="484" type="line"/>
      <point x="28" y="391" type="line"/>
      <point x="204" y="391" type="line"/>
      <point x="17" y="47" type="line"/>
      <point x="17" y="0" type="line"/>
      <point x="361" y="0" type="line"/>
      <point x="361" y="93" type="line"/>
      <point x="165" y="93" type="line"/>
    </contour>
    <contour>
      <point x="188" y="484" type="move" name="top"/>
    </contour>
    <contour>
      <point x="188" y="0" type="move" name="bottom"/>
    </contour>
  </outline>
</glyph>
<glyph name="braceright" format="1">
  <advance width="293"/>
  <unicode hex="007D"/>
  <outline>
    <contour>
      <point x="20" y="605" type="line"/>
      <point x="52" y="605"/>
      <point x="92" y="596"/>
      <point x="92" y="549" type="curve" smooth="yes"/>
      <point x="92" y="488"/>
      <point x="97" y="431"/>
      <point x="99" y="368" type="curve" smooth="yes"/>
      <point x="100" y="306"/>
      <point x="126" y="269"/>
      <point x="198" y="269" type="curve"/>
      <point x="198" y="260" type="line"/>
      <point x="126" y="260"/>
      <point x="101" y="224"/>
      <point x="99" y="161" type="curve" smooth="yes"/>
      <point x="97" y="99"/>
      <point x="92" y="42"/>
      <point x="92" y="-20" type="curve" smooth="yes"/>
      <point x="92" y="-67"/>
      <point x="52" y="-75"/>
      <point x="20" y="-75" type="curve"/>
      <point x="20" y="-147" type="line"/>
      <point x="114" y="-147"/>
      <point x="201" y="-126"/>
      <point x="201" y="-10" type="curve" smooth="yes"/>
      <point x="201" y="167" type="line" smooth="yes"/>
      <point x="201" y="209"/>
      <point x="238" y="223"/>
      <point x="271" y="223" type="curve"/>
      <point x="271" y="307" type="line"/>
      <point x="238" y="307"/>
      <point x="201" y="321"/>
      <point x="201" y="362" type="curve" smooth="yes"/>
      <point x="201" y="540" type="line" smooth="yes"/>
      <point x="201" y="655"/>
      <point x="114" y="676"/>
      <point x="20" y="676" type="curve"/>
    </contour>
  </outline>
</glyph>
<glyph name="asciitilde" format="1">
  <advance width="440"/>
  <unicode hex="007E"/>
  <outline>
    <contour>
      <point x="416" y="369" type="line"/>
      <point x="416" y="369"/>
      <point x="368" y="303"/>
      <point x="303" y="303" type="curve" smooth="yes"/>
      <point x="241" y="303"/>
      <point x="197" y="359"/>
      <point x="138" y="359" type="curve" smooth="yes"/>
      <point x="62" y="359"/>
      <point x="25" y="291"/>
      <point x="25" y="291" type="curve"/>
      <point x="25" y="181" type="line"/>
      <point x="25" y="181"/>
      <point x="72" y="249"/>
      <point x="138" y="249" type="curve" smooth="yes"/>
      <point x="199" y="249"/>
      <point x="243" y="192"/>
      <point x="303" y="192" type="curve" smooth="yes"/>
      <point x="378" y="192"/>
      <point x="416" y="259"/>
      <point x="416" y="259" type="curve"/>
    </contour>
  </outline>
</glyph>
<glyph name="exclamdown" format="1">
  <advance width="251"/>
  <unicode hex="00A1"/>
  <outline>
    <contour>
      <point x="87" y="303" type="line"/>
      <point x="76" y="153"/>
      <point x="67" y="3"/>
      <point x="55" y="-147" type="curve"/>
      <point x="196" y="-147" type="line"/>
      <point x="185" y="3"/>
      <point x="174" y="153"/>
      <point x="162" y="303" type="curve"/>
    </contour>
    <contour>
      <point x="189" y="484" type="line"/>
      <point x="62" y="484" type="line"/>
      <point x="62" y="358" type="line"/>
      <point x="189" y="358" type="line"/>
    </contour>
  </outline>
</glyph>
<glyph name="sterling" format="1">
  <advance width="419"/>
  <unicode hex="00A3"/>
  <outline>
    <contour>
      <point x="128" y="642"/>
      <point x="66" y="581"/>
      <point x="66" y="459" type="curve" smooth="yes"/>
      <point x="66" y="358" type="line"/>
      <point x="8" y="358" type="line"/>
      <point x="8" y="265" type="line"/>
      <point x="66" y="265" type="line"/>
      <point x="66" y="99" type="line"/>
      <point x="19" y="99" type="line"/>
      <point x="19" y="0" type="line"/>
      <point x="392" y="0" type="line"/>
      <point x="392" y="99" type="line"/>
      <point x="165" y="99" type="line"/>
      <point x="176" y="265" type="line"/>
      <point x="287" y="265" type="line"/>
      <point x="287" y="358" type="line"/>
      <point x="177" y="358" type="line"/>
      <point x="177" y="483" type="line" smooth="yes"/>
      <point x="177" y="527"/>
      <point x="198" y="549"/>
      <point x="232" y="549" type="curve" smooth="yes"/>
      <point x="266" y="549"/>
      <point x="289" y="524"/>
      <point x="289" y="475" type="curve" smooth="yes"/>
      <point x="289" y="451" type="line"/>
      <point x="398" y="451" type="line"/>
      <point x="398" y="464" type="line" smooth="yes"/>
      <point x="398" y="582"/>
      <point x="333" y="642"/>
      <point x="232" y="642" type="curve" smooth="yes"/>
    </contour>
  </outline>
</glyph>
<glyph name="currency" format="1">
  <advance width="419"/>
  <unicode hex="00A4"/>
  <outline>
    <contour>
      <point x="165" y="530"/>
      <point x="126" y="513"/>
      <point x="94" y="486" type="curve"/>
      <point x="55" y="524" type="line"/>
      <point x="0" y="467" type="line"/>
      <point x="45" y="421" type="line"/>
      <point x="28" y="389"/>
      <point x="20" y="353"/>
      <point x="20" y="314" type="curve" smooth="yes"/>
      <point x="20" y="275"/>
      <point x="29" y="237"/>
      <point x="46" y="206" type="curve"/>
      <point x="0" y="160" type="line"/>
      <point x="56" y="104" type="line"/>
      <point x="95" y="142" type="line"/>
      <point x="127" y="115"/>
      <point x="166" y="99"/>
      <point x="210" y="99" type="curve" smooth="yes"/>
      <point x="252" y="99"/>
      <point x="291" y="115"/>
      <point x="323" y="142" type="curve"/>
      <point x="362" y="104" type="line"/>
      <point x="418" y="160" type="line"/>
      <point x="372" y="205" type="line"/>
      <point x="389" y="237"/>
      <point x="399" y="274"/>
      <point x="399" y="314" type="curve" smooth="yes"/>
      <point x="399" y="354"/>
      <point x="390" y="390"/>
      <point x="373" y="422" type="curve"/>
      <point x="418" y="467" type="line"/>
      <point x="363" y="524" type="line"/>
      <point x="324" y="486" type="line"/>
      <point x="292" y="513"/>
      <point x="252" y="530"/>
      <point x="210" y="530" type="curve" smooth="yes"/>
    </contour>
    <contour>
      <point x="270" y="448"/>
      <point x="321" y="389"/>
      <point x="321" y="314" type="curve" smooth="yes"/>
      <point x="321" y="241"/>
      <point x="270" y="182"/>
      <point x="210" y="182" type="curve" smooth="yes"/>
      <point x="148" y="182"/>
      <point x="98" y="241"/>
      <point x="98" y="314" type="curve" smooth="yes"/>
      <point x="98" y="389"/>
      <point x="148" y="448"/>
      <point x="210" y="448" type="curve" smooth="yes"/>
    </contour>
  </outline>
</glyph>
<glyph name="section" format="1">
  <advance width="419"/>
  <unicode hex="00A7"/>
  <outline>
    <contour>
      <point x="122" y="642"/>
      <point x="47" y="593"/>
      <point x="47" y="495" type="curve" smooth="yes"/>
      <point x="47" y="440"/>
      <point x="67" y="405"/>
      <point x="94" y="378" type="curve"/>
      <point x="55" y="344"/>
      <point x="34" y="295"/>
      <point x="34" y="246" type="curve" smooth="yes"/>
      <point x="34" y="61"/>
      <point x="271" y="94"/>
      <point x="271" y="-29" type="curve" smooth="yes"/>
      <point x="271" y="-59"/>
      <point x="249" y="-77"/>
      <point x="214" y="-77" type="curve" smooth="yes"/>
      <point x="181" y="-77"/>
      <point x="161" y="-59"/>
      <point x="160" y="-17" type="curve" smooth="yes"/>
      <point x="160" y="-15" type="line"/>
      <point x="48" y="-15" type="line"/>
      <point x="48" y="-16"/>
      <point x="47" y="-26"/>
      <point x="47" y="-35" type="curve" smooth="yes"/>
      <point x="47" y="-119"/>
      <point x="119" y="-167"/>
      <point x="210" y="-167" type="curve" smooth="yes"/>
      <point x="309" y="-167"/>
      <point x="384" y="-119"/>
      <point x="384" y="-20" type="curve" smooth="yes"/>
      <point x="384" y="33"/>
      <point x="364" y="69"/>
      <point x="337" y="97" type="curve"/>
      <point x="375" y="130"/>
      <point x="396" y="178"/>
      <point x="396" y="228" type="curve" smooth="yes"/>
      <point x="396" y="413"/>
      <point x="159" y="381"/>
      <point x="159" y="503" type="curve" smooth="yes"/>
      <point x="159" y="534"/>
      <point x="182" y="551"/>
      <point x="216" y="551" type="curve" smooth="yes"/>
      <point x="249" y="551"/>
      <point x="269" y="534"/>
      <point x="270" y="491" type="curve" smooth="yes"/>
      <point x="270" y="489" type="line"/>
      <point x="383" y="489" type="line"/>
      <point x="383" y="490"/>
      <point x="384" y="500"/>
      <point x="384" y="511" type="curve" smooth="yes"/>
      <point x="384" y="593"/>
      <point x="312" y="642"/>
      <point x="219" y="642" type="curve" smooth="yes"/>
    </contour>
    <contour>
      <point x="224" y="295"/>
      <point x="288" y="269"/>
      <point x="288" y="196" type="curve" smooth="yes"/>
      <point x="288" y="177"/>
      <point x="280" y="158"/>
      <point x="267" y="144" type="curve"/>
      <point x="206" y="178"/>
      <point x="142" y="205"/>
      <point x="142" y="279" type="curve" smooth="yes"/>
      <point x="142" y="297"/>
      <point x="151" y="315"/>
      <point x="162" y="330" type="curve"/>
    </contour>
  </outline>
</glyph>
<glyph name="dieresis" format="1">
  <advance width="251"/>
  <unicode hex="00A8"/>
  <outline>
    <contour>
      <point x="252" y="565" type="line"/>
      <point x="252" y="665" type="line"/>
      <point x="160" y="665" type="line"/>
      <point x="160" y="565" type="line"/>
    </contour>
    <contour>
      <point x="92" y="565" type="line"/>
      <point x="92" y="665" type="line"/>
      <point x="-1" y="665" type="line"/>
      <point x="-1" y="565" type="line"/>
    </contour>
    <contour>
      <point x="126" y="484" type="move" name="_top"/>
    </contour>
  </outline>
</glyph>
<glyph name="copyright" format="1">
  <advance width="555"/>
  <unicode hex="00A9"/>
  <outline>
    <contour>
      <point x="114" y="642"/>
      <point x="15" y="514"/>
      <point x="15" y="315" type="curve" smooth="yes"/>
      <point x="15" y="116"/>
      <point x="114" y="-11"/>
      <point x="278" y="-11" type="curve" smooth="yes"/>
      <point x="441" y="-11"/>
      <point x="541" y="116"/>
      <point x="541" y="315" type="curve" smooth="yes"/>
      <point x="541" y="514"/>
      <point x="441" y="642"/>
      <point x="278" y="642" type="curve" smooth="yes"/>
    </contour>
    <contour>
      <point x="186" y="509"/>
      <point x="131" y="447"/>
      <point x="131" y="315" type="curve" smooth="yes"/>
      <point x="131" y="184"/>
      <point x="186" y="123"/>
      <point x="280" y="123" type="curve" smooth="yes"/>
      <point x="359" y="123"/>
      <point x="416" y="171"/>
      <point x="416" y="267" type="curve"/>
      <point x="339" y="267" type="line"/>
      <point x="339" y="216"/>
      <point x="316" y="192"/>
      <point x="282" y="192" type="curve" smooth="yes"/>
      <point x="235" y="192"/>
      <point x="212" y="234"/>
      <point x="212" y="303" type="curve" smooth="yes"/>
      <point x="212" y="329" type="line" smooth="yes"/>
      <point x="212" y="398"/>
      <point x="234" y="440"/>
      <point x="280" y="440" type="curve" smooth="yes"/>
      <point x="313" y="440"/>
      <point x="337" y="415"/>
      <point x="337" y="363" type="curve"/>
      <point x="416" y="363" type="line"/>
      <point x="416" y="464"/>
      <point x="358" y="509"/>
      <point x="280" y="509" type="curve" smooth="yes"/>
    </contour>
    <contour>
      <point x="409" y="591"/>
      <point x="489" y="484"/>
      <point x="489" y="315" type="curve" smooth="yes"/>
      <point x="489" y="147"/>
      <point x="409" y="40"/>
      <point x="278" y="40" type="curve" smooth="yes"/>
      <point x="147" y="40"/>
      <point x="67" y="147"/>
      <point x="67" y="315" type="curve" smooth="yes"/>
      <point x="67" y="484"/>
      <point x="147" y="591"/>
      <point x="278" y="591" type="curve" smooth="yes"/>
    </contour>
  </outline>
</glyph>
<glyph name="ordfeminine" format="1">
  <advance width="279"/>
  <unicode hex="00AA"/>
  <outline>
    <contour>
      <point x="72" y="675"/>
      <point x="28" y="639"/>
      <point x="28" y="583" type="curve" smooth="yes"/>
      <point x="28" y="578"/>
      <point x="28" y="574"/>
      <point x="29" y="571" type="curve"/>
      <point x="106" y="571" type="line"/>
      <point x="106" y="580" type="line" smooth="yes"/>
      <point x="106" y="594"/>
      <point x="113" y="610"/>
      <point x="140" y="610" type="curve" smooth="yes"/>
      <point x="166" y="610"/>
      <point x="171" y="594"/>
      <point x="171" y="574" type="curve" smooth="yes"/>
      <point x="171" y="540" type="line"/>
      <point x="78" y="540"/>
      <point x="12" y="513"/>
      <point x="12" y="425" type="curve" smooth="yes"/>
      <point x="12" y="349"/>
      <point x="64" y="334"/>
      <point x="95" y="334" type="curve" smooth="yes"/>
      <point x="138" y="334"/>
      <point x="159" y="350"/>
      <point x="178" y="376" type="curve"/>
      <point x="181" y="376" type="line"/>
      <point x="188" y="352"/>
      <point x="209" y="334"/>
      <point x="238" y="334" type="curve" smooth="yes"/>
      <point x="260" y="334"/>
      <point x="274" y="339"/>
      <point x="282" y="343" type="curve"/>
      <point x="282" y="400" type="line"/>
      <point x="267" y="400" type="line" smooth="yes"/>
      <point x="258" y="400"/>
      <point x="250" y="407"/>
      <point x="250" y="422" type="curve" smooth="yes"/>
      <point x="250" y="578" type="line" smooth="yes"/>
      <point x="250" y="640"/>
      <point x="214" y="675"/>
      <point x="138" y="675" type="curve" smooth="yes"/>
    </contour>
    <contour>
      <point x="171" y="467" type="line"/>
      <point x="171" y="431"/>
      <point x="158" y="399"/>
      <point x="126" y="399" type="curve" smooth="yes"/>
      <point x="103" y="399"/>
      <point x="93" y="412"/>
      <point x="93" y="432" type="curve" smooth="yes"/>
      <point x="93" y="474"/>
      <point x="131" y="486"/>
      <point x="171" y="486" type="curve"/>
    </contour>
  </outline>
</glyph>
<glyph name="guillemetleft" format="1">
  <advance width="419"/>
  <unicode hex="00AB"/>
  <outline>
    <contour>
      <point x="295" y="300" type="line"/>
      <point x="394" y="484" type="line"/>
      <point x="311" y="484" type="line"/>
      <point x="186" y="300" type="line"/>
      <point x="311" y="115" type="line"/>
      <point x="394" y="115" type="line"/>
    </contour>
    <contour>
      <point x="127" y="300" type="line"/>
      <point x="226" y="484" type="line"/>
      <point x="142" y="484" type="line"/>
      <point x="18" y="300" type="line"/>
      <point x="142" y="115" type="line"/>
      <point x="226" y="115" type="line"/>
    </contour>
  </outline>
</glyph>
<glyph name="logicalnot" format="1">
  <advance width="440"/>
  <unicode hex="00AC"/>
  <outline>
    <contour>
      <point x="409" y="172" type="line"/>
      <point x="409" y="425" type="line"/>
      <point x="27" y="425" type="line"/>
      <point x="27" y="321" type="line"/>
      <point x="313" y="321" type="line"/>
      <point x="313" y="172" type="line"/>
    </contour>
  </outline>
</glyph>
<glyph name="macron" format="1">
  <advance width="251"/>
  <unicode hex="00AF"/>
  <outline>
    <contour>
      <point x="242" y="551" type="line"/>
      <point x="242" y="630" type="line"/>
      <point x="8" y="630" type="line"/>
      <point x="8" y="551" type="line"/>
    </contour>
    <contour>
      <point x="126" y="484" type="move" name="_top"/>
    </contour>
  </outline>
</glyph>
<glyph name="plusminus" format="1">
  <advance width="504"/>
  <unicode hex="00B1"/>
  <outline>
    <contour>
      <point x="298" y="387" type="line"/>
      <point x="298" y="547" type="line"/>
      <point x="204" y="547" type="line"/>
      <point x="204" y="387" type="line"/>
      <point x="62" y="387" type="line"/>
      <point x="62" y="291" type="line"/>
      <point x="204" y="291" type="line"/>
      <point x="204" y="132" type="line"/>
      <point x="298" y="132" type="line"/>
      <point x="298" y="291" type="line"/>
      <point x="441" y="291" type="line"/>
      <point x="441" y="387" type="line"/>
    </contour>
    <contour>
      <point x="441" y="0" type="line"/>
      <point x="441" y="95" type="line"/>
      <point x="62" y="95" type="line"/>
      <point x="62" y="0" type="line"/>
    </contour>
  </outline>
</glyph>
<glyph name="twosuperior" format="1">
  <advance width="251"/>
  <unicode hex="00B2"/>
  <outline>
    <contour>
      <point x="69" y="675"/>
      <point x="18" y="642"/>
      <point x="18" y="558" type="curve" smooth="yes"/>
      <point x="18" y="546"/>
      <point x="20" y="535"/>
      <point x="20" y="535" type="curve"/>
      <point x="93" y="535" type="line"/>
      <point x="93" y="560" type="line" smooth="yes"/>
      <point x="93" y="588"/>
      <point x="103" y="610"/>
      <point x="125" y="610" type="curve" smooth="yes"/>
      <point x="148" y="610"/>
      <point x="155" y="592"/>
      <point x="155" y="576" type="curve" smooth="yes"/>
      <point x="155" y="529"/>
      <point x="123" y="493"/>
      <point x="83" y="449" type="curve" smooth="yes"/>
      <point x="50" y="410"/>
      <point x="14" y="369"/>
      <point x="14" y="311" type="curve" smooth="yes"/>
      <point x="14" y="294" type="line"/>
      <point x="233" y="294" type="line"/>
      <point x="233" y="362" type="line"/>
      <point x="106" y="362" type="line"/>
      <point x="114" y="375"/>
      <point x="124" y="387"/>
      <point x="133" y="400" type="curve" smooth="yes"/>
      <point x="178" y="453"/>
      <point x="231" y="503"/>
      <point x="231" y="575" type="curve" smooth="yes"/>
      <point x="231" y="646"/>
      <point x="185" y="675"/>
      <point x="128" y="675" type="curve" smooth="yes"/>
    </contour>
  </outline>
</glyph>
<glyph name="acute" format="1">
  <advance width="251"/>
  <unicode hex="00B4"/>
  <outline>
    <contour>
      <point x="234" y="661" type="line"/>
      <point x="234" y="665" type="line"/>
      <point x="123" y="665" type="line"/>
      <point x="44" y="543" type="line"/>
      <point x="135" y="543" type="line"/>
    </contour>
    <contour>
      <point x="139" y="484" type="move" name="_top"/>
    </contour>
  </outline>
</glyph>
<glyph name="paragraph" format="1">
  <advance width="419"/>
  <unicode hex="00B6"/>
  <outline>
    <contour>
      <point x="413" y="561" type="line"/>
      <point x="413" y="630" type="line"/>
      <point x="193" y="630" type="line" smooth="yes"/>
      <point x="95" y="630"/>
      <point x="17" y="541"/>
      <point x="17" y="430" type="curve" smooth="yes"/>
      <point x="17" y="326"/>
      <point x="83" y="241"/>
      <point x="172" y="230" type="curve"/>
      <point x="172" y="-159" type="line"/>
      <point x="245" y="-159" type="line"/>
      <point x="245" y="561" type="line"/>
      <point x="294" y="561" type="line"/>
      <point x="294" y="-159" type="line"/>
      <point x="368" y="-159" type="line"/>
      <point x="368" y="561" type="line"/>
    </contour>
  </outline>
</glyph>
<glyph name="guillemetright" format="1">
  <advance width="419"/>
  <unicode hex="00BB"/>
  <outline>
    <contour>
      <point x="401" y="300" type="line"/>
      <point x="277" y="484" type="line"/>
      <point x="193" y="484" type="line"/>
      <point x="292" y="300" type="line"/>
      <point x="193" y="115" type="line"/>
      <point x="277" y="115" type="line"/>
    </contour>
    <contour>
      <point x="234" y="300" type="line"/>
      <point x="108" y="484" type="line"/>
      <point x="25" y="484" type="line"/>
      <point x="124" y="300" type="line"/>
      <point x="25" y="115" type="line"/>
      <point x="108" y="115" type="line"/>
    </contour>
  </outline>
</glyph>
<glyph name="threequarters" format="1">
  <advance width="629"/>
  <unicode hex="00BE"/>
  <outline>
    <contour>
      <point x="178" y="-11" type="line"/>
      <point x="541" y="642" type="line"/>
      <point x="479" y="642" type="line"/>
      <point x="115" y="-11" type="line"/>
    </contour>
    <contour>
      <point x="76" y="642"/>
      <point x="33" y="600"/>
      <point x="33" y="537" type="curve" smooth="yes"/>
      <point x="33" y="518" type="line"/>
      <point x="108" y="518" type="line"/>
      <point x="108" y="532" type="line" smooth="yes"/>
      <point x="108" y="564"/>
      <point x="120" y="578"/>
      <point x="138" y="578" type="curve" smooth="yes"/>
      <point x="156" y="578"/>
      <point x="167" y="566"/>
      <point x="167" y="535" type="curve" smooth="yes"/>
      <point x="167" y="499"/>
      <point x="153" y="482"/>
      <point x="136" y="482" type="curve" smooth="yes"/>
      <point x="112" y="482" type="line"/>
      <point x="112" y="420" type="line"/>
      <point x="135" y="420" type="line" smooth="yes"/>
      <point x="155" y="420"/>
      <point x="174" y="409"/>
      <point x="174" y="367" type="curve" smooth="yes"/>
      <point x="174" y="332"/>
      <point x="159" y="317"/>
      <point x="138" y="317" type="curve" smooth="yes"/>
      <point x="114" y="317"/>
      <point x="102" y="335"/>
      <point x="102" y="367" type="curve" smooth="yes"/>
      <point x="102" y="383" type="line"/>
      <point x="27" y="383" type="line"/>
      <point x="27" y="368" type="line" smooth="yes"/>
      <point x="27" y="298"/>
      <point x="68" y="254"/>
      <point x="139" y="254" type="curve" smooth="yes"/>
      <point x="204" y="254"/>
      <point x="250" y="295"/>
      <point x="250" y="363" type="curve" smooth="yes"/>
      <point x="250" y="409"/>
      <point x="226" y="440"/>
      <point x="197" y="454" type="curve"/>
      <point x="225" y="472"/>
      <point x="243" y="495"/>
      <point x="243" y="537" type="curve" smooth="yes"/>
      <point x="243" y="605"/>
      <point x="201" y="642"/>
      <point x="138" y="642" type="curve" smooth="yes"/>
    </contour>
    <contour>
      <point x="456" y="381" type="line"/>
      <point x="433" y="297"/>
      <point x="400" y="205"/>
      <point x="362" y="138" type="curve"/>
      <point x="362" y="82" type="line"/>
      <point x="494" y="82" type="line"/>
      <point x="494" y="0" type="line"/>
      <point x="567" y="0" type="line"/>
      <point x="567" y="82" type="line"/>
      <point x="605" y="82" type="line"/>
      <point x="605" y="146" type="line"/>
      <point x="567" y="146" type="line"/>
      <point x="567" y="300" type="line"/>
      <point x="542" y="300" type="line"/>
      <point x="534" y="269"/>
      <point x="509" y="207"/>
      <point x="494" y="179" type="curve"/>
      <point x="494" y="146" type="line"/>
      <point x="432" y="146" type="line"/>
      <point x="456" y="181"/>
      <point x="509" y="287"/>
      <point x="528" y="381" type="curve"/>
    </contour>
  </outline>
</glyph>
<glyph name="questiondown" format="1">
  <advance width="461"/>
  <unicode hex="00BF"/>
  <outline>
    <contour>
      <point x="275" y="303" type="line"/>
      <point x="159" y="303" type="line"/>
      <point x="159" y="277" type="line" smooth="yes"/>
      <point x="159" y="170"/>
      <point x="44" y="168"/>
      <point x="44" y="5" type="curve" smooth="yes"/>
      <point x="44" y="-92"/>
      <point x="112" y="-158"/>
      <point x="222" y="-158" type="curve" smooth="yes"/>
      <point x="353" y="-158"/>
      <point x="417" y="-74"/>
      <point x="417" y="29" type="curve" smooth="yes"/>
      <point x="417" y="41"/>
      <point x="415" y="61"/>
      <point x="415" y="61" type="curve" smooth="yes"/>
      <point x="298" y="61" type="line" smooth="yes"/>
      <point x="298" y="61"/>
      <point x="300" y="52"/>
      <point x="300" y="36" type="curve" smooth="yes"/>
      <point x="300" y="3"/>
      <point x="290" y="-59"/>
      <point x="229" y="-59" type="curve" smooth="yes"/>
      <point x="172" y="-59"/>
      <point x="164" y="-3"/>
      <point x="164" y="16" type="curve" smooth="yes"/>
      <point x="164" y="134"/>
      <point x="275" y="153"/>
      <point x="275" y="263" type="curve" smooth="yes"/>
    </contour>
    <contour>
      <point x="280" y="358" type="line"/>
      <point x="280" y="484" type="line"/>
      <point x="153" y="484" type="line"/>
      <point x="153" y="358" type="line"/>
    </contour>
  </outline>
</glyph>
<glyph name="Acircumflex" format="1">
  <advance width="544"/>
  <unicode hex="00C2"/>
  <outline>
    <contour>
      <point x="340" y="630" type="line"/>
      <point x="203" y="630" type="line"/>
      <point x="0" y="0" type="line"/>
      <point x="114" y="0" type="line"/>
      <point x="152" y="124" type="line"/>
      <point x="385" y="124" type="line"/>
      <point x="423" y="0" type="line"/>
      <point x="543" y="0" type="line"/>
    </contour>
    <contour>
      <point x="270" y="525" type="line"/>
      <point x="270" y="525"/>
      <point x="279" y="472"/>
      <point x="289" y="440" type="curve" smooth="yes"/>
      <point x="353" y="229" type="line"/>
      <point x="184" y="229" type="line"/>
      <point x="249" y="440" type="line" smooth="yes"/>
      <point x="258" y="469"/>
      <point x="266" y="525"/>
      <point x="266" y="525" type="curve"/>
    </contour>
    <contour>
      <point x="318" y="812" type="line"/>
      <point x="228" y="812" type="line"/>
      <point x="149" y="687" type="line"/>
      <point x="231" y="687" type="line"/>
      <point x="272" y="751" type="line"/>
      <point x="313" y="687" type="line"/>
      <point x="396" y="687" type="line"/>
    </contour>
  </outline>
</glyph>
<glyph name="Atilde" format="1">
  <advance width="544"/>
  <unicode hex="00C3"/>
  <outline>
    <contour>
      <point x="340" y="630" type="line"/>
      <point x="203" y="630" type="line"/>
      <point x="0" y="0" type="line"/>
      <point x="114" y="0" type="line"/>
      <point x="152" y="124" type="line"/>
      <point x="385" y="124" type="line"/>
      <point x="423" y="0" type="line"/>
      <point x="543" y="0" type="line"/>
    </contour>
    <contour>
      <point x="270" y="525" type="line"/>
      <point x="270" y="525"/>
      <point x="279" y="472"/>
      <point x="289" y="440" type="curve" smooth="yes"/>
      <point x="353" y="229" type="line"/>
      <point x="184" y="229" type="line"/>
      <point x="249" y="440" type="line" smooth="yes"/>
      <point x="258" y="469"/>
      <point x="266" y="525"/>
      <point x="266" y="525" type="curve"/>
    </contour>
    <contour>
      <point x="366" y="812" type="line"/>
      <point x="362" y="786"/>
      <point x="349" y="778"/>
      <point x="330" y="778" type="curve" smooth="yes"/>
      <point x="289" y="778"/>
      <point x="253" y="812"/>
      <point x="208" y="812" type="curve" smooth="yes"/>
      <point x="144" y="812"/>
      <point x="118" y="750"/>
      <point x="118" y="700" type="curve"/>
      <point x="178" y="700" type="line"/>
      <point x="182" y="725"/>
      <point x="194" y="733"/>
      <point x="214" y="733" type="curve" smooth="yes"/>
      <point x="256" y="733"/>
      <point x="291" y="700"/>
      <point x="336" y="700" type="curve" smooth="yes"/>
      <point x="400" y="700"/>
      <point x="426" y="761"/>
      <point x="426" y="812" type="curve"/>
    </contour>
  </outline>
</glyph>
<glyph name="Adieresis" format="1">
  <advance width="544"/>
  <unicode hex="00C4"/>
  <outline>
    <contour>
      <point x="340" y="630" type="line"/>
      <point x="203" y="630" type="line"/>
      <point x="0" y="0" type="line"/>
      <point x="114" y="0" type="line"/>
      <point x="152" y="124" type="line"/>
      <point x="385" y="124" type="line"/>
      <point x="423" y="0" type="line"/>
      <point x="543" y="0" type="line"/>
    </contour>
    <contour>
      <point x="270" y="525" type="line"/>
      <point x="270" y="525"/>
      <point x="279" y="472"/>
      <point x="289" y="440" type="curve" smooth="yes"/>
      <point x="353" y="229" type="line"/>
      <point x="184" y="229" type="line"/>
      <point x="249" y="440" type="line" smooth="yes"/>
      <point x="258" y="469"/>
      <point x="266" y="525"/>
      <point x="266" y="525" type="curve"/>
    </contour>
    <contour>
      <point x="238" y="812" type="line"/>
      <point x="147" y="812" type="line"/>
      <point x="147" y="711" type="line"/>
      <point x="238" y="711" type="line"/>
    </contour>
    <contour>
      <point x="399" y="812" type="line"/>
      <point x="306" y="812" type="line"/>
      <point x="306" y="711" type="line"/>
      <point x="399" y="711" type="line"/>
    </contour>
  </outline>
</glyph>
<glyph name="Aring" format="1">
  <advance width="544"/>
  <unicode hex="00C5"/>
  <outline>
    <contour>
      <point x="340" y="630" type="line"/>
      <point x="203" y="630" type="line"/>
      <point x="0" y="0" type="line"/>
      <point x="114" y="0" type="line"/>
      <point x="152" y="124" type="line"/>
      <point x="385" y="124" type="line"/>
      <point x="423" y="0" type="line"/>
      <point x="543" y="0" type="line"/>
    </contour>
    <contour>
      <point x="270" y="525" type="line"/>
      <point x="270" y="525"/>
      <point x="279" y="472"/>
      <point x="289" y="440" type="curve" smooth="yes"/>
      <point x="353" y="229" type="line"/>
      <point x="184" y="229" type="line"/>
      <point x="249" y="440" type="line" smooth="yes"/>
      <point x="258" y="469"/>
      <point x="266" y="525"/>
      <point x="266" y="525" type="curve"/>
    </contour>
    <contour>
      <point x="224" y="839"/>
      <point x="184" y="800"/>
      <point x="184" y="751" type="curve" smooth="yes"/>
      <point x="184" y="701"/>
      <point x="225" y="662"/>
      <point x="272" y="662" type="curve" smooth="yes"/>
      <point x="321" y="662"/>
      <point x="361" y="702"/>
      <point x="361" y="751" type="curve" smooth="yes"/>
      <point x="361" y="799"/>
      <point x="321" y="839"/>
      <point x="272" y="839" type="curve" smooth="yes"/>
    </contour>
    <contour>
      <point x="295" y="794"/>
      <point x="314" y="775"/>
      <point x="314" y="751" type="curve" smooth="yes"/>
      <point x="314" y="727"/>
      <point x="295" y="709"/>
      <point x="272" y="709" type="curve" smooth="yes"/>
      <point x="249" y="709"/>
      <point x="230" y="727"/>
      <point x="230" y="751" type="curve" smooth="yes"/>
      <point x="230" y="775"/>
      <point x="249" y="794"/>
      <point x="272" y="794" type="curve" smooth="yes"/>
    </contour>
  </outline>
</glyph>
<glyph name="Egrave" format="1">
  <advance width="503"/>
  <unicode hex="00C8"/>
  <outline>
    <contour>
      <point x="457" y="630" type="line"/>
      <point x="55" y="630" type="line"/>
      <point x="55" y="0" type="line"/>
      <point x="463" y="0" type="line"/>
      <point x="463" y="105" type="line"/>
      <point x="173" y="105" type="line"/>
      <point x="173" y="270" type="line"/>
      <point x="416" y="270" type="line"/>
      <point x="416" y="375" type="line"/>
      <point x="173" y="375" type="line"/>
      <point x="173" y="526" type="line"/>
      <point x="457" y="526" type="line"/>
    </contour>
    <contour>
      <point x="235" y="812" type="line"/>
      <point x="125" y="812" type="line"/>
      <point x="124" y="809" type="line"/>
      <point x="224" y="691" type="line"/>
      <point x="314" y="691" type="line"/>
    </contour>
  </outline>
</glyph>
<glyph name="Eacute" format="1">
  <advance width="503"/>
  <unicode hex="00C9"/>
  <outline>
    <contour>
      <point x="457" y="630" type="line"/>
      <point x="55" y="630" type="line"/>
      <point x="55" y="0" type="line"/>
      <point x="463" y="0" type="line"/>
      <point x="463" y="105" type="line"/>
      <point x="173" y="105" type="line"/>
      <point x="173" y="270" type="line"/>
      <point x="416" y="270" type="line"/>
      <point x="416" y="375" type="line"/>
      <point x="173" y="375" type="line"/>
      <point x="173" y="526" type="line"/>
      <point x="457" y="526" type="line"/>
    </contour>
    <contour>
      <point x="378" y="812" type="line"/>
      <point x="267" y="812" type="line"/>
      <point x="188" y="691" type="line"/>
      <point x="280" y="691" type="line"/>
      <point x="379" y="809" type="line"/>
    </contour>
  </outline>
</glyph>
<glyph name="Ecircumflex" format="1">
  <advance width="503"/>
  <unicode hex="00CA"/>
  <outline>
    <contour>
      <point x="375" y="687" type="line"/>
      <point x="297" y="812" type="line"/>
      <point x="207" y="812" type="line"/>
      <point x="128" y="687" type="line"/>
      <point x="210" y="687" type="line"/>
      <point x="252" y="751" type="line"/>
      <point x="292" y="687" type="line"/>
    </contour>
    <contour>
      <point x="55" y="0" type="line"/>
      <point x="463" y="0" type="line"/>
      <point x="463" y="105" type="line"/>
      <point x="173" y="105" type="line"/>
      <point x="173" y="270" type="line"/>
      <point x="416" y="270" type="line"/>
      <point x="416" y="375" type="line"/>
      <point x="173" y="375" type="line"/>
      <point x="173" y="526" type="line"/>
      <point x="457" y="526" type="line"/>
      <point x="457" y="630" type="line"/>
      <point x="55" y="630" type="line"/>
    </contour>
  </outline>
</glyph>
<glyph name="Iacute" format="1">
  <advance width="210"/>
  <unicode hex="00CD"/>
  <outline>
    <contour>
      <point x="163" y="630" type="line"/>
      <point x="46" y="630" type="line"/>
      <point x="46" y="0" type="line"/>
      <point x="163" y="0" type="line"/>
    </contour>
    <contour>
      <point x="231" y="812" type="line"/>
      <point x="121" y="812" type="line"/>
      <point x="42" y="691" type="line"/>
      <point x="133" y="691" type="line"/>
      <point x="232" y="809" type="line"/>
    </contour>
  </outline>
</glyph>
<glyph name="Icircumflex" format="1">
  <advance width="210"/>
  <unicode hex="00CE"/>
  <outline>
    <contour>
      <point x="163" y="0" type="line"/>
      <point x="163" y="630" type="line"/>
      <point x="46" y="630" type="line"/>
      <point x="46" y="0" type="line"/>
    </contour>
    <contour>
      <point x="229" y="687" type="line"/>
      <point x="151" y="812" type="line"/>
      <point x="60" y="812" type="line"/>
      <point x="-20" y="687" type="line"/>
      <point x="64" y="687" type="line"/>
      <point x="106" y="751" type="line"/>
      <point x="147" y="687" type="line"/>
    </contour>
  </outline>
</glyph>
<glyph name="Ntilde" format="1">
  <advance width="544"/>
  <unicode hex="00D1"/>
  <outline>
    <contour>
      <point x="489" y="630" type="line"/>
      <point x="385" y="630" type="line"/>
      <point x="385" y="280" type="line" smooth="yes"/>
      <point x="385" y="269"/>
      <point x="385" y="227"/>
      <point x="385" y="227" type="curve"/>
      <point x="383" y="225" type="line"/>
      <point x="383" y="225"/>
      <point x="364" y="267"/>
      <point x="354" y="283" type="curve" smooth="yes"/>
      <point x="159" y="630" type="line"/>
      <point x="55" y="630" type="line"/>
      <point x="55" y="0" type="line"/>
      <point x="159" y="0" type="line"/>
      <point x="159" y="352" type="line" smooth="yes"/>
      <point x="159" y="368"/>
      <point x="157" y="404"/>
      <point x="157" y="404" type="curve"/>
      <point x="161" y="407" type="line"/>
      <point x="161" y="407"/>
      <point x="182" y="361"/>
      <point x="189" y="347" type="curve" smooth="yes"/>
      <point x="385" y="0" type="line"/>
      <point x="489" y="0" type="line"/>
    </contour>
    <contour>
      <point x="366" y="812" type="line"/>
      <point x="362" y="786"/>
      <point x="349" y="778"/>
      <point x="330" y="778" type="curve" smooth="yes"/>
      <point x="289" y="778"/>
      <point x="253" y="812"/>
      <point x="208" y="812" type="curve" smooth="yes"/>
      <point x="144" y="812"/>
      <point x="118" y="750"/>
      <point x="118" y="700" type="curve"/>
      <point x="178" y="700" type="line"/>
      <point x="182" y="725"/>
      <point x="194" y="733"/>
      <point x="214" y="733" type="curve" smooth="yes"/>
      <point x="256" y="733"/>
      <point x="291" y="700"/>
      <point x="336" y="700" type="curve" smooth="yes"/>
      <point x="400" y="700"/>
      <point x="426" y="761"/>
      <point x="426" y="812" type="curve"/>
    </contour>
  </outline>
</glyph>
<glyph name="Ograve" format="1">
  <advance width="587"/>
  <unicode hex="00D2"/>
  <outline>
    <contour>
      <point x="131" y="642"/>
      <point x="31" y="538"/>
      <point x="31" y="315" type="curve" smooth="yes"/>
      <point x="31" y="93"/>
      <point x="131" y="-11"/>
      <point x="293" y="-11" type="curve" smooth="yes"/>
      <point x="456" y="-11"/>
      <point x="555" y="93"/>
      <point x="555" y="315" type="curve" smooth="yes"/>
      <point x="555" y="538"/>
      <point x="456" y="642"/>
      <point x="293" y="642" type="curve" smooth="yes"/>
    </contour>
    <contour>
      <point x="387" y="541"/>
      <point x="434" y="464"/>
      <point x="434" y="338" type="curve" smooth="yes"/>
      <point x="434" y="292" type="line" smooth="yes"/>
      <point x="434" y="166"/>
      <point x="387" y="90"/>
      <point x="293" y="90" type="curve" smooth="yes"/>
      <point x="200" y="90"/>
      <point x="153" y="166"/>
      <point x="153" y="292" type="curve" smooth="yes"/>
      <point x="153" y="338" type="line" smooth="yes"/>
      <point x="153" y="464"/>
      <point x="200" y="541"/>
      <point x="293" y="541" type="curve" smooth="yes"/>
    </contour>
    <contour>
      <point x="278" y="812" type="line"/>
      <point x="167" y="812" type="line"/>
      <point x="166" y="809" type="line"/>
      <point x="265" y="691" type="line"/>
      <point x="357" y="691" type="line"/>
    </contour>
  </outline>
</glyph>
<glyph name="Otilde" format="1">
  <advance width="587"/>
  <unicode hex="00D5"/>
  <outline>
    <contour>
      <point x="131" y="642"/>
      <point x="31" y="538"/>
      <point x="31" y="315" type="curve" smooth="yes"/>
      <point x="31" y="93"/>
      <point x="131" y="-11"/>
      <point x="293" y="-11" type="curve" smooth="yes"/>
      <point x="456" y="-11"/>
      <point x="555" y="93"/>
      <point x="555" y="315" type="curve" smooth="yes"/>
      <point x="555" y="538"/>
      <point x="456" y="642"/>
      <point x="293" y="642" type="curve" smooth="yes"/>
    </contour>
    <contour>
      <point x="387" y="541"/>
      <point x="434" y="464"/>
      <point x="434" y="338" type="curve" smooth="yes"/>
      <point x="434" y="292" type="line" smooth="yes"/>
      <point x="434" y="166"/>
      <point x="387" y="90"/>
      <point x="293" y="90" type="curve" smooth="yes"/>
      <point x="200" y="90"/>
      <point x="153" y="166"/>
      <point x="153" y="292" type="curve" smooth="yes"/>
      <point x="153" y="338" type="line" smooth="yes"/>
      <point x="153" y="464"/>
      <point x="200" y="541"/>
      <point x="293" y="541" type="curve" smooth="yes"/>
    </contour>
    <contour>
      <point x="387" y="812" type="line"/>
      <point x="384" y="786"/>
      <point x="371" y="778"/>
      <point x="353" y="778" type="curve" smooth="yes"/>
      <point x="310" y="778"/>
      <point x="275" y="812"/>
      <point x="230" y="812" type="curve" smooth="yes"/>
      <point x="165" y="812"/>
      <point x="138" y="750"/>
      <point x="138" y="700" type="curve"/>
      <point x="201" y="700" type="line"/>
      <point x="204" y="725"/>
      <point x="216" y="733"/>
      <point x="236" y="733" type="curve" smooth="yes"/>
      <point x="278" y="733"/>
      <point x="313" y="700"/>
      <point x="358" y="700" type="curve" smooth="yes"/>
      <point x="422" y="700"/>
      <point x="448" y="761"/>
      <point x="448" y="812" type="curve"/>
    </contour>
  </outline>
</glyph>
<glyph name="multiply" format="1">
  <advance width="440"/>
  <unicode hex="00D7"/>
  <outline>
    <contour>
      <point x="361" y="436" type="line"/>
      <point x="226" y="302" type="line"/>
      <point x="93" y="436" type="line"/>
      <point x="27" y="369" type="line"/>
      <point x="161" y="235" type="line"/>
      <point x="27" y="102" type="line"/>
      <point x="93" y="35" type="line"/>
      <point x="226" y="171" type="line"/>
      <point x="361" y="35" type="line"/>
      <point x="426" y="102" type="line"/>
      <point x="292" y="235" type="line"/>
      <point x="426" y="369" type="line"/>
    </contour>
  </outline>
</glyph>
<glyph name="Uacute" format="1">
  <advance width="544"/>
  <unicode hex="00DA"/>
  <outline>
    <contour>
      <point x="489" y="630" type="line"/>
      <point x="371" y="630" type="line"/>
      <point x="371" y="202" type="line" smooth="yes"/>
      <point x="371" y="129"/>
      <point x="335" y="90"/>
      <point x="272" y="90" type="curve" smooth="yes"/>
      <point x="210" y="90"/>
      <point x="174" y="129"/>
      <point x="174" y="202" type="curve" smooth="yes"/>
      <point x="174" y="630" type="line"/>
      <point x="56" y="630" type="line"/>
      <point x="56" y="198" type="line" smooth="yes"/>
      <point x="56" y="60"/>
      <point x="137" y="-11"/>
      <point x="272" y="-11" type="curve" smooth="yes"/>
      <point x="408" y="-11"/>
      <point x="489" y="60"/>
      <point x="489" y="198" type="curve" smooth="yes"/>
    </contour>
    <contour>
      <point x="398" y="812" type="line"/>
      <point x="288" y="812" type="line"/>
      <point x="209" y="691" type="line"/>
      <point x="300" y="691" type="line"/>
      <point x="399" y="809" type="line"/>
    </contour>
  </outline>
</glyph>
<glyph name="germandbls" format="1">
  <advance width="461"/>
  <unicode hex="00DF"/>
  <outline>
    <contour>
      <point x="123" y="676"/>
      <point x="36" y="619"/>
      <point x="36" y="478" type="curve" smooth="yes"/>
      <point x="36" y="0" type="line"/>
      <point x="147" y="0" type="line"/>
      <point x="147" y="486" type="line" smooth="yes"/>
      <point x="147" y="548"/>
      <point x="180" y="582"/>
      <point x="229" y="582" type="curve" smooth="yes"/>
      <point x="279" y="582"/>
      <point x="305" y="549"/>
      <point x="305" y="501" type="curve" smooth="yes"/>
      <point x="305" y="447"/>
      <point x="274" y="401"/>
      <point x="236" y="401" type="curve" smooth="yes"/>
      <point x="191" y="401" type="line"/>
      <point x="191" y="297" type="line"/>
      <point x="239" y="297" type="line" smooth="yes"/>
      <point x="286" y="297"/>
      <point x="323" y="253"/>
      <point x="323" y="198" type="curve" smooth="yes"/>
      <point x="323" y="141"/>
      <point x="286" y="94"/>
      <point x="239" y="94" type="curve" smooth="yes"/>
      <point x="191" y="94" type="line"/>
      <point x="191" y="0" type="line"/>
      <point x="251" y="0" type="line" smooth="yes"/>
      <point x="354" y="0"/>
      <point x="435" y="78"/>
      <point x="435" y="197" type="curve" smooth="yes"/>
      <point x="435" y="267"/>
      <point x="391" y="337"/>
      <point x="329" y="360" type="curve"/>
      <point x="329" y="363" type="line"/>
      <point x="380" y="384"/>
      <point x="416" y="443"/>
      <point x="416" y="503" type="curve" smooth="yes"/>
      <point x="416" y="612"/>
      <point x="338" y="676"/>
      <point x="234" y="676" type="curve" smooth="yes"/>
    </contour>
  </outline>
</glyph>
<glyph name="eacute" format="1">
  <advance width="419"/>
  <unicode hex="00E9"/>
  <outline>
    <contour>
      <point x="95" y="495"/>
      <point x="28" y="416"/>
      <point x="28" y="241" type="curve" smooth="yes"/>
      <point x="28" y="68"/>
      <point x="94" y="-11"/>
      <point x="218" y="-11" type="curve" smooth="yes"/>
      <point x="316" y="-11"/>
      <point x="389" y="47"/>
      <point x="389" y="171" type="curve"/>
      <point x="280" y="171" type="line"/>
      <point x="280" y="113"/>
      <point x="256" y="79"/>
      <point x="218" y="79" type="curve" smooth="yes"/>
      <point x="163" y="79"/>
      <point x="145" y="128"/>
      <point x="144" y="214" type="curve"/>
      <point x="389" y="214" type="line"/>
      <point x="389" y="241" type="line" smooth="yes"/>
      <point x="389" y="416"/>
      <point x="331" y="495"/>
      <point x="214" y="495" type="curve" smooth="yes"/>
    </contour>
    <contour>
      <point x="255" y="405"/>
      <point x="274" y="364"/>
      <point x="274" y="294" type="curve"/>
      <point x="145" y="294" type="line"/>
      <point x="148" y="364"/>
      <point x="167" y="405"/>
      <point x="214" y="405" type="curve" smooth="yes"/>
    </contour>
    <contour>
      <point x="336" y="665" type="line"/>
      <point x="226" y="665" type="line"/>
      <point x="147" y="543" type="line"/>
      <point x="237" y="543" type="line"/>
      <point x="337" y="661" type="line"/>
    </contour>
  </outline>
</glyph>
<glyph name="igrave" format="1">
  <advance width="210"/>
  <unicode hex="00EC"/>
  <outline>
    <contour>
      <point x="160" y="484" type="line"/>
      <point x="50" y="484" type="line"/>
      <point x="50" y="0" type="line"/>
      <point x="160" y="0" type="line"/>
    </contour>
    <contour>
      <point x="89" y="665" type="line"/>
      <point x="-21" y="665" type="line"/>
      <point x="-22" y="661" type="line"/>
      <point x="77" y="543" type="line"/>
      <point x="168" y="543" type="line"/>
    </contour>
  </outline>
</glyph>
<glyph name="iacute" format="1">
  <advance width="210"/>
  <unicode hex="00ED"/>
  <outline>
    <contour>
      <point x="160" y="484" type="line"/>
      <point x="50" y="484" type="line"/>
      <point x="50" y="0" type="line"/>
      <point x="160" y="0" type="line"/>
    </contour>
    <contour>
      <point x="231" y="665" type="line"/>
      <point x="121" y="665" type="line"/>
      <point x="42" y="543" type="line"/>
      <point x="133" y="543" type="line"/>
      <point x="232" y="661" type="line"/>
    </contour>
  </outline>
</glyph>
<glyph name="icircumflex" format="1">
  <advance width="210"/>
  <unicode hex="00EE"/>
  <outline>
    <contour>
      <point x="160" y="0" type="line"/>
      <point x="160" y="484" type="line"/>
      <point x="50" y="484" type="line"/>
      <point x="50" y="0" type="line"/>
    </contour>
    <contour>
      <point x="229" y="541" type="line"/>
      <point x="151" y="665" type="line"/>
      <point x="60" y="665" type="line"/>
      <point x="-20" y="541" type="line"/>
      <point x="64" y="541" type="line"/>
      <point x="106" y="604" type="line"/>
      <point x="147" y="541" type="line"/>
    </contour>
  </outline>
</glyph>
<glyph name="idieresis" format="1">
  <advance width="210"/>
  <unicode hex="00EF"/>
  <outline>
    <contour>
      <point x="160" y="484" type="line"/>
      <point x="50" y="484" type="line"/>
      <point x="50" y="0" type="line"/>
      <point x="160" y="0" type="line"/>
    </contour>
    <contour>
      <point x="71" y="665" type="line"/>
      <point x="-21" y="665" type="line"/>
      <point x="-21" y="565" type="line"/>
      <point x="71" y="565" type="line"/>
    </contour>
    <contour>
      <point x="232" y="665" type="line"/>
      <point x="139" y="665" type="line"/>
      <point x="139" y="565" type="line"/>
      <point x="232" y="565" type="line"/>
    </contour>
  </outline>
</glyph>
<glyph name="eth" format="1">
  <advance width="461"/>
  <unicode hex="00F0"/>
  <outline>
    <contour>
      <point x="122" y="665" type="line"/>
      <point x="120" y="661" type="line"/>
      <point x="131" y="649"/>
      <point x="150" y="631"/>
      <point x="168" y="610" type="curve"/>
      <point x="99" y="604" type="line"/>
      <point x="99" y="537" type="line"/>
      <point x="218" y="547" type="line"/>
      <point x="231" y="528"/>
      <point x="243" y="509"/>
      <point x="253" y="491" type="curve"/>
      <point x="250" y="488" type="line"/>
      <point x="236" y="492"/>
      <point x="218" y="495"/>
      <point x="205" y="495" type="curve" smooth="yes"/>
      <point x="102" y="495"/>
      <point x="37" y="408"/>
      <point x="37" y="241" type="curve" smooth="yes"/>
      <point x="37" y="68"/>
      <point x="102" y="-11"/>
      <point x="231" y="-11" type="curve" smooth="yes"/>
      <point x="360" y="-11"/>
      <point x="424" y="68"/>
      <point x="424" y="241" type="curve" smooth="yes"/>
      <point x="424" y="387"/>
      <point x="382" y="488"/>
      <point x="334" y="558" type="curve"/>
      <point x="402" y="565" type="line"/>
      <point x="402" y="631" type="line"/>
      <point x="283" y="621" type="line"/>
      <point x="265" y="639"/>
      <point x="250" y="654"/>
      <point x="237" y="665" type="curve"/>
    </contour>
    <contour>
      <point x="288" y="401"/>
      <point x="309" y="353"/>
      <point x="309" y="259" type="curve" smooth="yes"/>
      <point x="309" y="225" type="line" smooth="yes"/>
      <point x="309" y="131"/>
      <point x="288" y="82"/>
      <point x="231" y="82" type="curve" smooth="yes"/>
      <point x="174" y="82"/>
      <point x="153" y="131"/>
      <point x="153" y="225" type="curve" smooth="yes"/>
      <point x="153" y="259" type="line" smooth="yes"/>
      <point x="153" y="353"/>
      <point x="174" y="401"/>
      <point x="231" y="401" type="curve" smooth="yes"/>
    </contour>
  </outline>
</glyph>
<glyph name="ograve" format="1">
  <advance width="461"/>
  <unicode hex="00F2"/>
  <outline>
    <contour>
      <point x="102" y="495"/>
      <point x="37" y="416"/>
      <point x="37" y="241" type="curve" smooth="yes"/>
      <point x="37" y="68"/>
      <point x="102" y="-11"/>
      <point x="231" y="-11" type="curve" smooth="yes"/>
      <point x="360" y="-11"/>
      <point x="424" y="68"/>
      <point x="424" y="241" type="curve" smooth="yes"/>
      <point x="424" y="416"/>
      <point x="360" y="495"/>
      <point x="231" y="495" type="curve" smooth="yes"/>
    </contour>
    <contour>
      <point x="288" y="401"/>
      <point x="309" y="353"/>
      <point x="309" y="259" type="curve" smooth="yes"/>
      <point x="309" y="225" type="line" smooth="yes"/>
      <point x="309" y="131"/>
      <point x="288" y="82"/>
      <point x="231" y="82" type="curve" smooth="yes"/>
      <point x="174" y="82"/>
      <point x="153" y="131"/>
      <point x="153" y="225" type="curve" smooth="yes"/>
      <point x="153" y="259" type="line" smooth="yes"/>
      <point x="153" y="353"/>
      <point x="174" y="401"/>
      <point x="231" y="401" type="curve" smooth="yes"/>
    </contour>
    <contour>
      <point x="214" y="665" type="line"/>
      <point x="104" y="665" type="line"/>
      <point x="103" y="661" type="line"/>
      <point x="202" y="543" type="line"/>
      <point x="293" y="543" type="line"/>
    </contour>
  </outline>
</glyph>
<glyph name="odieresis" format="1">
  <advance width="461"/>
  <unicode hex="00F6"/>
  <outline>
    <contour>
      <point x="102" y="495"/>
      <point x="37" y="416"/>
      <point x="37" y="241" type="curve" smooth="yes"/>
      <point x="37" y="68"/>
      <point x="102" y="-11"/>
      <point x="231" y="-11" type="curve" smooth="yes"/>
      <point x="360" y="-11"/>
      <point x="424" y="68"/>
      <point x="424" y="241" type="curve" smooth="yes"/>
      <point x="424" y="416"/>
      <point x="360" y="495"/>
      <point x="231" y="495" type="curve" smooth="yes"/>
    </contour>
    <contour>
      <point x="288" y="401"/>
      <point x="309" y="353"/>
      <point x="309" y="259" type="curve" smooth="yes"/>
      <point x="309" y="225" type="line" smooth="yes"/>
      <point x="309" y="131"/>
      <point x="288" y="82"/>
      <point x="231" y="82" type="curve" smooth="yes"/>
      <point x="174" y="82"/>
      <point x="153" y="131"/>
      <point x="153" y="225" type="curve" smooth="yes"/>
      <point x="153" y="259" type="line" smooth="yes"/>
      <point x="153" y="353"/>
      <point x="174" y="401"/>
      <point x="231" y="401" type="curve" smooth="yes"/>
    </contour>
    <contour>
      <point x="196" y="665" type="line"/>
      <point x="104" y="665" type="line"/>
      <point x="104" y="565" type="line"/>
      <point x="196" y="565" type="line"/>
    </contour>
    <contour>
      <point x="357" y="665" type="line"/>
      <point x="265" y="665" type="line"/>
      <point x="265" y="565" type="line"/>
      <point x="357" y="565" type="line"/>
    </contour>
  </outline>
</glyph>
<glyph name="ucircumflex" format="1">
  <advance width="461"/>
  <unicode hex="00FB"/>
  <outline>
    <contour>
      <point x="410" y="0" type="line"/>
      <point x="410" y="484" type="line"/>
      <point x="300" y="484" type="line"/>
      <point x="300" y="184" type="line" smooth="yes"/>
      <point x="300" y="130"/>
      <point x="267" y="89"/>
      <point x="225" y="89" type="curve" smooth="yes"/>
      <point x="183" y="89"/>
      <point x="161" y="112"/>
      <point x="161" y="175" type="curve" smooth="yes"/>
      <point x="161" y="484" type="line"/>
      <point x="51" y="484" type="line"/>
      <point x="51" y="145" type="line" smooth="yes"/>
      <point x="51" y="30"/>
      <point x="105" y="-11"/>
      <point x="179" y="-11" type="curve" smooth="yes"/>
      <point x="237" y="-11"/>
      <point x="277" y="22"/>
      <point x="302" y="59" type="curve"/>
      <point x="307" y="59" type="line"/>
      <point x="318" y="0" type="line"/>
    </contour>
    <contour>
      <point x="354" y="541" type="line"/>
      <point x="276" y="665" type="line"/>
      <point x="186" y="665" type="line"/>
      <point x="107" y="541" type="line"/>
      <point x="189" y="541" type="line"/>
      <point x="231" y="604" type="line"/>
      <point x="271" y="541" type="line"/>
    </contour>
  </outline>
</glyph>
<glyph name="thorn" format="1">
  <advance width="461"/>
  <unicode hex="00FE"/>
  <outline>
    <contour>
      <point x="161" y="665" type="line"/>
      <point x="51" y="665" type="line"/>
      <point x="51" y="-159" type="line"/>
      <point x="161" y="-159" type="line"/>
      <point x="161" y="50" type="line"/>
      <point x="165" y="50" type="line"/>
      <point x="183" y="11"/>
      <point x="225" y="-11"/>
      <point x="274" y="-11" type="curve" smooth="yes"/>
      <point x="359" y="-11"/>
      <point x="423" y="66"/>
      <point x="423" y="241" type="curve" smooth="yes"/>
      <point x="423" y="416"/>
      <point x="363" y="495"/>
      <point x="267" y="495" type="curve" smooth="yes"/>
      <point x="222" y="495"/>
      <point x="182" y="471"/>
      <point x="158" y="423" type="curve"/>
      <point x="161" y="422" type="line"/>
    </contour>
    <contour>
      <point x="288" y="394"/>
      <point x="308" y="346"/>
      <point x="308" y="259" type="curve" smooth="yes"/>
      <point x="308" y="225" type="line" smooth="yes"/>
      <point x="308" y="137"/>
      <point x="288" y="89"/>
      <point x="234" y="89" type="curve" smooth="yes"/>
      <point x="181" y="89"/>
      <point x="161" y="138"/>
      <point x="161" y="226" type="curve" smooth="yes"/>
      <point x="161" y="259" type="line" smooth="yes"/>
      <point x="161" y="346"/>
      <point x="181" y="394"/>
      <point x="234" y="394" type="curve" smooth="yes"/>
    </contour>
  </outline>
</glyph>
<glyph name="ydieresis" format="1">
  <advance width="419"/>
  <unicode hex="00FF"/>
  <outline>
    <contour>
      <point x="416" y="484" type="line"/>
      <point x="305" y="484" type="line"/>
      <point x="245" y="256" type="line"/>
      <point x="234" y="215"/>
      <point x="230" y="172"/>
      <point x="223" y="131" type="curve"/>
      <point x="218" y="131" type="line"/>
      <point x="210" y="173"/>
      <point x="206" y="215"/>
      <point x="193" y="257" type="curve"/>
      <point x="121" y="484" type="line"/>
      <point x="4" y="484" type="line"/>
      <point x="164" y="0" type="line"/>
      <point x="152" y="-53"/>
      <point x="122" y="-75"/>
      <point x="90" y="-75" type="curve" smooth="yes"/>
      <point x="41" y="-75" type="line"/>
      <point x="41" y="-159" type="line"/>
      <point x="41" y="-160"/>
      <point x="68" y="-167"/>
      <point x="112" y="-167" type="curve" smooth="yes"/>
      <point x="205" y="-167"/>
      <point x="253" y="-80"/>
      <point x="283" y="25" type="curve" smooth="yes"/>
    </contour>
    <contour>
      <point x="176" y="665" type="line"/>
      <point x="83" y="665" type="line"/>
      <point x="83" y="565" type="line"/>
      <point x="176" y="565" type="line"/>
    </contour>
    <contour>
      <point x="337" y="665" type="line"/>
      <point x="244" y="665" type="line"/>
      <point x="244" y="565" type="line"/>
      <point x="337" y="565" type="line"/>
    </contour>
  </outline>
</glyph>
<glyph name="Amacron" format="1">
  <advance width="544"/>
  <unicode hex="0100"/>
  <outline>
    <contour>
      <point x="340" y="630" type="line"/>
      <point x="203" y="630" type="line"/>
      <point x="0" y="0" type="line"/>
      <point x="114" y="0" type="line"/>
      <point x="152" y="124" type="line"/>
      <point x="385" y="124" type="line"/>
      <point x="423" y="0" type="line"/>
      <point x="543" y="0" type="line"/>
    </contour>
    <contour>
      <point x="270" y="525" type="line"/>
      <point x="270" y="525"/>
      <point x="279" y="472"/>
      <point x="289" y="440" type="curve" smooth="yes"/>
      <point x="353" y="229" type="line"/>
      <point x="184" y="229" type="line"/>
      <point x="249" y="440" type="line" smooth="yes"/>
      <point x="258" y="469"/>
      <point x="266" y="525"/>
      <point x="266" y="525" type="curve"/>
    </contour>
    <contour>
      <point x="390" y="778" type="line"/>
      <point x="155" y="778" type="line"/>
      <point x="155" y="698" type="line"/>
      <point x="390" y="698" type="line"/>
    </contour>
  </outline>
</glyph>
<glyph name="Abreve" format="1">
  <advance width="544"/>
  <unicode hex="0102"/>
  <outline>
    <contour>
      <point x="340" y="630" type="line"/>
      <point x="203" y="630" type="line"/>
      <point x="0" y="0" type="line"/>
      <point x="114" y="0" type="line"/>
      <point x="152" y="124" type="line"/>
      <point x="385" y="124" type="line"/>
      <point x="423" y="0" type="line"/>
      <point x="543" y="0" type="line"/>
    </contour>
    <contour>
      <point x="270" y="525" type="line"/>
      <point x="270" y="525"/>
      <point x="279" y="472"/>
      <point x="289" y="440" type="curve" smooth="yes"/>
      <point x="353" y="229" type="line"/>
      <point x="184" y="229" type="line"/>
      <point x="249" y="440" type="line" smooth="yes"/>
      <point x="258" y="469"/>
      <point x="266" y="525"/>
      <point x="266" y="525" type="curve"/>
    </contour>
    <contour>
      <point x="327" y="812" type="line"/>
      <point x="326" y="799"/>
      <point x="304" y="781"/>
      <point x="271" y="781" type="curve" smooth="yes"/>
      <point x="241" y="781"/>
      <point x="220" y="799"/>
      <point x="218" y="812" type="curve"/>
      <point x="150" y="812" type="line"/>
      <point x="150" y="765"/>
      <point x="196" y="713"/>
      <point x="271" y="713" type="curve" smooth="yes"/>
      <point x="347" y="713"/>
      <point x="395" y="765"/>
      <point x="395" y="812" type="curve"/>
    </contour>
  </outline>
</glyph>
<glyph name="Aogonek" format="1">
  <advance width="544"/>
  <unicode hex="0104"/>
  <outline>
    <contour>
      <point x="423" y="0" type="line"/>
      <point x="543" y="0" type="line"/>
      <point x="340" y="630" type="line"/>
      <point x="203" y="630" type="line"/>
      <point x="0" y="0" type="line"/>
      <point x="114" y="0" type="line"/>
      <point x="152" y="124" type="line"/>
      <point x="385" y="124" type="line"/>
    </contour>
    <contour>
      <point x="270" y="525" type="line"/>
      <point x="270" y="525"/>
      <point x="279" y="472"/>
      <point x="289" y="440" type="curve" smooth="yes"/>
      <point x="353" y="229" type="line"/>
      <point x="184" y="229" type="line"/>
      <point x="249" y="440" type="line" smooth="yes"/>
      <point x="258" y="469"/>
      <point x="266" y="525"/>
      <point x="266" y="525" type="curve"/>
    </contour>
    <contour>
      <point x="467" y="0" type="line"/>
      <point x="447" y="-25"/>
      <point x="425" y="-46"/>
      <point x="425" y="-92" type="curve" smooth="yes"/>
      <point x="425" y="-155"/>
      <point x="474" y="-175"/>
      <point x="517" y="-175" type="curve" smooth="yes"/>
      <point x="537" y="-175"/>
      <point x="556" y="-171"/>
      <point x="577" y="-162" type="curve"/>
      <point x="577" y="-111" type="line"/>
      <point x="557" y="-111" type="line" smooth="yes"/>
      <point x="527" y="-111"/>
      <point x="516" y="-88"/>
      <point x="516" y="-64" type="curve" smooth="yes"/>
      <point x="516" y="-35"/>
      <point x="532" y="-10"/>
      <point x="543" y="0" type="curve"/>
    </contour>
  </outline>
</glyph>
<glyph name="aogonek" format="1">
  <advance width="419"/>
  <unicode hex="0105"/>
  <outline>
    <contour>
      <point x="446" y="-107" type="line"/>
      <point x="425" y="-107" type="line" smooth="yes"/>
      <point x="395" y="-107"/>
      <point x="385" y="-84"/>
      <point x="385" y="-60" type="curve" smooth="yes"/>
      <point x="385" y="-35"/>
      <point x="401" y="-9"/>
      <point x="412" y="4" type="curve"/>
      <point x="412" y="82" type="line"/>
      <point x="390" y="82" type="line" smooth="yes"/>
      <point x="376" y="82"/>
      <point x="364" y="92"/>
      <point x="364" y="114" type="curve" smooth="yes"/>
      <point x="364" y="353" type="line" smooth="yes"/>
      <point x="364" y="442"/>
      <point x="312" y="495"/>
      <point x="200" y="495" type="curve" smooth="yes"/>
      <point x="100" y="495"/>
      <point x="35" y="441"/>
      <point x="35" y="361" type="curve" smooth="yes"/>
      <point x="35" y="353"/>
      <point x="35" y="345"/>
      <point x="36" y="340" type="curve"/>
      <point x="145" y="340" type="line"/>
      <point x="145" y="354" type="line" smooth="yes"/>
      <point x="145" y="376"/>
      <point x="157" y="405"/>
      <point x="202" y="405" type="curve" smooth="yes"/>
      <point x="244" y="405"/>
      <point x="253" y="378"/>
      <point x="253" y="344" type="curve" smooth="yes"/>
      <point x="253" y="294" type="line"/>
      <point x="112" y="294"/>
      <point x="12" y="256"/>
      <point x="12" y="125" type="curve" smooth="yes"/>
      <point x="12" y="12"/>
      <point x="89" y="-11"/>
      <point x="134" y="-11" type="curve" smooth="yes"/>
      <point x="199" y="-11"/>
      <point x="229" y="14"/>
      <point x="257" y="52" type="curve"/>
      <point x="261" y="52" type="line"/>
      <point x="270" y="22"/>
      <point x="291" y="-1"/>
      <point x="322" y="-8" type="curve"/>
      <point x="306" y="-28"/>
      <point x="294" y="-52"/>
      <point x="294" y="-88" type="curve" smooth="yes"/>
      <point x="294" y="-152"/>
      <point x="344" y="-171"/>
      <point x="385" y="-171" type="curve" smooth="yes"/>
      <point x="406" y="-171"/>
      <point x="424" y="-166"/>
      <point x="446" y="-158" type="curve"/>
    </contour>
    <contour>
      <point x="253" y="186" type="line"/>
      <point x="253" y="130"/>
      <point x="233" y="81"/>
      <point x="180" y="81" type="curve" smooth="yes"/>
      <point x="142" y="81"/>
      <point x="126" y="102"/>
      <point x="126" y="135" type="curve" smooth="yes"/>
      <point x="126" y="198"/>
      <point x="188" y="214"/>
      <point x="253" y="214" type="curve"/>
    </contour>
  </outline>
</glyph>
<glyph name="ccircumflex" format="1">
  <advance width="419"/>
  <unicode hex="0109"/>
  <outline>
    <contour>
      <point x="98" y="495"/>
      <point x="37" y="416"/>
      <point x="37" y="241" type="curve" smooth="yes"/>
      <point x="37" y="68"/>
      <point x="95" y="-11"/>
      <point x="220" y="-11" type="curve" smooth="yes"/>
      <point x="321" y="-11"/>
      <point x="386" y="47"/>
      <point x="386" y="182" type="curve"/>
      <point x="277" y="182" type="line"/>
      <point x="277" y="115"/>
      <point x="260" y="82"/>
      <point x="220" y="82" type="curve" smooth="yes"/>
      <point x="171" y="82"/>
      <point x="153" y="131"/>
      <point x="153" y="225" type="curve" smooth="yes"/>
      <point x="153" y="259" type="line" smooth="yes"/>
      <point x="153" y="353"/>
      <point x="171" y="401"/>
      <point x="217" y="401" type="curve" smooth="yes"/>
      <point x="255" y="401"/>
      <point x="274" y="369"/>
      <point x="274" y="302" type="curve"/>
      <point x="386" y="302" type="line"/>
      <point x="386" y="437"/>
      <point x="320" y="495"/>
      <point x="217" y="495" type="curve" smooth="yes"/>
    </contour>
    <contour>
      <point x="342" y="541" type="line"/>
      <point x="264" y="665" type="line"/>
      <point x="174" y="665" type="line"/>
      <point x="95" y="541" type="line"/>
      <point x="178" y="541" type="line"/>
      <point x="218" y="604" type="line"/>
      <point x="259" y="541" type="line"/>
    </contour>
  </outline>
</glyph>
<glyph name="Ccaron" format="1">
  <advance width="544"/>
  <unicode hex="010C"/>
  <outline>
    <contour>
      <point x="124" y="642"/>
      <point x="31" y="538"/>
      <point x="31" y="315" type="curve" smooth="yes"/>
      <point x="31" y="93"/>
      <point x="124" y="-11"/>
      <point x="282" y="-11" type="curve" smooth="yes"/>
      <point x="416" y="-11"/>
      <point x="514" y="68"/>
      <point x="514" y="234" type="curve"/>
      <point x="399" y="234" type="line"/>
      <point x="399" y="136"/>
      <point x="354" y="90"/>
      <point x="286" y="90" type="curve" smooth="yes"/>
      <point x="196" y="90"/>
      <point x="153" y="166"/>
      <point x="153" y="292" type="curve" smooth="yes"/>
      <point x="153" y="338" type="line" smooth="yes"/>
      <point x="153" y="464"/>
      <point x="194" y="541"/>
      <point x="282" y="541" type="curve" smooth="yes"/>
      <point x="348" y="541"/>
      <point x="393" y="494"/>
      <point x="393" y="396" type="curve"/>
      <point x="514" y="396" type="line"/>
      <point x="514" y="567"/>
      <point x="414" y="642"/>
      <point x="282" y="642" type="curve" smooth="yes"/>
    </contour>
    <contour>
      <point x="328" y="687" type="line"/>
      <point x="406" y="812" type="line"/>
      <point x="323" y="812" type="line"/>
      <point x="282" y="749" type="line"/>
      <point x="241" y="812" type="line"/>
      <point x="158" y="812" type="line"/>
      <point x="237" y="687" type="line"/>
    </contour>
  </outline>
</glyph>
<glyph name="dcaron" format="1">
  <advance width="542"/>
  <unicode hex="010F"/>
  <outline>
    <contour>
      <point x="410" y="0" type="line"/>
      <point x="410" y="665" type="line"/>
      <point x="300" y="665" type="line"/>
      <point x="300" y="434" type="line"/>
      <point x="295" y="434" type="line"/>
      <point x="278" y="472"/>
      <point x="236" y="495"/>
      <point x="187" y="495" type="curve" smooth="yes"/>
      <point x="102" y="495"/>
      <point x="37" y="418"/>
      <point x="37" y="242" type="curve" smooth="yes"/>
      <point x="37" y="68"/>
      <point x="98" y="-11"/>
      <point x="193" y="-11" type="curve" smooth="yes"/>
      <point x="239" y="-11"/>
      <point x="279" y="12"/>
      <point x="303" y="59" type="curve"/>
      <point x="307" y="59" type="line"/>
      <point x="318" y="0" type="line"/>
    </contour>
    <contour>
      <point x="280" y="394"/>
      <point x="300" y="344"/>
      <point x="300" y="258" type="curve" smooth="yes"/>
      <point x="300" y="225" type="line" smooth="yes"/>
      <point x="300" y="137"/>
      <point x="280" y="89"/>
      <point x="226" y="89" type="curve" smooth="yes"/>
      <point x="173" y="89"/>
      <point x="153" y="137"/>
      <point x="153" y="225" type="curve" smooth="yes"/>
      <point x="153" y="259" type="line" smooth="yes"/>
      <point x="153" y="346"/>
      <point x="173" y="394"/>
      <point x="226" y="394" type="curve" smooth="yes"/>
    </contour>
    <contour>
      <point x="566" y="516" type="line"/>
      <point x="566" y="630" type="line"/>
      <point x="439" y="630" type="line"/>
      <point x="439" y="504" type="line"/>
      <point x="489" y="504" type="line"/>
      <point x="439" y="361" type="line"/>
      <point x="504" y="361" type="line"/>
    </contour>
  </outline>
</glyph>
<glyph name="Dcroat" format="1">
  <advance width="544"/>
  <unicode hex="0110"/>
  <outline>
    <contour>
      <point x="9" y="365" type="line"/>
      <point x="9" y="287" type="line"/>
      <point x="55" y="287" type="line"/>
      <point x="55" y="0" type="line"/>
      <point x="260" y="0" type="line" smooth="yes"/>
      <point x="417" y="0"/>
      <point x="513" y="108"/>
      <point x="513" y="324" type="curve" smooth="yes"/>
      <point x="513" y="527"/>
      <point x="417" y="630"/>
      <point x="260" y="630" type="curve" smooth="yes"/>
      <point x="55" y="630" type="line"/>
      <point x="55" y="365" type="line"/>
    </contour>
    <contour>
      <point x="173" y="526" type="line"/>
      <point x="250" y="526" type="line" smooth="yes"/>
      <point x="337" y="526"/>
      <point x="392" y="466"/>
      <point x="392" y="347" type="curve" smooth="yes"/>
      <point x="392" y="302" type="line" smooth="yes"/>
      <point x="392" y="171"/>
      <point x="337" y="105"/>
      <point x="250" y="105" type="curve" smooth="yes"/>
      <point x="173" y="105" type="line"/>
      <point x="173" y="287" type="line"/>
      <point x="288" y="287" type="line"/>
      <point x="288" y="365" type="line"/>
      <point x="173" y="365" type="line"/>
    </contour>
  </outline>
</glyph>
<glyph name="ebreve" format="1">
  <advance width="419"/>
  <unicode hex="0115"/>
  <outline>
    <contour>
      <point x="95" y="495"/>
      <point x="28" y="416"/>
      <point x="28" y="241" type="curve" smooth="yes"/>
      <point x="28" y="68"/>
      <point x="94" y="-11"/>
      <point x="218" y="-11" type="curve" smooth="yes"/>
      <point x="316" y="-11"/>
      <point x="389" y="47"/>
      <point x="389" y="171" type="curve"/>
      <point x="280" y="171" type="line"/>
      <point x="280" y="113"/>
      <point x="256" y="79"/>
      <point x="218" y="79" type="curve" smooth="yes"/>
      <point x="163" y="79"/>
      <point x="145" y="128"/>
      <point x="144" y="214" type="curve"/>
      <point x="389" y="214" type="line"/>
      <point x="389" y="241" type="line" smooth="yes"/>
      <point x="389" y="416"/>
      <point x="331" y="495"/>
      <point x="214" y="495" type="curve" smooth="yes"/>
    </contour>
    <contour>
      <point x="255" y="405"/>
      <point x="274" y="364"/>
      <point x="274" y="294" type="curve"/>
      <point x="145" y="294" type="line"/>
      <point x="148" y="364"/>
      <point x="167" y="405"/>
      <point x="214" y="405" type="curve" smooth="yes"/>
    </contour>
    <contour>
      <point x="265" y="665" type="line"/>
      <point x="263" y="652"/>
      <point x="241" y="634"/>
      <point x="210" y="634" type="curve" smooth="yes"/>
      <point x="179" y="634"/>
      <point x="158" y="652"/>
      <point x="155" y="665" type="curve"/>
      <point x="87" y="665" type="line"/>
      <point x="87" y="619"/>
      <point x="134" y="567"/>
      <point x="210" y="567" type="curve" smooth="yes"/>
      <point x="286" y="567"/>
      <point x="333" y="619"/>
      <point x="333" y="665" type="curve"/>
    </contour>
  </outline>
</glyph>
<glyph name="Eogonek" format="1">
  <advance width="503"/>
  <unicode hex="0118"/>
  <outline>
    <contour>
      <point x="457" y="526" type="line"/>
      <point x="457" y="630" type="line"/>
      <point x="55" y="630" type="line"/>
      <point x="55" y="0" type="line"/>
      <point x="385" y="0" type="line"/>
      <point x="363" y="-23"/>
      <point x="344" y="-49"/>
      <point x="344" y="-92" type="curve" smooth="yes"/>
      <point x="344" y="-155"/>
      <point x="393" y="-175"/>
      <point x="436" y="-175" type="curve" smooth="yes"/>
      <point x="456" y="-175"/>
      <point x="475" y="-171"/>
      <point x="496" y="-162" type="curve"/>
      <point x="496" y="-111" type="line"/>
      <point x="476" y="-111" type="line" smooth="yes"/>
      <point x="446" y="-111"/>
      <point x="435" y="-88"/>
      <point x="435" y="-64" type="curve" smooth="yes"/>
      <point x="435" y="-38"/>
      <point x="451" y="-12"/>
      <point x="463" y="0" type="curve"/>
      <point x="463" y="105" type="line"/>
      <point x="173" y="105" type="line"/>
      <point x="173" y="270" type="line"/>
      <point x="416" y="270" type="line"/>
      <point x="416" y="375" type="line"/>
      <point x="173" y="375" type="line"/>
      <point x="173" y="526" type="line"/>
    </contour>
  </outline>
</glyph>
<glyph name="Ecaron" format="1">
  <advance width="503"/>
  <unicode hex="011A"/>
  <outline>
    <contour>
      <point x="297" y="687" type="line"/>
      <point x="375" y="812" type="line"/>
      <point x="292" y="812" type="line"/>
      <point x="252" y="749" type="line"/>
      <point x="210" y="812" type="line"/>
      <point x="128" y="812" type="line"/>
      <point x="207" y="687" type="line"/>
    </contour>
    <contour>
      <point x="55" y="0" type="line"/>
      <point x="463" y="0" type="line"/>
      <point x="463" y="105" type="line"/>
      <point x="173" y="105" type="line"/>
      <point x="173" y="270" type="line"/>
      <point x="416" y="270" type="line"/>
      <point x="416" y="375" type="line"/>
      <point x="173" y="375" type="line"/>
      <point x="173" y="526" type="line"/>
      <point x="457" y="526" type="line"/>
      <point x="457" y="630" type="line"/>
      <point x="55" y="630" type="line"/>
    </contour>
  </outline>
</glyph>
<glyph name="Gcommaaccent" format="1">
  <advance width="587"/>
  <unicode hex="0122"/>
  <outline>
    <contour>
      <point x="336" y="-154" type="line"/>
      <point x="336" y="-51" type="line"/>
      <point x="223" y="-51" type="line"/>
      <point x="223" y="-163" type="line"/>
      <point x="267" y="-163" type="line"/>
      <point x="234" y="-241" type="line"/>
      <point x="294" y="-241" type="line"/>
    </contour>
    <contour>
      <point x="129" y="642"/>
      <point x="31" y="538"/>
      <point x="31" y="315" type="curve" smooth="yes"/>
      <point x="31" y="92"/>
      <point x="121" y="-11"/>
      <point x="275" y="-11" type="curve" smooth="yes"/>
      <point x="341" y="-11"/>
      <point x="402" y="17"/>
      <point x="443" y="70" type="curve"/>
      <point x="464" y="0" type="line"/>
      <point x="540" y="0" type="line"/>
      <point x="540" y="343" type="line"/>
      <point x="278" y="343" type="line"/>
      <point x="278" y="241" type="line"/>
      <point x="469" y="241" type="line"/>
      <point x="419" y="286" type="line"/>
      <point x="419" y="241" type="line" smooth="yes"/>
      <point x="419" y="149"/>
      <point x="368" y="90"/>
      <point x="296" y="90" type="curve" smooth="yes"/>
      <point x="198" y="90"/>
      <point x="153" y="163"/>
      <point x="153" y="292" type="curve" smooth="yes"/>
      <point x="153" y="338" type="line" smooth="yes"/>
      <point x="153" y="464"/>
      <point x="197" y="541"/>
      <point x="295" y="541" type="curve" smooth="yes"/>
      <point x="363" y="541"/>
      <point x="419" y="495"/>
      <point x="419" y="410" type="curve"/>
      <point x="540" y="410" type="line"/>
      <point x="540" y="561"/>
      <point x="425" y="642"/>
      <point x="298" y="642" type="curve" smooth="yes"/>
    </contour>
  </outline>
</glyph>
<glyph name="Hcircumflex" format="1">
  <advance width="544"/>
  <unicode hex="0124"/>
  <outline>
    <contour>
      <point x="489" y="630" type="line"/>
      <point x="371" y="630" type="line"/>
      <point x="371" y="375" type="line"/>
      <point x="173" y="375" type="line"/>
      <point x="173" y="630" type="line"/>
      <point x="55" y="630" type="line"/>
      <point x="55" y="0" type="line"/>
      <point x="173" y="0" type="line"/>
      <point x="173" y="270" type="line"/>
      <point x="371" y="270" type="line"/>
      <point x="371" y="0" type="line"/>
      <point x="489" y="0" type="line"/>
    </contour>
    <contour>
      <point x="318" y="812" type="line"/>
      <point x="228" y="812" type="line"/>
      <point x="149" y="687" type="line"/>
      <point x="231" y="687" type="line"/>
      <point x="272" y="751" type="line"/>
      <point x="313" y="687" type="line"/>
      <point x="396" y="687" type="line"/>
    </contour>
  </outline>
</glyph>
<glyph name="hcircumflex" format="1">
  <advance width="461"/>
  <unicode hex="0125"/>
  <outline>
    <contour>
      <point x="161" y="432" type="line"/>
      <point x="161" y="665" type="line"/>
      <point x="51" y="665" type="line"/>
      <point x="51" y="0" type="line"/>
      <point x="161" y="0" type="line"/>
      <point x="161" y="297" type="line" smooth="yes"/>
      <point x="161" y="353"/>
      <point x="193" y="394"/>
      <point x="236" y="394" type="curve" smooth="yes"/>
      <point x="276" y="394"/>
      <point x="300" y="371"/>
      <point x="300" y="309" type="curve" smooth="yes"/>
      <point x="300" y="0" type="line"/>
      <point x="410" y="0" type="line"/>
      <point x="410" y="339" type="line" smooth="yes"/>
      <point x="410" y="453"/>
      <point x="356" y="495"/>
      <point x="282" y="495" type="curve" smooth="yes"/>
      <point x="225" y="495"/>
      <point x="186" y="463"/>
      <point x="164" y="432" type="curve"/>
    </contour>
    <contour>
      <point x="227" y="687" type="line"/>
      <point x="149" y="812" type="line"/>
      <point x="59" y="812" type="line"/>
      <point x="-20" y="687" type="line"/>
      <point x="62" y="687" type="line"/>
      <point x="104" y="751" type="line"/>
      <point x="145" y="687" type="line"/>
    </contour>
  </outline>
</glyph>
<glyph name="Itilde" format="1">
  <advance width="210"/>
  <unicode hex="0128"/>
  <outline>
    <contour>
      <point x="163" y="0" type="line"/>
      <point x="163" y="630" type="line"/>
      <point x="46" y="630" type="line"/>
      <point x="46" y="0" type="line"/>
    </contour>
    <contour>
      <point x="199" y="812" type="line"/>
      <point x="194" y="786"/>
      <point x="183" y="778"/>
      <point x="163" y="778" type="curve" smooth="yes"/>
      <point x="122" y="778"/>
      <point x="86" y="812"/>
      <point x="41" y="812" type="curve" smooth="yes"/>
      <point x="-24" y="812"/>
      <point x="-50" y="750"/>
      <point x="-50" y="700" type="curve"/>
      <point x="11" y="700" type="line"/>
      <point x="16" y="725"/>
      <point x="28" y="733"/>
      <point x="48" y="733" type="curve" smooth="yes"/>
      <point x="89" y="733"/>
      <point x="125" y="700"/>
      <point x="170" y="700" type="curve" smooth="yes"/>
      <point x="234" y="700"/>
      <point x="260" y="761"/>
      <point x="260" y="812" type="curve"/>
    </contour>
  </outline>
</glyph>
<glyph name="itilde" format="1">
  <advance width="210"/>
  <unicode hex="0129"/>
  <outline>
    <contour>
      <point x="160" y="0" type="line"/>
      <point x="160" y="484" type="line"/>
      <point x="50" y="484" type="line"/>
      <point x="50" y="0" type="line"/>
    </contour>
    <contour>
      <point x="199" y="665" type="line"/>
      <point x="194" y="639"/>
      <point x="183" y="630"/>
      <point x="163" y="630" type="curve" smooth="yes"/>
      <point x="122" y="630"/>
      <point x="86" y="665"/>
      <point x="41" y="665" type="curve" smooth="yes"/>
      <point x="-24" y="665"/>
      <point x="-50" y="603"/>
      <point x="-50" y="552" type="curve"/>
      <point x="11" y="552" type="line"/>
      <point x="16" y="577"/>
      <point x="28" y="587"/>
      <point x="48" y="587" type="curve" smooth="yes"/>
      <point x="89" y="587"/>
      <point x="125" y="552"/>
      <point x="170" y="552" type="curve" smooth="yes"/>
      <point x="234" y="552"/>
      <point x="260" y="615"/>
      <point x="260" y="665" type="curve"/>
    </contour>
  </outline>
</glyph>
<glyph name="Imacron" format="1">
  <advance width="210"/>
  <unicode hex="012A"/>
  <outline>
    <contour>
      <point x="163" y="0" type="line"/>
      <point x="163" y="630" type="line"/>
      <point x="46" y="630" type="line"/>
      <point x="46" y="0" type="line"/>
    </contour>
    <contour>
      <point x="223" y="698" type="line"/>
      <point x="223" y="778" type="line"/>
      <point x="-12" y="778" type="line"/>
      <point x="-12" y="698" type="line"/>
    </contour>
  </outline>
</glyph>
<glyph name="imacron" format="1">
  <advance width="210"/>
  <unicode hex="012B"/>
  <outline>
    <contour>
      <point x="160" y="0" type="line"/>
      <point x="160" y="484" type="line"/>
      <point x="50" y="484" type="line"/>
      <point x="50" y="0" type="line"/>
    </contour>
    <contour>
      <point x="223" y="551" type="line"/>
      <point x="223" y="630" type="line"/>
      <point x="-12" y="630" type="line"/>
      <point x="-12" y="551" type="line"/>
    </contour>
  </outline>
</glyph>
<glyph name="ibreve" format="1">
  <advance width="210"/>
  <unicode hex="012D"/>
  <outline>
    <contour>
      <point x="160" y="0" type="line"/>
      <point x="160" y="484" type="line"/>
      <point x="50" y="484" type="line"/>
      <point x="50" y="0" type="line"/>
    </contour>
    <contour>
      <point x="160" y="665" type="line"/>
      <point x="158" y="652"/>
      <point x="136" y="634"/>
      <point x="105" y="634" type="curve" smooth="yes"/>
      <point x="75" y="634"/>
      <point x="53" y="652"/>
      <point x="51" y="665" type="curve"/>
      <point x="-19" y="665" type="line"/>
      <point x="-19" y="619"/>
      <point x="29" y="567"/>
      <point x="105" y="567" type="curve" smooth="yes"/>
      <point x="181" y="567"/>
      <point x="228" y="619"/>
      <point x="228" y="665" type="curve"/>
    </contour>
  </outline>
</glyph>
<glyph name="iogonek" format="1">
  <advance width="210"/>
  <unicode hex="012F"/>
  <outline>
    <contour>
      <point x="160" y="484" type="line"/>
      <point x="50" y="484" type="line"/>
      <point x="50" y="0" type="line"/>
      <point x="83" y="0" type="line"/>
      <point x="60" y="-23"/>
      <point x="43" y="-49"/>
      <point x="43" y="-92" type="curve" smooth="yes"/>
      <point x="43" y="-155"/>
      <point x="92" y="-175"/>
      <point x="133" y="-175" type="curve" smooth="yes"/>
      <point x="154" y="-175"/>
      <point x="173" y="-171"/>
      <point x="194" y="-162" type="curve"/>
      <point x="194" y="-111" type="line"/>
      <point x="174" y="-111" type="line" smooth="yes"/>
      <point x="144" y="-111"/>
      <point x="132" y="-88"/>
      <point x="132" y="-64" type="curve" smooth="yes"/>
      <point x="132" y="-38"/>
      <point x="149" y="-12"/>
      <point x="160" y="0" type="curve"/>
    </contour>
    <contour>
      <point x="155" y="665" type="line"/>
      <point x="56" y="665" type="line"/>
      <point x="56" y="558" type="line"/>
      <point x="155" y="558" type="line"/>
    </contour>
  </outline>
</glyph>
<glyph name="Idotaccent" format="1">
  <advance width="210"/>
  <unicode hex="0130"/>
  <outline>
    <contour>
      <point x="163" y="0" type="line"/>
      <point x="163" y="630" type="line"/>
      <point x="46" y="630" type="line"/>
      <point x="46" y="0" type="line"/>
    </contour>
    <contour>
      <point x="155" y="706" type="line"/>
      <point x="155" y="812" type="line"/>
      <point x="56" y="812" type="line"/>
      <point x="56" y="706" type="line"/>
    </contour>
  </outline>
</glyph>
<glyph name="idotless" format="1">
  <advance width="210"/>
  <unicode hex="0131"/>
  <outline>
    <contour>
      <point x="160" y="0" type="line"/>
      <point x="160" y="484" type="line"/>
      <point x="50" y="484" type="line"/>
      <point x="50" y="0" type="line"/>
    </contour>
    <contour>
      <point x="188" y="9" type="move" name="ogonek"/>
    </contour>
    <contour>
      <point x="105" y="484" type="move" name="top"/>
    </contour>
  </outline>
</glyph>
<glyph name="IJ" format="1">
  <advance width="629"/>
  <unicode hex="0132"/>
  <outline>
    <contour>
      <point x="574" y="630" type="line"/>
      <point x="456" y="630" type="line"/>
      <point x="456" y="159" type="line" smooth="yes"/>
      <point x="456" y="114"/>
      <point x="436" y="90"/>
      <point x="396" y="90" type="curve" smooth="yes"/>
      <point x="356" y="90"/>
      <point x="335" y="114"/>
      <point x="335" y="159" type="curve" smooth="yes"/>
      <point x="335" y="199" type="line"/>
      <point x="218" y="199" type="line"/>
      <point x="218" y="150" type="line" smooth="yes"/>
      <point x="218" y="45"/>
      <point x="282" y="-11"/>
      <point x="396" y="-11" type="curve" smooth="yes"/>
      <point x="511" y="-11"/>
      <point x="574" y="45"/>
      <point x="574" y="150" type="curve" smooth="yes"/>
    </contour>
    <contour>
      <point x="163" y="630" type="line"/>
      <point x="46" y="630" type="line"/>
      <point x="46" y="0" type="line"/>
      <point x="163" y="0" type="line"/>
    </contour>
  </outline>
</glyph>
<glyph name="ij" format="1">
  <advance width="419"/>
  <unicode hex="0133"/>
  <outline>
    <contour>
      <point x="369" y="484" type="line"/>
      <point x="259" y="484" type="line"/>
      <point x="259" y="-30" type="line" smooth="yes"/>
      <point x="259" y="-59"/>
      <point x="244" y="-75"/>
      <point x="216" y="-75" type="curve" smooth="yes"/>
      <point x="176" y="-75" type="line"/>
      <point x="176" y="-156" type="line"/>
      <point x="194" y="-162"/>
      <point x="230" y="-167"/>
      <point x="258" y="-167" type="curve" smooth="yes"/>
      <point x="345" y="-167"/>
      <point x="369" y="-102"/>
      <point x="369" y="-37" type="curve" smooth="yes"/>
    </contour>
    <contour>
      <point x="160" y="484" type="line"/>
      <point x="50" y="484" type="line"/>
      <point x="50" y="0" type="line"/>
      <point x="160" y="0" type="line"/>
    </contour>
    <contour>
      <point x="160" y="665" type="line"/>
      <point x="50" y="665" type="line"/>
      <point x="50" y="565" type="line"/>
      <point x="160" y="565" type="line"/>
    </contour>
    <contour>
      <point x="369" y="665" type="line"/>
      <point x="259" y="665" type="line"/>
      <point x="259" y="565" type="line"/>
      <point x="369" y="565" type="line"/>
    </contour>
  </outline>
</glyph>
<glyph name="Kcommaaccent" format="1">
  <advance width="544"/>
  <unicode hex="0136"/>
  <outline>
    <contour>
      <point x="329" y="-154" type="line"/>
      <point x="329" y="-51" type="line"/>
      <point x="215" y="-51" type="line"/>
      <point x="215" y="-163" type="line"/>
      <point x="260" y="-163" type="line"/>
      <point x="228" y="-241" type="line"/>
      <point x="287" y="-241" type="line"/>
    </contour>
    <contour>
      <point x="174" y="308" type="line"/>
      <point x="174" y="630" type="line"/>
      <point x="55" y="630" type="line"/>
      <point x="55" y="0" type="line"/>
      <point x="174" y="0" type="line"/>
      <point x="174" y="161" type="line"/>
      <point x="272" y="282" type="line"/>
      <point x="409" y="0" type="line"/>
      <point x="542" y="0" type="line"/>
      <point x="349" y="374" type="line"/>
      <point x="536" y="630" type="line"/>
      <point x="405" y="630" type="line"/>
    </contour>
  </outline>
</glyph>
<glyph name="kgreenlandic" format="1">
  <advance width="420"/>
  <unicode hex="0138"/>
  <outline>
    <contour>
      <point x="269" y="287" type="line"/>
      <point x="413" y="484" type="line"/>
      <point x="295" y="484" type="line"/>
      <point x="160" y="291" type="line"/>
      <point x="160" y="484" type="line"/>
      <point x="50" y="484" type="line"/>
      <point x="50" y="0" type="line"/>
      <point x="160" y="0" type="line"/>
      <point x="160" y="151" type="line"/>
      <point x="201" y="201" type="line"/>
      <point x="297" y="0" type="line"/>
      <point x="420" y="0" type="line"/>
    </contour>
  </outline>
</glyph>
<glyph name="Lacute" format="1">
  <advance width="461"/>
  <unicode hex="0139"/>
  <outline>
    <contour>
      <point x="173" y="630" type="line"/>
      <point x="55" y="630" type="line"/>
      <point x="55" y="0" type="line"/>
      <point x="440" y="0" type="line"/>
      <point x="440" y="110" type="line"/>
      <point x="173" y="110" type="line"/>
    </contour>
    <contour>
      <point x="242" y="812" type="line"/>
      <point x="132" y="812" type="line"/>
      <point x="53" y="691" type="line"/>
      <point x="145" y="691" type="line"/>
      <point x="243" y="809" type="line"/>
    </contour>
  </outline>
</glyph>
<glyph name="lcommaaccent" format="1">
  <advance width="210"/>
  <unicode hex="013C"/>
  <outline>
    <contour>
      <point x="160" y="0" type="line"/>
      <point x="160" y="665" type="line"/>
      <point x="50" y="665" type="line"/>
      <point x="50" y="0" type="line"/>
    </contour>
    <contour>
      <point x="162" y="-154" type="line"/>
      <point x="162" y="-51" type="line"/>
      <point x="49" y="-51" type="line"/>
      <point x="49" y="-163" type="line"/>
      <point x="94" y="-163" type="line"/>
      <point x="60" y="-241" type="line"/>
      <point x="121" y="-241" type="line"/>
    </contour>
  </outline>
</glyph>
<glyph name="lcaron" format="1">
  <advance width="290"/>
  <unicode hex="013E"/>
  <outline>
    <contour>
      <point x="160" y="0" type="line"/>
      <point x="160" y="665" type="line"/>
      <point x="50" y="665" type="line"/>
      <point x="50" y="0" type="line"/>
    </contour>
    <contour>
      <point x="335" y="516" type="line"/>
      <point x="335" y="630" type="line"/>
      <point x="208" y="630" type="line"/>
      <point x="208" y="504" type="line"/>
      <point x="258" y="504" type="line"/>
      <point x="208" y="361" type="line"/>
      <point x="274" y="361" type="line"/>
    </contour>
  </outline>
</glyph>
<glyph name="ldot" format="1">
  <advance width="307"/>
  <unicode hex="0140"/>
  <outline>
    <contour>
      <point x="160" y="0" type="line"/>
      <point x="160" y="665" type="line"/>
      <point x="50" y="665" type="line"/>
      <point x="50" y="0" type="line"/>
    </contour>
    <contour>
      <point x="307" y="256" type="line"/>
      <point x="307" y="376" type="line"/>
      <point x="196" y="376" type="line"/>
      <point x="196" y="256" type="line"/>
    </contour>
  </outline>
</glyph>
<glyph name="lslash" format="1">
  <advance width="210"/>
  <unicode hex="0142"/>
  <outline>
    <contour>
      <point x="160" y="399" type="line"/>
      <point x="160" y="665" type="line"/>
      <point x="50" y="665" type="line"/>
      <point x="50" y="301" type="line"/>
      <point x="-12" y="245" type="line"/>
      <point x="-12" y="157" type="line"/>
      <point x="50" y="212" type="line"/>
      <point x="50" y="0" type="line"/>
      <point x="160" y="0" type="line"/>
      <point x="160" y="311" type="line"/>
      <point x="233" y="375" type="line"/>
      <point x="233" y="464" type="line"/>
    </contour>
  </outline>
</glyph>
<glyph name="nacute" format="1">
  <advance width="461"/>
  <unicode hex="0144"/>
  <outline>
    <contour>
      <point x="224" y="495"/>
      <point x="184" y="462"/>
      <point x="159" y="424" type="curve"/>
      <point x="154" y="424" type="line"/>
      <point x="142" y="484" type="line"/>
      <point x="51" y="484" type="line"/>
      <point x="51" y="0" type="line"/>
      <point x="161" y="0" type="line"/>
      <point x="161" y="297" type="line" smooth="yes"/>
      <point x="161" y="353"/>
      <point x="193" y="394"/>
      <point x="236" y="394" type="curve" smooth="yes"/>
      <point x="276" y="394"/>
      <point x="300" y="371"/>
      <point x="300" y="309" type="curve" smooth="yes"/>
      <point x="300" y="0" type="line"/>
      <point x="410" y="0" type="line"/>
      <point x="410" y="339" type="line" smooth="yes"/>
      <point x="410" y="453"/>
      <point x="356" y="495"/>
      <point x="282" y="495" type="curve" smooth="yes"/>
    </contour>
    <contour>
      <point x="357" y="665" type="line"/>
      <point x="246" y="665" type="line"/>
      <point x="167" y="543" type="line"/>
      <point x="258" y="543" type="line"/>
      <point x="358" y="661" type="line"/>
    </contour>
  </outline>
</glyph>
<glyph name="ncommaaccent" format="1">
  <advance width="461"/>
  <unicode hex="0146"/>
  <outline>
    <contour>
      <point x="224" y="495"/>
      <point x="184" y="462"/>
      <point x="159" y="424" type="curve"/>
      <point x="154" y="424" type="line"/>
      <point x="142" y="484" type="line"/>
      <point x="51" y="484" type="line"/>
      <point x="51" y="0" type="line"/>
      <point x="161" y="0" type="line"/>
      <point x="161" y="297" type="line" smooth="yes"/>
      <point x="161" y="353"/>
      <point x="193" y="394"/>
      <point x="236" y="394" type="curve" smooth="yes"/>
      <point x="276" y="394"/>
      <point x="300" y="371"/>
      <point x="300" y="309" type="curve" smooth="yes"/>
      <point x="300" y="0" type="line"/>
      <point x="410" y="0" type="line"/>
      <point x="410" y="339" type="line" smooth="yes"/>
      <point x="410" y="453"/>
      <point x="356" y="495"/>
      <point x="282" y="495" type="curve" smooth="yes"/>
    </contour>
    <contour>
      <point x="287" y="-154" type="line"/>
      <point x="287" y="-51" type="line"/>
      <point x="174" y="-51" type="line"/>
      <point x="174" y="-163" type="line"/>
      <point x="218" y="-163" type="line"/>
      <point x="186" y="-241" type="line"/>
      <point x="245" y="-241" type="line"/>
    </contour>
  </outline>
</glyph>
<glyph name="ncaron" format="1">
  <advance width="461"/>
  <unicode hex="0148"/>
  <outline>
    <contour>
      <point x="224" y="495"/>
      <point x="184" y="462"/>
      <point x="159" y="424" type="curve"/>
      <point x="154" y="424" type="line"/>
      <point x="142" y="484" type="line"/>
      <point x="51" y="484" type="line"/>
      <point x="51" y="0" type="line"/>
      <point x="161" y="0" type="line"/>
      <point x="161" y="297" type="line" smooth="yes"/>
      <point x="161" y="353"/>
      <point x="193" y="394"/>
      <point x="236" y="394" type="curve" smooth="yes"/>
      <point x="276" y="394"/>
      <point x="300" y="371"/>
      <point x="300" y="309" type="curve" smooth="yes"/>
      <point x="300" y="0" type="line"/>
      <point x="410" y="0" type="line"/>
      <point x="410" y="339" type="line" smooth="yes"/>
      <point x="410" y="453"/>
      <point x="356" y="495"/>
      <point x="282" y="495" type="curve" smooth="yes"/>
    </contour>
    <contour>
      <point x="276" y="541" type="line"/>
      <point x="354" y="665" type="line"/>
      <point x="271" y="665" type="line"/>
      <point x="231" y="601" type="line"/>
      <point x="189" y="665" type="line"/>
      <point x="107" y="665" type="line"/>
      <point x="186" y="541" type="line"/>
    </contour>
  </outline>
</glyph>
<glyph name="napostrophe" format="1">
  <advance width="622"/>
  <unicode hex="0149"/>
  <outline>
    <contour>
      <point x="385" y="495"/>
      <point x="344" y="462"/>
      <point x="320" y="424" type="curve"/>
      <point x="314" y="424" type="line"/>
      <point x="304" y="484" type="line"/>
      <point x="211" y="484" type="line"/>
      <point x="211" y="0" type="line"/>
      <point x="321" y="0" type="line"/>
      <point x="321" y="297" type="line" smooth="yes"/>
      <point x="321" y="353"/>
      <point x="354" y="394"/>
      <point x="397" y="394" type="curve" smooth="yes"/>
      <point x="437" y="394"/>
      <point x="461" y="371"/>
      <point x="461" y="309" type="curve" smooth="yes"/>
      <point x="461" y="0" type="line"/>
      <point x="571" y="0" type="line"/>
      <point x="571" y="339" type="line" smooth="yes"/>
      <point x="571" y="453"/>
      <point x="517" y="495"/>
      <point x="442" y="495" type="curve" smooth="yes"/>
    </contour>
    <contour>
      <point x="176" y="630" type="line"/>
      <point x="61" y="630" type="line"/>
      <point x="61" y="518" type="line"/>
      <point x="107" y="518" type="line"/>
      <point x="75" y="440" type="line"/>
      <point x="134" y="440" type="line"/>
      <point x="176" y="527" type="line"/>
    </contour>
  </outline>
</glyph>
<glyph name="Eng" format="1">
  <advance width="545"/>
  <unicode hex="014A"/>
  <outline>
    <contour>
      <point x="489" y="630" type="line"/>
      <point x="385" y="630" type="line"/>
      <point x="385" y="280" type="line" smooth="yes"/>
      <point x="385" y="269"/>
      <point x="385" y="227"/>
      <point x="385" y="227" type="curve"/>
      <point x="383" y="225" type="line"/>
      <point x="383" y="225"/>
      <point x="364" y="267"/>
      <point x="354" y="283" type="curve" smooth="yes"/>
      <point x="159" y="630" type="line"/>
      <point x="55" y="630" type="line"/>
      <point x="55" y="0" type="line"/>
      <point x="159" y="0" type="line"/>
      <point x="159" y="352" type="line" smooth="yes"/>
      <point x="159" y="368"/>
      <point x="157" y="404"/>
      <point x="157" y="404" type="curve"/>
      <point x="161" y="407" type="line"/>
      <point x="161" y="407"/>
      <point x="182" y="361"/>
      <point x="189" y="347" type="curve" smooth="yes"/>
      <point x="382" y="0" type="line"/>
      <point x="382" y="-30" type="line" smooth="yes"/>
      <point x="382" y="-59"/>
      <point x="367" y="-75"/>
      <point x="338" y="-75" type="curve" smooth="yes"/>
      <point x="297" y="-75" type="line"/>
      <point x="297" y="-156" type="line"/>
      <point x="316" y="-162"/>
      <point x="349" y="-167"/>
      <point x="376" y="-167" type="curve" smooth="yes"/>
      <point x="465" y="-167"/>
      <point x="489" y="-102"/>
      <point x="489" y="-37" type="curve" smooth="yes"/>
    </contour>
  </outline>
</glyph>
<glyph name="eng" format="1">
  <advance width="461"/>
  <unicode hex="014B"/>
  <outline>
    <contour>
      <point x="224" y="495"/>
      <point x="184" y="462"/>
      <point x="159" y="424" type="curve"/>
      <point x="154" y="424" type="line"/>
      <point x="142" y="484" type="line"/>
      <point x="51" y="484" type="line"/>
      <point x="51" y="0" type="line"/>
      <point x="161" y="0" type="line"/>
      <point x="161" y="297" type="line" smooth="yes"/>
      <point x="161" y="353"/>
      <point x="193" y="394"/>
      <point x="236" y="394" type="curve" smooth="yes"/>
      <point x="276" y="394"/>
      <point x="300" y="371"/>
      <point x="300" y="309" type="curve" smooth="yes"/>
      <point x="300" y="-30" type="line" smooth="yes"/>
      <point x="300" y="-59"/>
      <point x="285" y="-75"/>
      <point x="257" y="-75" type="curve" smooth="yes"/>
      <point x="216" y="-75" type="line"/>
      <point x="216" y="-156" type="line"/>
      <point x="235" y="-162"/>
      <point x="270" y="-167"/>
      <point x="297" y="-167" type="curve" smooth="yes"/>
      <point x="386" y="-167"/>
      <point x="410" y="-102"/>
      <point x="410" y="-37" type="curve" smooth="yes"/>
      <point x="410" y="339" type="line" smooth="yes"/>
      <point x="410" y="453"/>
      <point x="356" y="495"/>
      <point x="282" y="495" type="curve" smooth="yes"/>
    </contour>
  </outline>
</glyph>
<glyph name="omacron" format="1">
  <advance width="461"/>
  <unicode hex="014D"/>
  <outline>
    <contour>
      <point x="102" y="495"/>
      <point x="37" y="416"/>
      <point x="37" y="241" type="curve" smooth="yes"/>
      <point x="37" y="68"/>
      <point x="102" y="-11"/>
      <point x="231" y="-11" type="curve" smooth="yes"/>
      <point x="360" y="-11"/>
      <point x="424" y="68"/>
      <point x="424" y="241" type="curve" smooth="yes"/>
      <point x="424" y="416"/>
      <point x="360" y="495"/>
      <point x="231" y="495" type="curve" smooth="yes"/>
    </contour>
    <contour>
      <point x="288" y="401"/>
      <point x="309" y="353"/>
      <point x="309" y="259" type="curve" smooth="yes"/>
      <point x="309" y="225" type="line" smooth="yes"/>
      <point x="309" y="131"/>
      <point x="288" y="82"/>
      <point x="231" y="82" type="curve" smooth="yes"/>
      <point x="174" y="82"/>
      <point x="153" y="131"/>
      <point x="153" y="225" type="curve" smooth="yes"/>
      <point x="153" y="259" type="line" smooth="yes"/>
      <point x="153" y="353"/>
      <point x="174" y="401"/>
      <point x="231" y="401" type="curve" smooth="yes"/>
    </contour>
    <contour>
      <point x="347" y="551" type="line"/>
      <point x="347" y="630" type="line"/>
      <point x="113" y="630" type="line"/>
      <point x="113" y="551" type="line"/>
    </contour>
  </outline>
</glyph>
<glyph name="Ohungarumlaut" format="1">
  <advance width="587"/>
  <unicode hex="0150"/>
  <outline>
    <contour>
      <point x="131" y="642"/>
      <point x="31" y="538"/>
      <point x="31" y="315" type="curve" smooth="yes"/>
      <point x="31" y="93"/>
      <point x="131" y="-11"/>
      <point x="293" y="-11" type="curve" smooth="yes"/>
      <point x="456" y="-11"/>
      <point x="555" y="93"/>
      <point x="555" y="315" type="curve" smooth="yes"/>
      <point x="555" y="538"/>
      <point x="456" y="642"/>
      <point x="293" y="642" type="curve" smooth="yes"/>
    </contour>
    <contour>
      <point x="387" y="541"/>
      <point x="434" y="464"/>
      <point x="434" y="338" type="curve" smooth="yes"/>
      <point x="434" y="292" type="line" smooth="yes"/>
      <point x="434" y="166"/>
      <point x="387" y="90"/>
      <point x="293" y="90" type="curve" smooth="yes"/>
      <point x="200" y="90"/>
      <point x="153" y="166"/>
      <point x="153" y="292" type="curve" smooth="yes"/>
      <point x="153" y="338" type="line" smooth="yes"/>
      <point x="153" y="464"/>
      <point x="200" y="541"/>
      <point x="293" y="541" type="curve" smooth="yes"/>
    </contour>
    <contour>
      <point x="339" y="812" type="line"/>
      <point x="248" y="812" type="line"/>
      <point x="190" y="691" type="line"/>
      <point x="263" y="691" type="line"/>
      <point x="340" y="809" type="line"/>
    </contour>
    <contour>
      <point x="468" y="812" type="line"/>
      <point x="376" y="812" type="line"/>
      <point x="319" y="691" type="line"/>
      <point x="392" y="691" type="line"/>
      <point x="469" y="809" type="line"/>
    </contour>
  </outline>
</glyph>
<glyph name="ohungarumlaut" format="1">
  <advance width="461"/>
  <unicode hex="0151"/>
  <outline>
    <contour>
      <point x="102" y="495"/>
      <point x="37" y="416"/>
      <point x="37" y="241" type="curve" smooth="yes"/>
      <point x="37" y="68"/>
      <point x="102" y="-11"/>
      <point x="231" y="-11" type="curve" smooth="yes"/>
      <point x="360" y="-11"/>
      <point x="424" y="68"/>
      <point x="424" y="241" type="curve" smooth="yes"/>
      <point x="424" y="416"/>
      <point x="360" y="495"/>
      <point x="231" y="495" type="curve" smooth="yes"/>
    </contour>
    <contour>
      <point x="288" y="401"/>
      <point x="309" y="353"/>
      <point x="309" y="259" type="curve" smooth="yes"/>
      <point x="309" y="225" type="line" smooth="yes"/>
      <point x="309" y="131"/>
      <point x="288" y="82"/>
      <point x="231" y="82" type="curve" smooth="yes"/>
      <point x="174" y="82"/>
      <point x="153" y="131"/>
      <point x="153" y="225" type="curve" smooth="yes"/>
      <point x="153" y="259" type="line" smooth="yes"/>
      <point x="153" y="353"/>
      <point x="174" y="401"/>
      <point x="231" y="401" type="curve" smooth="yes"/>
    </contour>
    <contour>
      <point x="277" y="661" type="line"/>
      <point x="276" y="665" type="line"/>
      <point x="184" y="665" type="line"/>
      <point x="127" y="543" type="line"/>
      <point x="200" y="543" type="line"/>
    </contour>
    <contour>
      <point x="406" y="661" type="line"/>
      <point x="405" y="665" type="line"/>
      <point x="313" y="665" type="line"/>
      <point x="256" y="543" type="line"/>
      <point x="329" y="543" type="line"/>
    </contour>
  </outline>
</glyph>
<glyph name="Rcommaaccent" format="1">
  <advance width="544"/>
  <unicode hex="0156"/>
  <outline>
    <contour>
      <point x="55" y="630" type="line"/>
      <point x="55" y="0" type="line"/>
      <point x="173" y="0" type="line"/>
      <point x="173" y="263" type="line"/>
      <point x="295" y="263" type="line"/>
      <point x="400" y="0" type="line"/>
      <point x="527" y="0" type="line"/>
      <point x="407" y="289" type="line"/>
      <point x="471" y="315"/>
      <point x="512" y="374"/>
      <point x="512" y="450" type="curve" smooth="yes"/>
      <point x="512" y="554"/>
      <point x="447" y="630"/>
      <point x="319" y="630" type="curve" smooth="yes"/>
    </contour>
    <contour>
      <point x="329" y="-51" type="line"/>
      <point x="215" y="-51" type="line"/>
      <point x="215" y="-163" type="line"/>
      <point x="260" y="-163" type="line"/>
      <point x="228" y="-241" type="line"/>
      <point x="287" y="-241" type="line"/>
      <point x="329" y="-154" type="line"/>
    </contour>
    <contour>
      <point x="307" y="526" type="line"/>
      <point x="361" y="526"/>
      <point x="385" y="496"/>
      <point x="385" y="450" type="curve" smooth="yes"/>
      <point x="385" y="398"/>
      <point x="360" y="367"/>
      <point x="303" y="367" type="curve" smooth="yes"/>
      <point x="173" y="367" type="line"/>
      <point x="173" y="526" type="line"/>
    </contour>
  </outline>
</glyph>
<glyph name="rcommaaccent" format="1">
  <advance width="293"/>
  <unicode hex="0157"/>
  <outline>
    <contour>
      <point x="196" y="495"/>
      <point x="174" y="453"/>
      <point x="161" y="413" type="curve"/>
      <point x="155" y="413" type="line"/>
      <point x="142" y="484" type="line"/>
      <point x="51" y="484" type="line"/>
      <point x="51" y="0" type="line"/>
      <point x="161" y="0" type="line"/>
      <point x="161" y="269" type="line" smooth="yes"/>
      <point x="161" y="355"/>
      <point x="203" y="381"/>
      <point x="251" y="381" type="curve" smooth="yes"/>
      <point x="290" y="381" type="line"/>
      <point x="290" y="488" type="line"/>
      <point x="290" y="488"/>
      <point x="274" y="495"/>
      <point x="244" y="495" type="curve" smooth="yes"/>
    </contour>
    <contour>
      <point x="168" y="-154" type="line"/>
      <point x="168" y="-51" type="line"/>
      <point x="54" y="-51" type="line"/>
      <point x="54" y="-163" type="line"/>
      <point x="99" y="-163" type="line"/>
      <point x="67" y="-241" type="line"/>
      <point x="126" y="-241" type="line"/>
    </contour>
  </outline>
</glyph>
<glyph name="Rcaron" format="1">
  <advance width="544"/>
  <unicode hex="0158"/>
  <outline>
    <contour>
      <point x="55" y="630" type="line"/>
      <point x="55" y="0" type="line"/>
      <point x="173" y="0" type="line"/>
      <point x="173" y="263" type="line"/>
      <point x="295" y="263" type="line"/>
      <point x="400" y="0" type="line"/>
      <point x="527" y="0" type="line"/>
      <point x="407" y="289" type="line"/>
      <point x="471" y="315"/>
      <point x="512" y="374"/>
      <point x="512" y="450" type="curve" smooth="yes"/>
      <point x="512" y="554"/>
      <point x="447" y="630"/>
      <point x="319" y="630" type="curve" smooth="yes"/>
    </contour>
    <contour>
      <point x="307" y="526" type="line"/>
      <point x="361" y="526"/>
      <point x="385" y="496"/>
      <point x="385" y="450" type="curve" smooth="yes"/>
      <point x="385" y="398"/>
      <point x="360" y="367"/>
      <point x="303" y="367" type="curve" smooth="yes"/>
      <point x="173" y="367" type="line"/>
      <point x="173" y="526" type="line"/>
    </contour>
    <contour>
      <point x="396" y="812" type="line"/>
      <point x="313" y="812" type="line"/>
      <point x="272" y="749" type="line"/>
      <point x="231" y="812" type="line"/>
      <point x="149" y="812" type="line"/>
      <point x="228" y="687" type="line"/>
      <point x="318" y="687" type="line"/>
    </contour>
  </outline>
</glyph>
<glyph name="rcaron" format="1">
  <advance width="293"/>
  <unicode hex="0159"/>
  <outline>
    <contour>
      <point x="196" y="495"/>
      <point x="174" y="453"/>
      <point x="161" y="413" type="curve"/>
      <point x="155" y="413" type="line"/>
      <point x="142" y="484" type="line"/>
      <point x="51" y="484" type="line"/>
      <point x="51" y="0" type="line"/>
      <point x="161" y="0" type="line"/>
      <point x="161" y="269" type="line" smooth="yes"/>
      <point x="161" y="355"/>
      <point x="203" y="381"/>
      <point x="251" y="381" type="curve" smooth="yes"/>
      <point x="290" y="381" type="line"/>
      <point x="290" y="488" type="line"/>
      <point x="290" y="488"/>
      <point x="274" y="495"/>
      <point x="244" y="495" type="curve" smooth="yes"/>
    </contour>
    <contour>
      <point x="148" y="541" type="line"/>
      <point x="226" y="665" type="line"/>
      <point x="144" y="665" type="line"/>
      <point x="103" y="601" type="line"/>
      <point x="61" y="665" type="line"/>
      <point x="-21" y="665" type="line"/>
      <point x="58" y="541" type="line"/>
    </contour>
  </outline>
</glyph>
<glyph name="sacute" format="1">
  <advance width="419"/>
  <unicode hex="015B"/>
  <outline>
    <contour>
      <point x="114" y="495"/>
      <point x="37" y="446"/>
      <point x="37" y="347" type="curve" smooth="yes"/>
      <point x="37" y="161"/>
      <point x="274" y="234"/>
      <point x="274" y="131" type="curve" smooth="yes"/>
      <point x="274" y="92"/>
      <point x="239" y="79"/>
      <point x="210" y="79" type="curve" smooth="yes"/>
      <point x="178" y="79"/>
      <point x="145" y="96"/>
      <point x="144" y="147" type="curve" smooth="yes"/>
      <point x="144" y="154" type="line"/>
      <point x="31" y="154" type="line"/>
      <point x="31" y="154"/>
      <point x="30" y="147"/>
      <point x="30" y="142" type="curve" smooth="yes"/>
      <point x="30" y="51"/>
      <point x="95" y="-11"/>
      <point x="206" y="-11" type="curve" smooth="yes"/>
      <point x="309" y="-11"/>
      <point x="386" y="28"/>
      <point x="386" y="146" type="curve" smooth="yes"/>
      <point x="386" y="337"/>
      <point x="150" y="263"/>
      <point x="150" y="357" type="curve" smooth="yes"/>
      <point x="150" y="386"/>
      <point x="173" y="405"/>
      <point x="207" y="405" type="curve" smooth="yes"/>
      <point x="240" y="405"/>
      <point x="260" y="385"/>
      <point x="261" y="344" type="curve" smooth="yes"/>
      <point x="261" y="342" type="line"/>
      <point x="373" y="342" type="line"/>
      <point x="373" y="343"/>
      <point x="374" y="353"/>
      <point x="374" y="363" type="curve" smooth="yes"/>
      <point x="374" y="446"/>
      <point x="303" y="495"/>
      <point x="210" y="495" type="curve" smooth="yes"/>
    </contour>
    <contour>
      <point x="336" y="665" type="line"/>
      <point x="226" y="665" type="line"/>
      <point x="147" y="543" type="line"/>
      <point x="237" y="543" type="line"/>
      <point x="337" y="661" type="line"/>
    </contour>
  </outline>
</glyph>
<glyph name="Scedilla" format="1">
  <advance width="503"/>
  <unicode hex="015E"/>
  <outline>
    <contour>
      <point x="139" y="642"/>
      <point x="41" y="584"/>
      <point x="41" y="465" type="curve" smooth="yes"/>
      <point x="41" y="226"/>
      <point x="346" y="314"/>
      <point x="346" y="164" type="curve" smooth="yes"/>
      <point x="346" y="128"/>
      <point x="321" y="90"/>
      <point x="251" y="90" type="curve" smooth="yes"/>
      <point x="186" y="90"/>
      <point x="150" y="131"/>
      <point x="150" y="190" type="curve" smooth="yes"/>
      <point x="150" y="194"/>
      <point x="151" y="203"/>
      <point x="151" y="205" type="curve"/>
      <point x="28" y="205" type="line"/>
      <point x="28" y="201"/>
      <point x="28" y="192"/>
      <point x="28" y="185" type="curve" smooth="yes"/>
      <point x="28" y="69"/>
      <point x="107" y="4"/>
      <point x="207" y="-8" type="curve"/>
      <point x="200" y="-71" type="line"/>
      <point x="230" y="-71" type="line" smooth="yes"/>
      <point x="254" y="-71"/>
      <point x="261" y="-78"/>
      <point x="261" y="-93" type="curve" smooth="yes"/>
      <point x="261" y="-110"/>
      <point x="249" y="-115"/>
      <point x="228" y="-115" type="curve" smooth="yes"/>
      <point x="162" y="-115" type="line"/>
      <point x="162" y="-160" type="line"/>
      <point x="185" y="-164"/>
      <point x="214" y="-167"/>
      <point x="240" y="-167" type="curve" smooth="yes"/>
      <point x="280" y="-167"/>
      <point x="340" y="-155"/>
      <point x="340" y="-93" type="curve" smooth="yes"/>
      <point x="340" y="-51"/>
      <point x="307" y="-33"/>
      <point x="267" y="-30" type="curve"/>
      <point x="269" y="-10" type="line"/>
      <point x="387" y="-3"/>
      <point x="468" y="54"/>
      <point x="468" y="189" type="curve" smooth="yes"/>
      <point x="468" y="421"/>
      <point x="162" y="345"/>
      <point x="162" y="473" type="curve" smooth="yes"/>
      <point x="162" y="512"/>
      <point x="193" y="541"/>
      <point x="250" y="541" type="curve" smooth="yes"/>
      <point x="304" y="541"/>
      <point x="336" y="506"/>
      <point x="336" y="453" type="curve" smooth="yes"/>
      <point x="336" y="445" type="line"/>
      <point x="456" y="445" type="line"/>
      <point x="456" y="456" type="line" smooth="yes"/>
      <point x="456" y="586"/>
      <point x="363" y="642"/>
      <point x="251" y="642" type="curve" smooth="yes"/>
    </contour>
  </outline>
</glyph>
<glyph name="Tbar" format="1">
  <advance width="461"/>
  <unicode hex="0166"/>
  <outline>
    <contour>
      <point x="446" y="630" type="line"/>
      <point x="16" y="630" type="line"/>
      <point x="16" y="526" type="line"/>
      <point x="172" y="526" type="line"/>
      <point x="172" y="361" type="line"/>
      <point x="68" y="361" type="line"/>
      <point x="68" y="282" type="line"/>
      <point x="172" y="282" type="line"/>
      <point x="172" y="0" type="line"/>
      <point x="289" y="0" type="line"/>
      <point x="289" y="282" type="line"/>
      <point x="392" y="282" type="line"/>
      <point x="392" y="361" type="line"/>
      <point x="289" y="361" type="line"/>
      <point x="289" y="526" type="line"/>
      <point x="446" y="526" type="line"/>
    </contour>
  </outline>
</glyph>
<glyph name="Utilde" format="1">
  <advance width="544"/>
  <unicode hex="0168"/>
  <outline>
    <contour>
      <point x="489" y="630" type="line"/>
      <point x="371" y="630" type="line"/>
      <point x="371" y="202" type="line" smooth="yes"/>
      <point x="371" y="129"/>
      <point x="335" y="90"/>
      <point x="272" y="90" type="curve" smooth="yes"/>
      <point x="210" y="90"/>
      <point x="174" y="129"/>
      <point x="174" y="202" type="curve" smooth="yes"/>
      <point x="174" y="630" type="line"/>
      <point x="56" y="630" type="line"/>
      <point x="56" y="198" type="line" smooth="yes"/>
      <point x="56" y="60"/>
      <point x="137" y="-11"/>
      <point x="272" y="-11" type="curve" smooth="yes"/>
      <point x="408" y="-11"/>
      <point x="489" y="60"/>
      <point x="489" y="198" type="curve" smooth="yes"/>
    </contour>
    <contour>
      <point x="366" y="812" type="line"/>
      <point x="362" y="786"/>
      <point x="349" y="778"/>
      <point x="330" y="778" type="curve" smooth="yes"/>
      <point x="289" y="778"/>
      <point x="253" y="812"/>
      <point x="208" y="812" type="curve" smooth="yes"/>
      <point x="144" y="812"/>
      <point x="118" y="750"/>
      <point x="118" y="700" type="curve"/>
      <point x="178" y="700" type="line"/>
      <point x="182" y="725"/>
      <point x="194" y="733"/>
      <point x="214" y="733" type="curve" smooth="yes"/>
      <point x="256" y="733"/>
      <point x="291" y="700"/>
      <point x="336" y="700" type="curve" smooth="yes"/>
      <point x="400" y="700"/>
      <point x="426" y="761"/>
      <point x="426" y="812" type="curve"/>
    </contour>
  </outline>
</glyph>
<glyph name="Umacron" format="1">
  <advance width="544"/>
  <unicode hex="016A"/>
  <outline>
    <contour>
      <point x="489" y="630" type="line"/>
      <point x="371" y="630" type="line"/>
      <point x="371" y="202" type="line" smooth="yes"/>
      <point x="371" y="129"/>
      <point x="335" y="90"/>
      <point x="272" y="90" type="curve" smooth="yes"/>
      <point x="210" y="90"/>
      <point x="174" y="129"/>
      <point x="174" y="202" type="curve" smooth="yes"/>
      <point x="174" y="630" type="line"/>
      <point x="56" y="630" type="line"/>
      <point x="56" y="198" type="line" smooth="yes"/>
      <point x="56" y="60"/>
      <point x="137" y="-11"/>
      <point x="272" y="-11" type="curve" smooth="yes"/>
      <point x="408" y="-11"/>
      <point x="489" y="60"/>
      <point x="489" y="198" type="curve" smooth="yes"/>
    </contour>
    <contour>
      <point x="390" y="778" type="line"/>
      <point x="155" y="778" type="line"/>
      <point x="155" y="698" type="line"/>
      <point x="390" y="698" type="line"/>
    </contour>
  </outline>
</glyph>
<glyph name="umacron" format="1">
  <advance width="461"/>
  <unicode hex="016B"/>
  <outline>
    <contour>
      <point x="410" y="0" type="line"/>
      <point x="410" y="484" type="line"/>
      <point x="300" y="484" type="line"/>
      <point x="300" y="184" type="line" smooth="yes"/>
      <point x="300" y="130"/>
      <point x="267" y="89"/>
      <point x="225" y="89" type="curve" smooth="yes"/>
      <point x="183" y="89"/>
      <point x="161" y="112"/>
      <point x="161" y="175" type="curve" smooth="yes"/>
      <point x="161" y="484" type="line"/>
      <point x="51" y="484" type="line"/>
      <point x="51" y="145" type="line" smooth="yes"/>
      <point x="51" y="30"/>
      <point x="105" y="-11"/>
      <point x="179" y="-11" type="curve" smooth="yes"/>
      <point x="237" y="-11"/>
      <point x="277" y="22"/>
      <point x="302" y="59" type="curve"/>
      <point x="307" y="59" type="line"/>
      <point x="318" y="0" type="line"/>
    </contour>
    <contour>
      <point x="347" y="551" type="line"/>
      <point x="347" y="630" type="line"/>
      <point x="113" y="630" type="line"/>
      <point x="113" y="551" type="line"/>
    </contour>
  </outline>
</glyph>
<glyph name="Uring" format="1">
  <advance width="544"/>
  <unicode hex="016E"/>
  <outline>
    <contour>
      <point x="489" y="630" type="line"/>
      <point x="371" y="630" type="line"/>
      <point x="371" y="202" type="line" smooth="yes"/>
      <point x="371" y="129"/>
      <point x="335" y="90"/>
      <point x="272" y="90" type="curve" smooth="yes"/>
      <point x="210" y="90"/>
      <point x="174" y="129"/>
      <point x="174" y="202" type="curve" smooth="yes"/>
      <point x="174" y="630" type="line"/>
      <point x="56" y="630" type="line"/>
      <point x="56" y="198" type="line" smooth="yes"/>
      <point x="56" y="60"/>
      <point x="137" y="-11"/>
      <point x="272" y="-11" type="curve" smooth="yes"/>
      <point x="408" y="-11"/>
      <point x="489" y="60"/>
      <point x="489" y="198" type="curve" smooth="yes"/>
    </contour>
    <contour>
      <point x="224" y="839"/>
      <point x="184" y="800"/>
      <point x="184" y="751" type="curve" smooth="yes"/>
      <point x="184" y="701"/>
      <point x="225" y="662"/>
      <point x="272" y="662" type="curve" smooth="yes"/>
      <point x="321" y="662"/>
      <point x="361" y="702"/>
      <point x="361" y="751" type="curve" smooth="yes"/>
      <point x="361" y="799"/>
      <point x="321" y="839"/>
      <point x="272" y="839" type="curve" smooth="yes"/>
    </contour>
    <contour>
      <point x="295" y="794"/>
      <point x="314" y="775"/>
      <point x="314" y="751" type="curve" smooth="yes"/>
      <point x="314" y="727"/>
      <point x="295" y="709"/>
      <point x="272" y="709" type="curve" smooth="yes"/>
      <point x="249" y="709"/>
      <point x="230" y="727"/>
      <point x="230" y="751" type="curve" smooth="yes"/>
      <point x="230" y="775"/>
      <point x="249" y="794"/>
      <point x="272" y="794" type="curve" smooth="yes"/>
    </contour>
  </outline>
</glyph>
<glyph name="Uhungarumlaut" format="1">
  <advance width="544"/>
  <unicode hex="0170"/>
  <outline>
    <contour>
      <point x="489" y="630" type="line"/>
      <point x="371" y="630" type="line"/>
      <point x="371" y="202" type="line" smooth="yes"/>
      <point x="371" y="129"/>
      <point x="335" y="90"/>
      <point x="272" y="90" type="curve" smooth="yes"/>
      <point x="210" y="90"/>
      <point x="174" y="129"/>
      <point x="174" y="202" type="curve" smooth="yes"/>
      <point x="174" y="630" type="line"/>
      <point x="56" y="630" type="line"/>
      <point x="56" y="198" type="line" smooth="yes"/>
      <point x="56" y="60"/>
      <point x="137" y="-11"/>
      <point x="272" y="-11" type="curve" smooth="yes"/>
      <point x="408" y="-11"/>
      <point x="489" y="60"/>
      <point x="489" y="198" type="curve" smooth="yes"/>
    </contour>
    <contour>
      <point x="317" y="812" type="line"/>
      <point x="226" y="812" type="line"/>
      <point x="168" y="691" type="line"/>
      <point x="241" y="691" type="line"/>
      <point x="318" y="809" type="line"/>
    </contour>
    <contour>
      <point x="446" y="812" type="line"/>
      <point x="354" y="812" type="line"/>
      <point x="297" y="691" type="line"/>
      <point x="369" y="691" type="line"/>
      <point x="447" y="809" type="line"/>
    </contour>
  </outline>
</glyph>
<glyph name="Uogonek" format="1">
  <advance width="544"/>
  <unicode hex="0172"/>
  <outline>
    <contour>
      <point x="489" y="630" type="line"/>
      <point x="371" y="630" type="line"/>
      <point x="371" y="209" type="line" smooth="yes"/>
      <point x="371" y="131"/>
      <point x="335" y="90"/>
      <point x="272" y="90" type="curve" smooth="yes"/>
      <point x="210" y="90"/>
      <point x="174" y="131"/>
      <point x="174" y="209" type="curve" smooth="yes"/>
      <point x="174" y="630" type="line"/>
      <point x="56" y="630" type="line"/>
      <point x="56" y="205" type="line" smooth="yes"/>
      <point x="56" y="63"/>
      <point x="137" y="-11"/>
      <point x="272" y="-11" type="curve" smooth="yes"/>
      <point x="291" y="-11"/>
      <point x="309" y="-11"/>
      <point x="329" y="-7" type="curve"/>
      <point x="302" y="10" type="line"/>
      <point x="277" y="-12"/>
      <point x="255" y="-42"/>
      <point x="255" y="-87" type="curve" smooth="yes"/>
      <point x="255" y="-151"/>
      <point x="304" y="-171"/>
      <point x="345" y="-171" type="curve" smooth="yes"/>
      <point x="366" y="-171"/>
      <point x="385" y="-165"/>
      <point x="407" y="-157" type="curve"/>
      <point x="407" y="-107" type="line"/>
      <point x="386" y="-107" type="line" smooth="yes"/>
      <point x="356" y="-107"/>
      <point x="344" y="-83"/>
      <point x="344" y="-59" type="curve" smooth="yes"/>
      <point x="344" y="-34"/>
      <point x="361" y="-8"/>
      <point x="372" y="4" type="curve"/>
      <point x="447" y="33"/>
      <point x="489" y="101"/>
      <point x="489" y="205" type="curve" smooth="yes"/>
    </contour>
  </outline>
</glyph>
<glyph name="Ycircumflex" format="1">
  <advance width="503"/>
  <unicode hex="0176"/>
  <outline>
    <contour>
      <point x="311" y="238" type="line"/>
      <point x="503" y="630" type="line"/>
      <point x="385" y="630" type="line"/>
      <point x="257" y="354" type="line"/>
      <point x="253" y="354" type="line"/>
      <point x="124" y="630" type="line"/>
      <point x="0" y="630" type="line"/>
      <point x="193" y="238" type="line"/>
      <point x="193" y="0" type="line"/>
      <point x="311" y="0" type="line"/>
    </contour>
    <contour>
      <point x="375" y="687" type="line"/>
      <point x="297" y="812" type="line"/>
      <point x="207" y="812" type="line"/>
      <point x="128" y="687" type="line"/>
      <point x="210" y="687" type="line"/>
      <point x="252" y="751" type="line"/>
      <point x="292" y="687" type="line"/>
    </contour>
  </outline>
</glyph>
<glyph name="Zdotaccent" format="1">
  <advance width="461"/>
  <unicode hex="017B"/>
  <outline>
    <contour>
      <point x="435" y="630" type="line"/>
      <point x="34" y="630" type="line"/>
      <point x="34" y="526" type="line"/>
      <point x="274" y="526" type="line"/>
      <point x="15" y="45" type="line"/>
      <point x="15" y="0" type="line"/>
      <point x="441" y="0" type="line"/>
      <point x="441" y="105" type="line"/>
      <point x="176" y="105" type="line"/>
      <point x="435" y="584" type="line"/>
    </contour>
    <contour>
      <point x="280" y="812" type="line"/>
      <point x="181" y="812" type="line"/>
      <point x="181" y="706" type="line"/>
      <point x="280" y="706" type="line"/>
    </contour>
  </outline>
</glyph>
<glyph name="Zcaron" format="1">
  <advance width="461"/>
  <unicode hex="017D"/>
  <outline>
    <contour>
      <point x="435" y="630" type="line"/>
      <point x="34" y="630" type="line"/>
      <point x="34" y="526" type="line"/>
      <point x="274" y="526" type="line"/>
      <point x="15" y="45" type="line"/>
      <point x="15" y="0" type="line"/>
      <point x="441" y="0" type="line"/>
      <point x="441" y="105" type="line"/>
      <point x="176" y="105" type="line"/>
      <point x="435" y="584" type="line"/>
    </contour>
    <contour>
      <point x="354" y="812" type="line"/>
      <point x="271" y="812" type="line"/>
      <point x="231" y="749" type="line"/>
      <point x="189" y="812" type="line"/>
      <point x="107" y="812" type="line"/>
      <point x="186" y="687" type="line"/>
      <point x="276" y="687" type="line"/>
    </contour>
  </outline>
</glyph>
<glyph name="longs" format="1">
  <advance width="210"/>
  <unicode hex="017F"/>
  <outline>
    <contour>
      <point x="83" y="672"/>
      <point x="57" y="606"/>
      <point x="57" y="543" type="curve" smooth="yes"/>
      <point x="57" y="484" type="line"/>
      <point x="8" y="484" type="line"/>
      <point x="8" y="391" type="line"/>
      <point x="57" y="391" type="line"/>
      <point x="57" y="0" type="line"/>
      <point x="167" y="0" type="line"/>
      <point x="167" y="540" type="line" smooth="yes"/>
      <point x="167" y="566"/>
      <point x="181" y="579"/>
      <point x="206" y="579" type="curve" smooth="yes"/>
      <point x="251" y="579" type="line"/>
      <point x="251" y="661" type="line"/>
      <point x="233" y="667"/>
      <point x="197" y="672"/>
      <point x="171" y="672" type="curve" smooth="yes"/>
    </contour>
  </outline>
</glyph>
<glyph name="florin" format="1">
  <advance width="419"/>
  <unicode hex="0192"/>
  <outline>
    <contour>
      <point x="244" y="672"/>
      <point x="209" y="606"/>
      <point x="200" y="543" type="curve" smooth="yes"/>
      <point x="186" y="448" type="line"/>
      <point x="120" y="448" type="line"/>
      <point x="107" y="355" type="line"/>
      <point x="174" y="355" type="line"/>
      <point x="119" y="-35" type="line"/>
      <point x="114" y="-60"/>
      <point x="99" y="-75"/>
      <point x="75" y="-75" type="curve" smooth="yes"/>
      <point x="29" y="-75" type="line"/>
      <point x="18" y="-156" type="line"/>
      <point x="35" y="-162"/>
      <point x="70" y="-167"/>
      <point x="96" y="-167" type="curve" smooth="yes"/>
      <point x="184" y="-167"/>
      <point x="219" y="-102"/>
      <point x="229" y="-37" type="curve" smooth="yes"/>
      <point x="284" y="355" type="line"/>
      <point x="368" y="355" type="line"/>
      <point x="381" y="448" type="line"/>
      <point x="297" y="448" type="line"/>
      <point x="310" y="540" type="line"/>
      <point x="313" y="566"/>
      <point x="329" y="579"/>
      <point x="354" y="579" type="curve" smooth="yes"/>
      <point x="399" y="579" type="line"/>
      <point x="411" y="661" type="line"/>
      <point x="393" y="667"/>
      <point x="359" y="672"/>
      <point x="333" y="672" type="curve" smooth="yes"/>
    </contour>
  </outline>
</glyph>
<glyph name="Aringacute" format="1">
  <advance width="544"/>
  <unicode hex="01FA"/>
  <outline>
    <contour>
      <point x="224" y="755"/>
      <point x="184" y="717"/>
      <point x="184" y="670" type="curve" smooth="yes"/>
      <point x="184" y="651"/>
      <point x="189" y="633"/>
      <point x="200" y="620" type="curve"/>
      <point x="0" y="0" type="line"/>
      <point x="114" y="0" type="line"/>
      <point x="152" y="124" type="line"/>
      <point x="385" y="124" type="line"/>
      <point x="423" y="0" type="line"/>
      <point x="543" y="0" type="line"/>
      <point x="344" y="619" type="line"/>
      <point x="354" y="633"/>
      <point x="361" y="651"/>
      <point x="361" y="670" type="curve" smooth="yes"/>
      <point x="361" y="716"/>
      <point x="321" y="755"/>
      <point x="272" y="755" type="curve" smooth="yes"/>
    </contour>
    <contour>
      <point x="270" y="525" type="line"/>
      <point x="270" y="525"/>
      <point x="279" y="472"/>
      <point x="289" y="440" type="curve" smooth="yes"/>
      <point x="353" y="229" type="line"/>
      <point x="184" y="229" type="line"/>
      <point x="249" y="440" type="line" smooth="yes"/>
      <point x="258" y="469"/>
      <point x="266" y="525"/>
      <point x="266" y="525" type="curve"/>
    </contour>
    <contour>
      <point x="408" y="877" type="line"/>
      <point x="408" y="880" type="line"/>
      <point x="297" y="880" type="line"/>
      <point x="233" y="780" type="line"/>
      <point x="323" y="780" type="line"/>
    </contour>
    <contour>
      <point x="295" y="709"/>
      <point x="314" y="693"/>
      <point x="314" y="670" type="curve" smooth="yes"/>
      <point x="314" y="646"/>
      <point x="295" y="628"/>
      <point x="272" y="628" type="curve" smooth="yes"/>
      <point x="249" y="628"/>
      <point x="230" y="646"/>
      <point x="230" y="670" type="curve" smooth="yes"/>
      <point x="230" y="693"/>
      <point x="249" y="709"/>
      <point x="272" y="709" type="curve" smooth="yes"/>
    </contour>
  </outline>
</glyph>
<glyph name="Oslashacute" format="1">
  <advance width="587"/>
  <unicode hex="01FE"/>
  <outline>
    <contour>
      <point x="551" y="665" type="line"/>
      <point x="473" y="665" type="line"/>
      <point x="436" y="605" type="line"/>
      <point x="396" y="630"/>
      <point x="348" y="642"/>
      <point x="293" y="642" type="curve" smooth="yes"/>
      <point x="131" y="642"/>
      <point x="31" y="538"/>
      <point x="31" y="315" type="curve" smooth="yes"/>
      <point x="31" y="204"/>
      <point x="56" y="123"/>
      <point x="101" y="69" type="curve"/>
      <point x="36" y="-34" type="line"/>
      <point x="114" y="-34" type="line"/>
      <point x="151" y="25" type="line"/>
      <point x="190" y="1"/>
      <point x="238" y="-11"/>
      <point x="293" y="-11" type="curve" smooth="yes"/>
      <point x="456" y="-11"/>
      <point x="555" y="93"/>
      <point x="555" y="315" type="curve" smooth="yes"/>
      <point x="555" y="425"/>
      <point x="530" y="508"/>
      <point x="486" y="561" type="curve"/>
    </contour>
    <contour>
      <point x="416" y="450" type="line"/>
      <point x="428" y="420"/>
      <point x="434" y="382"/>
      <point x="434" y="338" type="curve" smooth="yes"/>
      <point x="434" y="292" type="line" smooth="yes"/>
      <point x="434" y="166"/>
      <point x="387" y="90"/>
      <point x="293" y="90" type="curve" smooth="yes"/>
      <point x="259" y="90"/>
      <point x="231" y="100"/>
      <point x="210" y="119" type="curve"/>
    </contour>
    <contour>
      <point x="328" y="541"/>
      <point x="356" y="530"/>
      <point x="376" y="512" type="curve"/>
      <point x="170" y="178" type="line"/>
      <point x="158" y="210"/>
      <point x="153" y="249"/>
      <point x="153" y="292" type="curve" smooth="yes"/>
      <point x="153" y="338" type="line" smooth="yes"/>
      <point x="153" y="464"/>
      <point x="200" y="541"/>
      <point x="293" y="541" type="curve" smooth="yes"/>
    </contour>
    <contour>
      <point x="420" y="812" type="line"/>
      <point x="309" y="812" type="line"/>
      <point x="230" y="691" type="line"/>
      <point x="321" y="691" type="line"/>
      <point x="421" y="809" type="line"/>
    </contour>
  </outline>
</glyph>
<glyph name="dotaccent" format="1">
  <advance width="251"/>
  <unicode hex="02D9"/>
  <outline>
    <contour>
      <point x="175" y="558" type="line"/>
      <point x="175" y="665" type="line"/>
      <point x="76" y="665" type="line"/>
      <point x="76" y="558" type="line"/>
    </contour>
    <contour>
      <point x="126" y="484" type="move" name="_top"/>
    </contour>
  </outline>
</glyph>
<glyph name="ogonek" format="1">
  <advance width="251"/>
  <unicode hex="02DB"/>
  <outline>
    <contour>
      <point x="173" y="11" type="line"/>
      <point x="101" y="11" type="line"/>
      <point x="78" y="-12"/>
      <point x="57" y="-40"/>
      <point x="57" y="-84" type="curve" smooth="yes"/>
      <point x="57" y="-148"/>
      <point x="106" y="-167"/>
      <point x="148" y="-167" type="curve" smooth="yes"/>
      <point x="168" y="-167"/>
      <point x="187" y="-162"/>
      <point x="209" y="-155" type="curve"/>
      <point x="209" y="-104" type="line"/>
      <point x="188" y="-104" type="line" smooth="yes"/>
      <point x="158" y="-104"/>
      <point x="147" y="-81"/>
      <point x="147" y="-57" type="curve" smooth="yes"/>
      <point x="147" y="-31"/>
      <point x="163" y="-5"/>
      <point x="175" y="7" type="curve"/>
    </contour>
    <contour>
      <point x="176" y="9" type="move" name="_ogonek"/>
    </contour>
  </outline>
</glyph>
<glyph name="gravecomb" format="1">
  <advance width="251"/>
  <unicode hex="0300"/>
  <outline>
    <contour>
      <point x="210" y="543" type="line"/>
      <point x="131" y="665" type="line"/>
      <point x="20" y="665" type="line"/>
      <point x="20" y="661" type="line"/>
      <point x="119" y="543" type="line"/>
    </contour>
    <contour>
      <point x="115" y="665" type="move" name="top"/>
    </contour>
    <contour>
      <point x="114" y="484" type="move" name="_top"/>
    </contour>
  </outline>
</glyph>
<glyph name="tildecomb" format="1">
  <advance width="251"/>
  <unicode hex="0303"/>
  <outline>
    <contour>
      <point x="218" y="665" type="line"/>
      <point x="215" y="639"/>
      <point x="202" y="630"/>
      <point x="183" y="630" type="curve" smooth="yes"/>
      <point x="141" y="630"/>
      <point x="106" y="665"/>
      <point x="60" y="665" type="curve" smooth="yes"/>
      <point x="-4" y="665"/>
      <point x="-29" y="603"/>
      <point x="-29" y="552" type="curve"/>
      <point x="31" y="552" type="line"/>
      <point x="35" y="577"/>
      <point x="48" y="587"/>
      <point x="68" y="587" type="curve" smooth="yes"/>
      <point x="108" y="587"/>
      <point x="145" y="552"/>
      <point x="188" y="552" type="curve" smooth="yes"/>
      <point x="254" y="552"/>
      <point x="280" y="615"/>
      <point x="280" y="665" type="curve"/>
    </contour>
    <contour>
      <point x="126" y="665" type="move" name="top"/>
    </contour>
    <contour>
      <point x="125" y="484" type="move" name="_top"/>
    </contour>
  </outline>
</glyph>
<glyph name="macroncomb" format="1">
  <advance width="251"/>
  <unicode hex="0304"/>
  <outline>
    <contour>
      <point x="242" y="551" type="line"/>
      <point x="242" y="630" type="line"/>
      <point x="8" y="630" type="line"/>
      <point x="8" y="551" type="line"/>
    </contour>
    <contour>
      <point x="125" y="630" type="move" name="top"/>
    </contour>
    <contour>
      <point x="126" y="484" type="move" name="_top"/>
    </contour>
  </outline>
</glyph>
<glyph name="brevecomb" format="1">
  <advance width="251"/>
  <unicode hex="0306"/>
  <outline>
    <contour>
      <point x="178" y="665" type="line"/>
      <point x="177" y="652"/>
      <point x="155" y="634"/>
      <point x="123" y="634" type="curve" smooth="yes"/>
      <point x="93" y="634"/>
      <point x="72" y="652"/>
      <point x="69" y="665" type="curve"/>
      <point x="1" y="665" type="line"/>
      <point x="1" y="619"/>
      <point x="48" y="567"/>
      <point x="123" y="567" type="curve" smooth="yes"/>
      <point x="200" y="567"/>
      <point x="246" y="619"/>
      <point x="246" y="665" type="curve"/>
    </contour>
    <contour>
      <point x="124" y="665" type="move" name="top"/>
    </contour>
    <contour>
      <point x="124" y="484" type="move" name="_top"/>
    </contour>
  </outline>
</glyph>
<glyph name="ringcomb" format="1">
  <advance width="251"/>
  <unicode hex="030A"/>
  <outline>
    <contour>
      <point x="79" y="693"/>
      <point x="40" y="653"/>
      <point x="40" y="604" type="curve" smooth="yes"/>
      <point x="40" y="554"/>
      <point x="80" y="516"/>
      <point x="128" y="516" type="curve" smooth="yes"/>
      <point x="177" y="516"/>
      <point x="216" y="555"/>
      <point x="216" y="604" type="curve" smooth="yes"/>
      <point x="216" y="652"/>
      <point x="178" y="693"/>
      <point x="128" y="693" type="curve" smooth="yes"/>
    </contour>
    <contour>
      <point x="151" y="646"/>
      <point x="171" y="628"/>
      <point x="171" y="604" type="curve" smooth="yes"/>
      <point x="171" y="580"/>
      <point x="151" y="562"/>
      <point x="128" y="562" type="curve" smooth="yes"/>
      <point x="104" y="562"/>
      <point x="85" y="580"/>
      <point x="85" y="604" type="curve" smooth="yes"/>
      <point x="85" y="628"/>
      <point x="104" y="646"/>
      <point x="128" y="646" type="curve" smooth="yes"/>
    </contour>
    <contour>
      <point x="128" y="693" type="move" name="top"/>
    </contour>
    <contour>
      <point x="128" y="484" type="move" name="_top"/>
    </contour>
  </outline>
</glyph>
<glyph name="hungarumlautcomb" format="1">
  <advance width="251"/>
  <unicode hex="030B"/>
  <outline>
    <contour>
      <point x="282" y="661" type="line"/>
      <point x="282" y="665" type="line"/>
      <point x="189" y="665" type="line"/>
      <point x="132" y="543" type="line"/>
      <point x="205" y="543" type="line"/>
    </contour>
    <contour>
      <point x="154" y="661" type="line"/>
      <point x="153" y="665" type="line"/>
      <point x="60" y="665" type="line"/>
      <point x="4" y="543" type="line"/>
      <point x="76" y="543" type="line"/>
    </contour>
    <contour>
      <point x="144" y="484" type="move" name="_top"/>
    </contour>
  </outline>
</glyph>
<glyph name="cedillacomb" format="1">
  <advance width="251"/>
  <unicode hex="0327"/>
  <outline>
    <contour>
      <point x="142" y="10" type="line"/>
      <point x="80" y="10" type="line"/>
      <point x="70" y="-71" type="line"/>
      <point x="100" y="-71" type="line" smooth="yes"/>
      <point x="124" y="-71"/>
      <point x="131" y="-78"/>
      <point x="131" y="-93" type="curve" smooth="yes"/>
      <point x="131" y="-110"/>
      <point x="119" y="-115"/>
      <point x="99" y="-115" type="curve" smooth="yes"/>
      <point x="33" y="-115" type="line"/>
      <point x="33" y="-160" type="line"/>
      <point x="55" y="-164"/>
      <point x="84" y="-167"/>
      <point x="110" y="-167" type="curve" smooth="yes"/>
      <point x="150" y="-167"/>
      <point x="210" y="-155"/>
      <point x="210" y="-93" type="curve" smooth="yes"/>
      <point x="210" y="-51"/>
      <point x="178" y="-33"/>
      <point x="138" y="-30" type="curve"/>
    </contour>
    <contour>
      <point x="123" y="0" type="move" name="_bottom"/>
    </contour>
    <contour>
      <point x="122" y="-167" type="move" name="bottom"/>
    </contour>
  </outline>
</glyph>
<glyph name="Delta" format="1">
  <advance width="542"/>
  <unicode hex="0394"/>
  <outline>
    <contour>
      <point x="336" y="630" type="line"/>
      <point x="199" y="630" type="line"/>
      <point x="11" y="51" type="line"/>
      <point x="11" y="0" type="line"/>
      <point x="522" y="0" type="line"/>
      <point x="522" y="51" type="line"/>
    </contour>
    <contour>
      <point x="265" y="497" type="line"/>
      <point x="386" y="105" type="line"/>
      <point x="141" y="105" type="line"/>
      <point x="262" y="497" type="line"/>
    </contour>
  </outline>
</glyph>
<glyph name="mu" format="1">
  <advance width="461"/>
  <unicode hex="03BC"/>
  <outline>
    <contour>
      <point x="410" y="0" type="line"/>
      <point x="410" y="484" type="line"/>
      <point x="300" y="484" type="line"/>
      <point x="300" y="184" type="line" smooth="yes"/>
      <point x="300" y="130"/>
      <point x="267" y="89"/>
      <point x="225" y="89" type="curve" smooth="yes"/>
      <point x="183" y="89"/>
      <point x="161" y="112"/>
      <point x="161" y="175" type="curve" smooth="yes"/>
      <point x="161" y="484" type="line"/>
      <point x="51" y="484" type="line"/>
      <point x="51" y="-159" type="line"/>
      <point x="161" y="-159" type="line"/>
      <point x="161" y="-4" type="line"/>
      <point x="172" y="-8"/>
      <point x="185" y="-11"/>
      <point x="198" y="-11" type="curve" smooth="yes"/>
      <point x="246" y="-11"/>
      <point x="281" y="22"/>
      <point x="302" y="59" type="curve"/>
      <point x="307" y="59" type="line"/>
      <point x="318" y="0" type="line"/>
    </contour>
  </outline>
</glyph>
<glyph name="pi" format="1">
  <advance width="577"/>
  <unicode hex="03C0"/>
  <outline>
    <contour>
      <point x="527" y="391" type="line"/>
      <point x="535" y="484" type="line"/>
      <point x="165" y="484" type="line" smooth="yes"/>
      <point x="86" y="484"/>
      <point x="43" y="473"/>
      <point x="19" y="456" type="curve"/>
      <point x="29" y="379" type="line"/>
      <point x="51" y="387"/>
      <point x="72" y="391"/>
      <point x="129" y="391" type="curve"/>
      <point x="126" y="281"/>
      <point x="100" y="92"/>
      <point x="70" y="0" type="curve"/>
      <point x="179" y="0" type="line"/>
      <point x="209" y="76"/>
      <point x="233" y="281"/>
      <point x="239" y="391" type="curve"/>
      <point x="340" y="391" type="line"/>
      <point x="340" y="135" type="line" smooth="yes"/>
      <point x="340" y="61"/>
      <point x="345" y="15"/>
      <point x="354" y="0" type="curve"/>
      <point x="463" y="0" type="line"/>
      <point x="456" y="28"/>
      <point x="450" y="68"/>
      <point x="450" y="144" type="curve" smooth="yes"/>
      <point x="450" y="391" type="line"/>
    </contour>
  </outline>
</glyph>
<glyph name="candraBindu-deva" format="1">
  <advance width="0"/>
  <unicode hex="0901"/>
  <outline>
    <contour>
      <point x="-38" y="825" type="line"/>
      <point x="-38" y="755"/>
      <point x="-67" y="726"/>
      <point x="-133" y="726" type="curve" smooth="yes"/>
      <point x="-199" y="726"/>
      <point x="-227" y="755"/>
      <point x="-227" y="825" type="curve"/>
      <point x="-309" y="825" type="line"/>
      <point x="-309" y="727"/>
      <point x="-245" y="659"/>
      <point x="-133" y="659" type="curve" smooth="yes"/>
      <point x="-19" y="659"/>
      <point x="45" y="727"/>
      <point x="45" y="825" type="curve"/>
    </contour>
    <component base="anusvara-deva" xOffset="-23" yOffset="223" xScale="0.85" yScale="0.85"/>
    <contour>
      <point x="-132" y="630" type="move" name="_candra"/>
    </contour>
    <contour>
      <point x="-263" y="677" type="move" name="_post"/>
    </contour>
    <contour>
      <point x="-130" y="883" type="move" name="top"/>
    </contour>
  </outline>
</glyph>
<glyph name="anusvara-deva" format="1">
  <advance width="0"/>
  <unicode hex="0902"/>
  <outline>
    <contour>
      <point x="-68" y="685" type="line"/>
      <point x="-68" y="811" type="line"/>
      <point x="-194" y="811" type="line"/>
      <point x="-194" y="685" type="line"/>
    </contour>
    <contour>
      <point x="-286" y="605" type="move" name="_post"/>
    </contour>
    <contour>
      <point x="-131" y="630" type="move" name="_top"/>
    </contour>
  </outline>
</glyph>
<glyph name="visarga-deva" format="1">
  <advance width="227"/>
  <unicode hex="0903"/>
  <outline>
    <contour>
      <point x="237" y="534" type="line"/>
      <point x="237" y="630" type="line"/>
      <point x="-10" y="630" type="line"/>
      <point x="-10" y="534" type="line"/>
    </contour>
    <contour>
      <point x="176" y="346" type="line"/>
      <point x="176" y="472" type="line"/>
      <point x="50" y="472" type="line"/>
      <point x="50" y="346" type="line"/>
    </contour>
    <contour>
      <point x="176" y="80" type="line"/>
      <point x="176" y="206" type="line"/>
      <point x="50" y="206" type="line"/>
      <point x="50" y="80" type="line"/>
    </contour>
  </outline>
</glyph>
<glyph name="aShort-deva" format="1">
  <advance width="665"/>
  <unicode hex="0904"/>
  <outline>
    <component base="a-deva"/>
    <component base="eShortMatra-deva" xOffset="671"/>
    <contour>
      <point x="599" y="720" type="move" name="top"/>
    </contour>
    <contour>
      <point x="537" y="0" type="move" name="bottom"/>
    </contour>
  </outline>
</glyph>
